<svg width="24" height="24" viewBox="0 0 24 24" fill="none" xmlns="http://www.w3.org/2000/svg">
<path d="M5.72812 16.2882V20.0382C5.72812 20.2371 5.64911 20.4279 5.50846 20.5685C5.3678 20.7092 5.17704 20.7882 4.97812 20.7882H3.1875C2.98859 20.7882 2.79782 20.7092 2.65717 20.5685C2.51652 20.4279 2.4375 20.2371 2.4375 20.0382V16.2882C2.4375 16.0893 2.51652 15.8985 2.65717 15.7579C2.79782 15.6172 2.98859 15.5382 3.1875 15.5382H4.98187C5.18014 15.5392 5.36994 15.6186 5.50978 15.7592C5.64962 15.8997 5.72813 16.0899 5.72812 16.2882ZM21.5625 15.4013C21.5433 15.1294 21.447 14.8686 21.2851 14.6494C21.1231 14.4301 20.9021 14.2615 20.6478 14.1632C20.3936 14.0648 20.1166 14.0409 19.8493 14.0941C19.582 14.1474 19.3353 14.2756 19.1381 14.4638L16.5338 16.9932L16.5619 18.1295C16.5629 18.2906 16.532 18.4503 16.4712 18.5994C16.4103 18.7486 16.3206 18.8843 16.2072 18.9987C16.0939 19.1132 15.959 19.2041 15.8104 19.2663C15.6618 19.3286 15.5024 19.3608 15.3412 19.3613H11.4037V18.6113H15.3412C15.4032 18.6113 15.4646 18.5991 15.5218 18.5753C15.579 18.5516 15.631 18.5167 15.6747 18.4728C15.7184 18.4289 15.753 18.3768 15.7766 18.3195C15.8001 18.2622 15.8121 18.2008 15.8119 18.1388L15.7913 17.2876C15.789 17.1988 15.7554 17.1138 15.6963 17.0475C15.6373 16.9813 15.5566 16.9381 15.4688 16.9257C15.4225 16.9228 15.3762 16.9228 15.33 16.9257C14.6756 16.9257 13.95 16.9257 13.1737 16.9051C12.2681 16.8826 11.7431 16.5695 11.1356 16.2057C10.3802 15.7023 9.5229 15.3719 8.625 15.2382C7.83344 15.111 7.02206 15.2509 6.31875 15.6357C6.41792 15.839 6.46984 16.062 6.47062 16.2882V20.0382C6.47044 20.1155 6.46354 20.1927 6.45 20.2688C7.83 20.7732 10.0519 21.5457 11.5406 21.8626C11.9938 21.9636 12.4564 22.0163 12.9206 22.0201C13.5136 22.0196 14.102 21.9148 14.6588 21.7107C16.0756 21.2107 17.3577 20.3899 18.405 19.3126L21.1575 16.5001C21.2981 16.3555 21.4068 16.1829 21.4766 15.9937C21.5463 15.8044 21.5756 15.6026 21.5625 15.4013ZM11.4131 5.06258C11.5841 4.98343 11.7703 4.94248 11.9587 4.94258H12.9375L12.3563 4.20195L12.945 3.73883L13.8506 4.87508L14.7525 3.7257L15.3431 4.18883L14.7619 4.92945H15.75C15.9384 4.92936 16.1246 4.97031 16.2956 5.04945L17.5763 3.33008C17.6062 3.29028 17.6279 3.24491 17.6402 3.19662C17.6524 3.14833 17.6549 3.09809 17.6475 3.04883C17.628 2.95248 17.5714 2.86764 17.49 2.81258L16.7756 2.29508C16.4403 2.05378 16.0284 1.94312 15.6173 1.98386C15.2061 2.02459 14.824 2.21392 14.5425 2.51633C14.4547 2.61209 14.3479 2.68855 14.229 2.74086C14.11 2.79317 13.9815 2.82018 13.8516 2.82018C13.7216 2.82018 13.5931 2.79317 13.4742 2.74086C13.3552 2.68855 13.2484 2.61209 13.1606 2.51633C12.8791 2.21392 12.497 2.02459 12.0859 1.98386C11.6747 1.94312 11.2629 2.05378 10.9275 2.29508L10.2131 2.81258C10.1726 2.84166 10.1383 2.87853 10.1123 2.92103C10.0862 2.96353 10.0688 3.0108 10.0612 3.06008C10.0536 3.10922 10.0558 3.15939 10.0677 3.20767C10.0796 3.25596 10.101 3.30139 10.1306 3.34133L11.4131 5.06258ZM15.75 5.68508H11.9587C11.8062 5.68557 11.6601 5.74638 11.5523 5.85422C11.4444 5.96207 11.3836 6.10819 11.3831 6.2607V7.33695H16.3125V6.2607C16.3121 6.11043 16.2531 5.96624 16.148 5.85877C16.043 5.75129 15.9002 5.68898 15.75 5.68508ZM8.65687 14.4863C8.53453 14.0403 8.47148 13.5801 8.46937 13.1176V13.0895C8.46999 11.7609 8.93867 10.475 9.79313 9.45758L10.9444 8.08695H16.7494L17.9025 9.45758C18.757 10.475 19.2256 11.7609 19.2262 13.0895V13.2301C19.2262 13.3276 19.2262 13.4176 19.2131 13.5207C18.9927 13.6225 18.7907 13.76 18.615 13.9276L16.08 16.3876C15.9245 16.2727 15.7415 16.2009 15.5494 16.1795C15.474 16.1716 15.3983 16.1679 15.3225 16.1682H14.8237C14.31 16.1682 13.7606 16.1682 13.1925 16.1457C12.4838 16.1251 12.0994 15.9001 11.52 15.5626C10.6812 15.0114 9.73228 14.6498 8.73938 14.5032L8.65687 14.4863ZM12.0169 11.7882C12.0171 11.9335 12.046 12.0773 12.1018 12.2114C12.1576 12.3455 12.2393 12.4673 12.3422 12.5699C12.4451 12.6724 12.5672 12.7537 12.7015 12.8091C12.8358 12.8645 12.9797 12.8928 13.125 12.8926H14.5856C14.6796 12.8926 14.7697 12.9299 14.8362 12.9964C14.9027 13.0628 14.94 13.153 14.94 13.247C14.94 13.3409 14.9027 13.4311 14.8362 13.4975C14.7697 13.564 14.6796 13.6013 14.5856 13.6013H12.3919V14.3513H13.4756V15.0132H14.2256V14.3513H14.5819C14.8748 14.3513 15.1557 14.235 15.3628 14.0279C15.5699 13.8208 15.6863 13.5399 15.6863 13.247C15.6863 12.9541 15.5699 12.6732 15.3628 12.466C15.1557 12.2589 14.8748 12.1426 14.5819 12.1426H13.125C13.0403 12.1302 12.963 12.0878 12.907 12.023C12.8511 11.9583 12.8203 11.8756 12.8203 11.7901C12.8203 11.7045 12.8511 11.6218 12.907 11.5571C12.963 11.4924 13.0403 11.45 13.125 11.4376H15.3113V10.6876H14.2256V9.91695H13.4756V10.6876H13.125C12.8323 10.6871 12.5512 10.8026 12.3435 11.0089C12.1358 11.2152 12.0184 11.4955 12.0169 11.7882Z" fill="#2969FF"/>
</svg>
