<svg width="24" height="24" viewBox="0 0 24 24" fill="none" xmlns="http://www.w3.org/2000/svg">
<path opacity="0.4" d="M1.53833 3.61475C1.53833 2.51018 2.43376 1.61475 3.53833 1.61475H8.46167C9.56623 1.61475 10.4617 2.51018 10.4617 3.61475V8.53808C10.4617 9.64265 9.56623 10.5381 8.46166 10.5381H3.53833C2.43376 10.5381 1.53833 9.64265 1.53833 8.53808V3.61475Z" fill="white"/>
<path opacity="0.4" d="M13.4617 15.5381C13.4617 14.4335 14.3571 13.5381 15.4617 13.5381H20.385C21.4896 13.5381 22.385 14.4335 22.385 15.5381V20.4614C22.385 21.566 21.4896 22.4614 20.385 22.4614H15.4617C14.3571 22.4614 13.4617 21.566 13.4617 20.4614V15.5381Z" fill="white"/>
<circle cx="17.9233" cy="6.07641" r="4.46166" fill="white"/>
<circle cx="5.99999" cy="17.9998" r="4.46166" fill="white"/>
</svg>
