<svg width="19" height="17" viewBox="0 0 19 17" fill="none" xmlns="http://www.w3.org/2000/svg">
<path d="M4.86237 16.8218C3.90065 16.8221 2.96047 16.5371 2.16078 16.0029C1.36109 15.4687 0.73783 14.7093 0.36987 13.8207C0.00191006 12.9322 -0.0942154 11.9545 0.0936569 11.0113C0.281529 10.0681 0.744956 9.20185 1.4253 8.52213L8.5996 1.34698C8.71856 1.22802 8.87991 1.16118 9.04815 1.16118C9.21639 1.16118 9.37774 1.22802 9.4967 1.34698C9.61566 1.46594 9.6825 1.62729 9.6825 1.79553C9.6825 1.96377 9.61566 2.12512 9.4967 2.24409L2.32156 9.41839C1.97419 9.74895 1.69649 10.1457 1.50483 10.5853C1.31317 11.0248 1.21143 11.4983 1.20558 11.9778C1.19974 12.4573 1.28993 12.9331 1.47083 13.3772C1.65172 13.8212 1.91967 14.2246 2.25888 14.5636C2.5981 14.9025 3.00172 15.1701 3.44596 15.3506C3.8902 15.5312 4.36608 15.621 4.84557 15.6147C5.32505 15.6085 5.79843 15.5063 6.23783 15.3143C6.67722 15.1223 7.07374 14.8443 7.40402 14.4966L16.671 5.22964C17.0957 4.79112 17.3309 4.20324 17.326 3.59283C17.3211 2.98241 17.0764 2.39838 16.6448 1.96674C16.2132 1.53509 15.6291 1.29043 15.0187 1.28553C14.4083 1.28063 13.8204 1.51588 13.3819 1.94054L5.90913 9.41839C5.71089 9.61662 5.59953 9.88548 5.59953 10.1658C5.59953 10.4462 5.71089 10.715 5.90913 10.9133C6.10736 11.1115 6.37623 11.2229 6.65657 11.2229C6.93692 11.2229 7.20579 11.1115 7.40402 10.9133L12.1855 6.13097C12.2439 6.07038 12.3139 6.02204 12.3913 5.98877C12.4686 5.9555 12.5518 5.93796 12.636 5.93719C12.7202 5.93642 12.8037 5.95243 12.8817 5.98428C12.9596 6.01612 13.0304 6.06318 13.09 6.12269C13.1496 6.1822 13.1967 6.25299 13.2286 6.3309C13.2605 6.40882 13.2766 6.49232 13.2759 6.57652C13.2752 6.66072 13.2578 6.74394 13.2246 6.82133C13.1914 6.89871 13.1431 6.96871 13.0826 7.02723L8.30028 11.8104C7.86423 12.2465 7.27277 12.4916 6.65603 12.4917C6.03928 12.4918 5.44776 12.2469 5.0116 11.8108C4.57544 11.3748 4.33036 10.7833 4.33028 10.1666C4.3302 9.54981 4.57513 8.95829 5.01118 8.52213L12.4856 1.05274C13.1595 0.37876 14.0735 7.9296e-05 15.0266 1.24521e-08C15.9796 -7.92711e-05 16.8937 0.378449 17.5677 1.05231C18.2417 1.72618 18.6203 2.64018 18.6204 3.59325C18.6205 4.54632 18.242 5.46038 17.5681 6.13436L8.30113 15.398C7.85052 15.8508 7.31459 16.2098 6.72433 16.4542C6.13408 16.6987 5.50122 16.8236 4.86237 16.8218Z" fill="#121212"/>
</svg>
