<svg width="396" height="412" viewBox="0 0 396 412" fill="none" xmlns="http://www.w3.org/2000/svg">
<path d="M361.273 411.138H35.4881C25.5928 411.138 17.2198 407.332 11.1304 401.243H10.3692C4.27977 394.392 0.473877 386.019 0.473877 376.124V71.6518C0.473877 61.7564 4.27977 53.3835 10.3692 47.294L11.1304 46.5329C17.2198 40.4434 25.5928 36.6375 35.4881 36.6375H361.273C370.407 36.6375 379.541 40.4434 385.631 47.294C391.72 53.3835 395.526 61.7564 395.526 71.6518V376.124C395.526 386.019 391.72 394.392 385.631 401.243C379.541 407.332 370.407 411.138 361.273 411.138ZM35.4881 385.258H361.273C363.557 385.258 365.84 384.497 367.363 382.974C368.885 380.691 369.646 379.168 369.646 376.124V71.6518C369.646 69.3682 368.885 67.0847 367.363 65.5624C365.84 63.2788 363.557 62.5176 361.273 62.5176H35.4881C33.2046 62.5176 30.9211 63.2788 29.3987 65.5624H28.6375C27.1152 67.0847 26.354 69.3682 26.354 71.6518V376.124C26.354 379.168 27.1152 380.691 28.6375 382.974H29.3987C30.9211 384.497 33.2046 385.258 35.4881 385.258Z" fill="#2554B0"/>
<path d="M170.978 160.71H225.783C232.634 160.71 238.723 166.799 238.723 173.65V229.216C238.723 236.067 232.634 242.156 225.783 242.156H170.978C163.366 242.156 158.038 236.067 158.038 229.216V173.65C158.038 166.799 163.366 160.71 170.978 160.71ZM212.843 187.351H183.918V216.276H212.843V187.351Z" fill="#2554B0"/>
<path d="M70.5024 160.71H125.307C132.158 160.71 138.247 166.799 138.247 173.65V229.216C138.247 236.067 132.158 242.156 125.307 242.156H70.5024C63.6518 242.156 57.5624 236.067 57.5624 229.216V173.65C57.5624 166.799 63.6518 160.71 70.5024 160.71ZM112.367 187.351H83.4425V216.276H112.367V187.351Z" fill="#2554B0"/>
<path d="M270.693 160.71H326.259C333.109 160.71 339.199 166.799 339.199 173.65V229.216C339.199 236.067 333.109 242.156 326.259 242.156H270.693C263.842 242.156 257.753 236.067 257.753 229.216V173.65C257.753 166.799 263.842 160.71 270.693 160.71ZM312.558 187.351H283.633V216.276H312.558V187.351Z" fill="#479DFF"/>
<path d="M170.978 267.275H225.783C232.634 267.275 238.723 273.364 238.723 280.215V335.02C238.723 342.632 232.634 347.96 225.783 347.96H170.978C163.366 347.96 158.038 342.632 158.038 335.02V280.215C158.038 273.364 163.366 267.275 170.978 267.275ZM212.843 293.155H183.918V322.08H212.843V293.155Z" fill="#2554B0"/>
<path d="M70.5024 267.275H125.307C132.158 267.275 138.247 273.364 138.247 280.215V335.02C138.247 342.632 132.158 347.96 125.307 347.96H70.5024C63.6518 347.96 57.5624 342.632 57.5624 335.02V280.215C57.5624 273.364 63.6518 267.275 70.5024 267.275ZM112.367 293.155H83.4425V322.08H112.367V293.155Z" fill="#2554B0"/>
<path d="M270.693 267.275H326.259C333.109 267.275 339.199 273.364 339.199 280.215V335.02C339.199 342.632 333.109 347.96 326.259 347.96H270.693C263.842 347.96 257.753 342.632 257.753 335.02V280.215C257.753 273.364 263.842 267.275 270.693 267.275ZM312.558 293.155H283.633V322.08H312.558V293.155Z" fill="#2554B0"/>
<path d="M13.4139 131.024C6.5633 131.024 0.473877 124.934 0.473877 118.084C0.473877 110.472 6.5633 105.144 13.4139 105.144H382.586C390.198 105.144 395.526 110.472 395.526 118.084C395.526 124.934 390.198 131.024 382.586 131.024H13.4139Z" fill="#2554B0"/>
<path d="M126.83 77.7412C126.83 84.5918 120.74 90.6813 113.89 90.6813C106.278 90.6813 100.95 84.5918 100.95 77.7412V13.8021C100.95 6.9515 106.278 0.862061 113.89 0.862061C120.74 0.862061 126.83 6.9515 126.83 13.8021V77.7412Z" fill="#2554B0"/>
<path d="M295.812 77.7412C295.812 84.5918 289.722 90.6813 282.872 90.6813C275.26 90.6813 269.932 84.5918 269.932 77.7412V13.8021C269.932 6.9515 275.26 0.862061 282.872 0.862061C289.722 0.862061 295.812 6.9515 295.812 13.8021V77.7412Z" fill="#2554B0"/>
</svg>
