<svg width="14" height="14" viewBox="0 0 14 14" fill="none" xmlns="http://www.w3.org/2000/svg">
<path d="M12.25 11.0833V10.1232C12.25 9.64615 11.9596 9.21716 11.5166 9.03998L10.33 8.56535C9.76667 8.34 9.12461 8.58411 8.85325 9.12682L8.75 9.33333C8.75 9.33333 7.29167 9.04167 6.125 7.875C4.95833 6.70833 4.66667 5.25 4.66667 5.25L4.87318 5.14675C5.41589 4.87539 5.66 4.23333 5.43465 3.66996L4.96002 2.48338C4.78284 2.04044 4.35385 1.75 3.87679 1.75H2.91667C2.27233 1.75 1.75 2.27233 1.75 2.91667C1.75 8.07132 5.92868 12.25 11.0833 12.25C11.7277 12.25 12.25 11.7277 12.25 11.0833Z" stroke="#2969FF" stroke-linejoin="round"/>
</svg>
