<svg width="341" height="342" viewBox="0 0 341 342" fill="none" xmlns="http://www.w3.org/2000/svg">
<g opacity="0.43">
<path d="M306.195 273.752L304.507 272.461C326.977 242.958 338.857 207.713 338.857 170.522C338.857 112.906 309.871 59.9004 261.315 28.7285L262.467 26.9404C311.639 58.4898 340.983 112.171 340.983 170.522C340.983 208.17 328.943 243.872 306.195 273.752Z" fill="#F1F5F9"/>
<path d="M170.501 341.003C76.4892 341.003 0 264.514 0 170.501C0 76.4892 76.4892 0 170.501 0V2.12579C77.6614 2.12579 2.14568 77.6614 2.14568 170.482C2.14568 263.322 77.6813 338.837 170.501 338.837C198.554 338.837 226.329 331.804 250.805 318.493L251.818 320.361C227.024 333.89 198.892 341.003 170.501 341.003Z" fill="#F1F5F9"/>
<path d="M89.8202 301.745C43.8869 273.454 16.47 224.382 16.47 170.502H20.7415C20.7415 222.892 47.4034 270.593 92.0652 298.11L89.8202 301.745Z" fill="#F1F5F9"/>
<path d="M170.501 324.553C153.614 324.553 137.025 321.831 121.171 316.487L122.542 312.454C137.959 317.659 154.091 320.301 170.521 320.301C247.666 320.301 311.738 262.507 319.506 185.859L323.758 186.296C315.732 265.09 249.852 324.553 170.501 324.553Z" fill="#F1F5F9"/>
<path d="M318.354 146.581C312.771 111.833 294.931 79.9862 268.09 56.9202C240.971 33.5959 206.302 20.7616 170.501 20.7616C141.595 20.7616 113.542 29.0066 89.3633 44.6223C61.1914 62.8208 39.6949 90.2377 28.8275 121.827L24.7944 120.436C35.9599 87.953 58.0722 59.7612 87.0388 41.0461C111.913 24.9933 140.76 16.51 170.482 16.51C207.316 16.51 242.958 29.7218 270.851 53.7016C298.447 77.4232 316.805 110.184 322.546 145.926L318.354 146.581Z" fill="#F1F5F9"/>
<path d="M170.502 281.758C109.151 281.758 59.2446 231.852 59.2446 170.501C59.2446 145.667 67.2511 122.184 82.3701 102.595L85.7476 105.197C71.2047 124.051 63.516 146.621 63.516 170.501C63.516 229.487 111.516 277.487 170.502 277.487C180.972 277.487 191.323 275.977 201.236 272.997L202.468 277.089C192.137 280.209 181.369 281.758 170.502 281.758Z" fill="#F1F5F9"/>
<path d="M245.64 252.554L242.759 249.415C264.831 229.19 277.487 200.442 277.487 170.521C277.487 149.462 271.368 129.078 259.805 111.575L263.361 109.231C275.401 127.429 281.758 148.628 281.758 170.541C281.738 201.634 268.586 231.534 245.64 252.554Z" fill="#F1F5F9"/>
<path d="M237.057 86.7409C217.965 71.5424 194.938 63.516 170.502 63.516C149.065 63.516 128.383 69.8338 110.681 81.794L108.297 78.2576C126.694 65.8206 148.21 59.2644 170.502 59.2644C195.932 59.2644 219.872 67.6087 239.719 83.4231L237.057 86.7409Z" fill="#F1F5F9"/>
<path d="M170.501 262.646C155.521 262.646 140.641 258.97 127.489 252.017L128.482 250.129C141.336 256.924 155.859 260.52 170.481 260.52C210.872 260.52 246.554 233.361 257.262 194.461L259.308 195.037C248.381 234.851 211.845 262.646 170.501 262.646Z" fill="#F1F5F9"/>
<path d="M105.356 235.686C87.9525 218.282 78.3566 195.137 78.3566 170.521C78.3566 119.72 119.681 78.3765 170.501 78.3765C221.302 78.3765 262.646 119.72 262.646 170.521H260.52C260.52 120.893 220.15 80.5221 170.521 80.5221C120.893 80.5221 80.5222 120.893 80.5222 170.521C80.5222 194.561 89.8797 217.17 106.906 234.176L105.356 235.686Z" fill="#F1F5F9"/>
<path d="M170.501 227.819C138.892 227.819 113.184 202.11 113.184 170.501C113.184 138.892 138.892 113.184 170.501 113.184V117.456C141.257 117.456 117.456 141.257 117.456 170.501C117.456 199.746 141.257 223.547 170.501 223.547C199.746 223.547 223.547 199.746 223.547 170.501H227.819C227.799 202.11 202.09 227.819 170.501 227.819Z" fill="#F1F5F9"/>
<path d="M170.501 198.991C154.786 198.991 142.012 186.217 142.012 170.501H144.137C144.137 185.024 155.958 196.846 170.482 196.846C185.005 196.846 196.826 185.024 196.826 170.501C196.826 155.978 185.005 144.157 170.482 144.157C162.415 144.157 154.906 147.773 149.859 154.091L148.19 152.76C153.634 145.926 161.76 142.012 170.482 142.012C186.197 142.012 198.971 154.786 198.971 170.501C198.971 186.217 186.197 198.991 170.501 198.991Z" fill="#F1F5F9"/>
<path d="M65.198 279.584L61.8434 276.227L65.198 272.871C65.6201 272.448 65.6201 271.755 65.198 271.332C64.7758 270.91 64.0823 270.91 63.6601 271.332L60.3056 274.689L56.951 271.332C56.5289 270.91 55.8353 270.91 55.4132 271.332C54.991 271.755 54.991 272.448 55.4132 272.871L58.7677 276.227L55.4132 279.584C54.991 280.006 54.991 280.7 55.4132 281.122C55.8353 281.545 56.5289 281.545 56.951 281.122L60.3056 277.766L63.6601 281.122C64.0823 281.545 64.7758 281.545 65.198 281.122C65.6277 280.7 65.6277 280.014 65.198 279.584Z" fill="#FF8092"/>
<path d="M11.5905 218.531L8.23597 215.174L11.5905 211.818C12.0127 211.395 12.0127 210.702 11.5905 210.279C11.1684 209.857 10.4749 209.857 10.0527 210.279L6.69814 213.636L3.34357 210.279C2.92142 209.857 2.2279 209.857 1.80575 210.279C1.3836 210.702 1.3836 211.395 1.80575 211.818L5.16032 215.174L1.80575 218.531C1.3836 218.953 1.3836 219.647 1.80575 220.069C2.2279 220.492 2.92142 220.492 3.34357 220.069L6.69814 216.713L10.0527 220.069C10.4749 220.492 11.1684 220.492 11.5905 220.069C12.0202 219.647 12.0202 218.961 11.5905 218.531Z" fill="#887EF9"/>
<path d="M136.997 253.146C136.997 255.617 135 257.614 132.53 257.614C130.059 257.614 128.062 255.617 128.062 253.146C128.062 250.676 130.059 248.679 132.53 248.679C135 248.679 136.997 250.684 136.997 253.146Z" fill="#2DD4BF"/>
</g>
</svg>
