<svg width="138" height="138" viewBox="0 0 138 138" fill="none" xmlns="http://www.w3.org/2000/svg">
<circle cx="69" cy="69" r="69" fill="#3784FB" fill-opacity="0.2"/>
<circle cx="68.9999" cy="68.9999" r="48.8049" fill="#404C8C"/>
<path d="M90.2301 78.1956H87.1578C86.6168 78.1956 86.1335 78.4407 85.8089 78.8228L83.7244 74.957C83.152 73.8639 83.4288 73.0793 83.3567 71.3003C83.3567 70.1607 82.4333 69.2373 81.3011 69.2373C79.231 69.2373 77.5506 70.9179 77.5506 72.988C77.5761 73.7143 77.4649 74.3675 77.7526 75.2598L78.041 76.2121H72.8336C71.6145 76.2121 70.4823 77.1929 70.3668 78.3541C70.302 78.9457 70.4678 79.53 70.814 80.0058C70.2659 80.3953 69.8908 80.994 69.8258 81.6789C69.7182 82.6811 70.2701 83.6648 71.1963 84.0808C70.9655 84.5066 70.8573 84.9897 70.9077 85.4803C70.9943 86.4034 71.6578 87.175 72.5305 87.4852C72.3287 87.8892 72.2421 88.3505 72.2854 88.8122C72.408 89.9734 73.5332 90.9471 74.752 90.9471H84.0924C84.2005 90.9471 84.3159 90.9256 84.4097 90.8749L85.4483 90.3629C85.6286 91.1419 86.3282 91.7261 87.1578 91.7261H90.2301C91.1895 91.7261 91.9829 90.9401 91.9829 89.9734V79.948C91.9829 78.9816 91.1895 78.1956 90.2301 78.1956ZM74.752 89.5046C74.2689 89.5046 73.764 89.1007 73.7207 88.6682C73.6636 88.1267 74.0743 87.6222 74.6584 87.6222H76.7788C77.1828 87.6222 77.5001 87.2975 77.5001 86.901C77.5001 86.5044 77.1828 86.1797 76.7788 86.1797C76.6478 86.1797 73.2385 86.1797 73.3673 86.1797C72.8408 86.1797 72.3863 85.8121 72.3432 85.343C72.3143 85.069 72.4008 84.8094 72.5811 84.6076C73.0443 84.1064 73.5548 84.3796 75.3652 84.3044C75.7617 84.3044 76.0864 83.9801 76.0864 83.5831C76.0864 83.1792 75.7617 82.8619 75.3652 82.8619C75.2561 82.8619 71.9904 82.8619 72.1917 82.8619C71.653 82.8619 71.2008 82.39 71.2613 81.8163C71.3044 81.3472 71.7589 80.9795 72.2854 80.9795C72.4518 80.9795 74.9635 80.9795 74.8602 80.9795C75.2571 80.9795 75.5814 80.6548 75.5814 80.2583C75.5814 79.8543 75.2571 79.537 74.8602 79.537H72.7397C72.1809 79.537 71.7425 79.0504 71.8022 78.4984C71.8454 78.0656 72.3432 77.6546 72.8336 77.6546H79.0148C79.5025 77.6546 79.8487 77.1964 79.7071 76.7242L79.1301 74.8344C78.9202 74.1343 79.0185 73.7697 78.9931 72.988C78.9931 71.7187 80.0317 70.6798 81.3011 70.6798C81.6401 70.6798 81.9142 70.9612 81.9142 71.3003C81.9977 72.9398 81.6505 74.1323 82.4552 75.6423L84.6476 79.6955C84.6837 79.7677 84.7343 79.8328 84.7919 79.8832L85.405 80.453V88.7689L83.9264 89.5046H74.752ZM87.9944 89.4831C87.5845 89.4831 87.2514 89.1467 87.2514 88.74C87.2514 88.3435 87.5688 88.0188 87.9727 88.0047H87.9944C88.4055 88.0047 88.73 88.3365 88.73 88.74C88.73 89.1514 88.4055 89.4831 87.9944 89.4831Z" fill="white"/>
<path d="M67.1788 80.0058C67.5322 79.53 67.6909 78.9457 67.6333 78.3541C67.5178 77.1929 66.3854 76.2121 65.1665 76.2121H59.9518L60.2477 75.2598C60.531 74.3311 60.418 73.6808 60.4424 72.988C60.4424 70.9179 58.7618 69.2373 56.699 69.2373C53.4365 69.2373 55.3216 73.005 54.2684 74.957L52.1839 78.8228C51.8594 78.4407 51.3762 78.1956 50.8353 78.1956H47.7699C46.8106 78.1956 46.0173 78.9816 46.0173 79.948V89.9734C46.0173 90.9401 46.8106 91.7261 47.7699 91.7261H50.8353C51.6646 91.7261 52.3642 91.1419 52.5445 90.3629L53.5831 90.8749C53.6842 90.9256 53.7923 90.9471 53.9078 90.9471H63.2408C64.4597 90.9471 65.5921 89.9734 65.7074 88.8122C65.758 88.3505 65.6715 87.8892 65.4623 87.4852C66.335 87.175 66.9985 86.4034 67.0924 85.4803C67.1355 84.9897 67.0346 84.5066 66.8038 84.0808C67.6767 83.6888 68.2765 82.7377 68.1742 81.6789C68.1093 80.994 67.727 80.3953 67.1788 80.0058ZM64.6328 86.1797C64.3515 86.1797 61.1304 86.1797 61.214 86.1797C60.8175 86.1797 60.4928 86.5044 60.4928 86.901C60.4928 87.2975 60.8175 87.6222 61.214 87.6222H63.3419C63.8796 87.6222 64.3268 88.0681 64.2794 88.6682C64.229 89.1007 63.7312 89.5046 63.2408 89.5046H54.0737L52.5879 88.7689V80.4604L53.2082 79.8832C53.2658 79.8328 53.3091 79.7677 53.3452 79.6955L55.5379 75.6423C56.7676 73.3798 55.3534 70.6798 56.699 70.6798C57.9684 70.6798 58.9999 71.7187 58.9999 72.988C58.9783 73.7639 59.0652 74.1845 58.87 74.8344L58.2931 76.7242C58.1414 77.1785 58.4927 77.6546 58.9783 77.6546H65.1665C65.6499 77.6546 66.1547 78.0656 66.198 78.4984C66.2575 79.0487 65.8208 79.537 65.2603 79.537H63.1397C62.736 79.537 62.4185 79.8543 62.4185 80.2583C62.4185 80.6548 62.736 80.9795 63.1397 80.9795C63.2732 80.9795 65.8036 80.9795 65.7074 80.9795C66.2413 80.9795 66.6956 81.3472 66.739 81.8163C66.7988 82.3839 66.3553 82.8619 65.8013 82.8619C65.685 82.8619 62.4984 82.8619 62.6351 82.8619C62.2382 82.8619 61.9138 83.1792 61.9138 83.5831C61.9138 83.9801 62.2382 84.3044 62.6351 84.3044H64.7194C65.2712 84.3044 65.7036 84.7497 65.6571 85.343C65.6065 85.8121 65.1595 86.1797 64.6328 86.1797ZM50.0057 89.4831C49.5947 89.4831 49.263 89.1514 49.263 88.74C49.263 88.3365 49.5947 88.0047 50.0057 88.0047H50.0202C50.4169 88.0117 50.7414 88.3435 50.7414 88.74C50.7414 89.1552 50.3972 89.4831 50.0057 89.4831Z" fill="white"/>
<path d="M73.3167 61.7437L72.9778 59.7384C72.9705 59.7025 72.985 59.6665 73.0066 59.6377L74.4636 58.224C75.3783 57.3245 74.8812 55.7503 73.5979 55.5623L71.593 55.2739C71.5497 55.2668 71.5208 55.2379 71.4992 55.2091L70.6048 53.3915C70.0306 52.2273 68.3799 52.2285 67.8064 53.3915L66.9121 55.2091C66.8904 55.2379 66.8615 55.2668 66.8182 55.2739L64.8131 55.5623C63.5277 55.7506 63.0343 57.3258 63.9476 58.224L65.4046 59.6377C65.4263 59.6665 65.4407 59.7025 65.4335 59.7458L65.0945 61.7437C64.8845 62.9576 66.1425 63.9972 67.3592 63.388L69.1479 62.4431C69.184 62.4216 69.2273 62.4216 69.2634 62.4431L71.0521 63.388C72.2268 63.9918 73.5315 62.9874 73.3167 61.7437ZM66.5154 61.9888L66.8543 59.9839C66.9408 59.4788 66.7749 58.9668 66.4072 58.6061L64.9573 57.1925C64.885 57.1202 64.9336 56.9907 65.0223 56.9907L67.0274 56.6949C67.5395 56.6227 67.9795 56.3054 68.203 55.8437L69.0975 54.0261C69.1868 53.9369 69.2245 53.9369 69.3137 54.0261L70.2083 55.8437C70.4389 56.3054 70.8718 56.6227 71.3838 56.6949L73.3889 56.9907C73.4774 56.9907 73.526 57.1195 73.4539 57.1925L72.004 58.6061C71.6363 58.9668 71.4705 59.4788 71.5569 59.9839L71.8959 61.9888C71.9297 62.0565 71.8173 62.156 71.73 62.1113L69.9341 61.1668C69.4796 60.9287 68.9316 60.9287 68.4771 61.1668L66.6812 62.1113C66.5939 62.156 66.4815 62.0565 66.5154 61.9888Z" fill="white"/>
<path d="M53.4027 52.1567C53.6003 52.3494 53.6905 52.6269 53.6438 52.8988L53.301 54.8977C53.1835 55.5827 53.9027 56.1053 54.5177 55.7817L56.3128 54.8382C56.5572 54.7096 56.8491 54.7096 57.0934 54.8382L58.8884 55.7817C59.5036 56.1053 60.2226 55.5827 60.1052 54.8977L59.7623 52.8988C59.7157 52.6269 59.8058 52.3494 60.0036 52.1567L61.4557 50.741C61.9535 50.2557 61.6789 49.4105 60.9911 49.3104L58.984 49.0188C58.7109 48.9794 58.4748 48.8079 58.3526 48.5603L57.455 46.7417C57.1474 46.1183 56.2587 46.1183 55.9511 46.7417L55.0536 48.5603C54.9314 48.8079 54.6952 48.9794 54.4221 49.0188L52.4152 49.3104C51.7274 49.4105 51.4527 50.2557 51.9504 50.741L53.4027 52.1567Z" fill="white"/>
<path d="M78.4077 52.1567C78.6055 52.3494 78.6956 52.6269 78.649 52.8988L78.3061 54.8977C78.1887 55.5827 78.9077 56.1053 79.5229 55.7817L81.3179 54.8382C81.5623 54.7096 81.8541 54.7096 82.0984 54.8382L83.8934 55.7817C84.5086 56.1053 85.2278 55.5827 85.1102 54.8977L84.7675 52.8988C84.7207 52.6269 84.811 52.3494 85.0086 52.1567L86.4607 50.741C86.9585 50.2557 86.6839 49.4105 85.9961 49.3104L83.9892 49.0188C83.7159 48.9794 83.4799 48.8079 83.3577 48.5603L82.4602 46.7417C82.1526 46.1183 81.2637 46.1183 80.9563 46.7417L80.0586 48.5603C79.9365 48.8079 79.7004 48.9794 79.4273 49.0188L77.4202 49.3104C76.7324 49.4105 76.4579 50.2557 76.9555 50.741L78.4077 52.1567Z" fill="white"/>
<path d="M56.3904 64.18V66.2839C56.3904 66.6822 56.7133 67.0051 57.1116 67.0051C57.5099 67.0051 57.8329 66.6822 57.8329 66.2839V64.18C57.8329 63.782 57.5099 63.4587 57.1116 63.4587C56.7133 63.4587 56.3904 63.782 56.3904 64.18Z" fill="white"/>
<path d="M52.2014 67.3652C52.4333 67.6921 52.8845 67.7658 53.2072 67.5363C53.5319 67.306 53.6087 66.8559 53.3784 66.5312L52.1616 64.8151C51.931 64.4907 51.4819 64.4132 51.1558 64.6439C50.8311 64.8742 50.7543 65.3247 50.9847 65.6494L52.2014 67.3652Z" fill="white"/>
<path d="M61.0158 67.5363C61.3394 67.7663 61.7905 67.6912 62.0213 67.3655L63.2384 65.6493C63.4691 65.3246 63.3923 64.8745 63.0676 64.6439C62.7419 64.4132 62.2921 64.49 62.0622 64.8147L60.845 66.5308C60.6144 66.8559 60.6911 67.306 61.0158 67.5363Z" fill="white"/>
<path d="M81.1763 63.4587C80.778 63.4587 80.4551 63.782 80.4551 64.18V66.2839C80.4551 66.6822 80.778 67.0051 81.1763 67.0051C81.5746 67.0051 81.8976 66.6822 81.8976 66.2839V64.18C81.8976 63.782 81.5746 63.4587 81.1763 63.4587Z" fill="white"/>
<path d="M75.0496 65.6494L76.2664 67.3652C76.4982 67.6921 76.9494 67.7658 77.2722 67.5363C77.5969 67.306 77.6737 66.8559 77.4433 66.5312L76.2266 64.8151C75.9959 64.4907 75.5465 64.4132 75.2208 64.6439C74.8961 64.8742 74.8193 65.3247 75.0496 65.6494Z" fill="white"/>
<path d="M86.1265 64.8151L84.9097 66.5312C84.6794 66.8559 84.7562 67.306 85.0809 67.5363C85.4037 67.7658 85.8548 67.6921 86.0867 67.3652L87.3034 65.6494C87.5338 65.3247 87.457 64.8742 87.1323 64.6439C86.8069 64.4132 86.3572 64.4907 86.1265 64.8151Z" fill="white"/>
</svg>
