<svg width="45" height="50" viewBox="0 0 45 50" fill="none" xmlns="http://www.w3.org/2000/svg">
<path d="M34.7142 19.2375C36.8009 19.2375 38.4925 17.546 38.4925 15.4593C38.4925 13.3727 36.8009 11.6811 34.7142 11.6811C32.6276 11.6811 30.936 13.3727 30.936 15.4593C30.936 17.546 32.6276 19.2375 34.7142 19.2375Z" fill="#404C8C"/>
<path d="M14.0974 48.7974L15.5583 37.8479L15.085 34.3012L15.2291 34.1708L12.5067 31.6879L12.4837 31.6651C10.7013 29.8799 10.4581 27.129 11.7544 25.082L11.6809 24.9736L12.48 24.1633L14.6097 22.0336C14.7602 21.8829 14.9141 21.776 15.0696 21.6478C13.8891 21.0035 12.5562 20.6838 11.1876 20.6838H9.00733C6.85702 20.6838 4.79373 21.4198 3.27383 22.9396L1.14411 24.9633H1.14849C-0.382829 26.5935 -0.382829 29.0683 1.14849 30.6023L5.11011 34.2595L3.15227 48.9503C3.11325 49.2438 3.3425 49.5189 3.63829 49.5189H6.63011C6.87547 49.5189 7.08169 49.3484 7.11613 49.1054L8.73701 37.3477C8.76432 37.1483 8.83116 36.9651 8.92745 36.8001C9.43853 35.9286 10.7567 35.9302 11.2655 36.8014C11.3643 36.9664 11.4307 37.1528 11.458 37.3524L13.0791 49.1052C13.1135 49.3484 13.3197 49.5189 13.5651 49.5189H14.147C14.0832 49.3152 14.065 49.0425 14.0974 48.7974ZM5.77739 29.7692L4.52566 28.5153C4.19095 28.1806 4.19095 27.6394 4.52566 27.3047L6.10955 25.7208C6.19219 25.638 6.33208 25.7069 6.31609 25.8237L5.77739 29.7692Z" fill="#404C8C"/>
<path d="M10.0971 19.2376C12.1837 19.2376 13.8753 17.546 13.8753 15.4594C13.8753 13.3727 12.1837 11.6812 10.0971 11.6812C8.01041 11.6812 6.31885 13.3727 6.31885 15.4594C6.31885 17.546 8.01041 19.2376 10.0971 19.2376Z" fill="#404C8C"/>
<path d="M17.8266 5.34662L18.3764 5.46797C18.4754 5.48968 18.5501 5.56691 18.572 5.66554C18.6569 6.04906 18.7967 6.41158 18.9845 6.74395C19.0319 6.8275 19.0287 6.93021 18.977 7.01142L18.6354 7.5438C18.5696 7.6465 18.584 7.781 18.6704 7.8672L19.2061 8.40355C19.2927 8.48975 19.4269 8.50422 19.5296 8.4386L20.0135 8.12875C20.0989 8.07404 20.2084 8.07465 20.2937 8.12957C20.6145 8.33477 20.9669 8.49515 21.3421 8.60101C21.434 8.6271 21.5043 8.70128 21.5248 8.79461L21.6607 9.44569C21.687 9.56429 21.7922 9.67963 21.9142 9.67963H22.6724C22.7943 9.67963 22.8998 9.56429 22.9257 9.44569L23.048 8.87378C23.0697 8.77443 23.1476 8.68976 23.2472 8.66826C23.6319 8.58543 23.9957 8.44288 24.3294 8.25673C24.413 8.21016 24.5151 8.21118 24.5954 8.26274L25.123 8.59959C25.2259 8.66541 25.3604 8.65053 25.4466 8.56413L25.9828 8.02788C26.069 7.94168 26.0835 7.80708 26.018 7.70407L25.7176 7.23517C25.6627 7.14917 25.6637 7.03944 25.7192 6.95385C25.9307 6.62831 26.0953 6.26924 26.2036 5.88634C26.2297 5.79464 26.3039 5.72453 26.3974 5.70426L26.9993 5.57312C27.1183 5.54724 27.2078 5.44158 27.2078 5.31982V4.56165C27.2078 4.43989 27.1183 4.33444 26.9993 4.30815L26.4672 4.19189C26.3673 4.16998 26.289 4.09183 26.2679 3.99208C26.1841 3.59685 26.0409 3.22372 25.8483 2.88198C25.8013 2.79843 25.8037 2.69593 25.8552 2.61513L26.1782 2.11067C26.2439 2.00817 26.2293 1.87347 26.1429 1.78747L25.6067 1.25112C25.5205 1.16492 25.3862 1.15025 25.2835 1.21607L24.8324 1.50483C24.7467 1.55975 24.637 1.55893 24.5514 1.5034C24.2199 1.28892 23.8541 1.12294 23.4638 1.01524C23.3713 0.989564 23.3006 0.915184 23.2797 0.82124L23.1524 0.221816C23.1261 0.102808 23.0206 0 22.8989 0H22.1407C22.0187 0 21.9133 0.102808 21.8874 0.221816L21.7717 0.757762C21.75 0.856902 21.6724 0.938007 21.5732 0.959608C21.1794 1.0454 20.8071 1.19233 20.4672 1.38653C20.3835 1.43411 20.2802 1.43289 20.1992 1.38093L19.6899 1.05508C19.587 0.989564 19.4525 1.00424 19.3663 1.09064L18.8302 1.62679C18.7438 1.71299 18.7293 1.84759 18.7951 1.95019L19.0934 2.41614C19.148 2.50152 19.1475 2.61044 19.0932 2.69583C18.8845 3.02239 18.7229 3.38176 18.6176 3.76446C18.5921 3.85698 18.5174 3.92799 18.4236 3.94878L17.8262 4.08154C17.707 4.10742 17.6299 4.21288 17.6299 4.33484V5.09301C17.6303 5.21488 17.7074 5.32033 17.8266 5.34662ZM22.4067 2.57784C23.6491 2.57784 24.6561 3.58503 24.6561 4.82718C24.6561 6.06954 23.6491 7.07652 22.4067 7.07652C21.1646 7.07652 20.1576 6.06954 20.1576 4.82718C20.1576 3.58503 21.1646 2.57784 22.4067 2.57784Z" fill="#404C8C"/>
<path d="M10.0559 9.58511C10.0852 9.58929 10.114 9.59112 10.1427 9.59112C10.4526 9.59112 10.723 9.36228 10.7664 9.04662C11.0478 7.00045 12.8199 5.45772 14.8888 5.45772C15.2369 5.45772 15.5193 5.17538 15.5193 4.82722C15.5193 4.47906 15.237 4.19672 14.8888 4.19672C12.1933 4.19672 9.88402 6.20784 9.51721 8.87453C9.46963 9.21953 9.71101 9.53773 10.0559 9.58511Z" fill="#404C8C"/>
<path d="M29.6553 5.45768C31.7288 5.45768 33.5015 7.00458 33.7787 9.05554C33.8215 9.37212 34.0921 9.60158 34.4026 9.60158C34.4308 9.60158 34.4594 9.59974 34.488 9.59577C34.8331 9.549 35.0751 9.23161 35.0285 8.88651C34.6669 6.2131 32.357 4.19678 29.6554 4.19678C29.3071 4.19678 29.0249 4.47912 29.0249 4.82728C29.0249 5.17544 29.307 5.45768 29.6553 5.45768Z" fill="#404C8C"/>
<path d="M28.5606 43.0547L27.3939 34.3063L28.5631 33.2404L31.3553 30.6933C32.8868 29.1597 32.8868 26.6744 31.3553 25.143L31.3599 25.1361L29.2302 23.0063C29.017 22.7931 28.7923 22.6175 28.5585 22.4367C27.1279 21.2883 25.3444 20.684 23.4966 20.684H21.3161C19.4685 20.684 17.6848 21.2883 16.2542 22.4345C16.0205 22.6176 15.7957 22.8063 15.5825 23.0195L13.4528 25.1426L13.4576 25.1464C11.9263 26.6777 11.9263 29.1613 13.4576 30.695L16.2498 33.241L17.4188 34.3066L16.252 43.0549L15.4614 48.9856C15.4246 49.2628 15.6263 49.5011 15.8967 49.5287C15.9128 49.5309 15.9312 49.519 15.9471 49.519H18.9389C19.184 49.519 19.3905 49.3494 19.4247 49.1066L21.0458 37.3495C21.0733 37.1501 21.1397 36.965 21.236 36.7999C21.7473 35.9311 23.0655 35.9323 23.5743 36.8013C23.6728 36.9662 23.7395 37.155 23.767 37.3548L25.3879 49.1062C25.4221 49.3492 25.6284 49.519 25.8739 49.519H28.8657C28.8814 49.519 28.8999 49.5307 28.916 49.5285C29.1865 49.5007 29.3885 49.2569 29.3516 48.9795L28.5606 43.0547ZM18.0861 29.7716L16.8343 28.5174C16.4996 28.1827 16.4996 27.6418 16.8343 27.3071L18.4186 25.723C18.5013 25.6403 18.641 25.709 18.625 25.8236L18.0861 29.7716ZM26.1877 25.8237C26.172 25.7091 26.3117 25.6404 26.3942 25.7231L27.9783 27.3072C28.3131 27.6419 28.3131 28.1828 27.9783 28.5175L26.7266 29.7717L26.1877 25.8237Z" fill="#404C8C"/>
<path d="M43.6638 25.1407L43.6682 25.1338L41.5389 23.0314C40.0165 21.5116 37.9554 20.6838 35.805 20.6838H33.6249C32.255 20.6838 30.9208 21.004 29.7397 21.6503C29.8951 21.7818 30.05 21.9072 30.2026 22.0599L33.1361 24.9801L33.0581 25.0884C34.3544 27.136 34.1112 29.8831 32.3283 31.6685L32.2822 31.711L29.5828 34.1721L29.7275 34.3042L29.2544 37.8523L30.7149 48.7934C30.7475 49.0412 30.7293 49.3152 30.6646 49.5189H31.2475C31.4926 49.5189 31.6991 49.3484 31.7335 49.1054L33.3544 37.3477C33.3819 37.1483 33.4481 36.9651 33.5446 36.8001C34.0559 35.9286 35.3741 35.9302 35.8829 36.8014C35.9794 36.9664 36.0455 37.1528 36.0756 37.3524L37.6963 49.1052C37.7307 49.3484 37.9368 49.5189 38.1824 49.5189H41.174C41.4697 49.5189 41.6989 49.2661 41.66 48.9723L39.7022 34.2988L43.6638 30.6881C45.1951 29.1544 45.1951 26.6721 43.6638 25.1407ZM40.2866 28.5153L39.0351 29.7692L38.4964 25.8237C38.4803 25.707 38.6202 25.6381 38.7027 25.7208L40.2866 27.3047C40.6217 27.6395 40.6217 28.1806 40.2866 28.5153Z" fill="#404C8C"/>
<path d="M22.406 11.6155H22.4058C20.3192 11.6155 18.6279 13.2987 18.6279 15.3854C18.6279 17.472 20.3193 19.1555 22.4058 19.1555H22.406C24.4927 19.1555 26.1842 17.472 26.1842 15.3854C26.1842 13.2987 24.4926 11.6155 22.406 11.6155Z" fill="#404C8C"/>
</svg>
