<svg width="64" height="64" viewBox="0 0 64 64" fill="none" xmlns="http://www.w3.org/2000/svg">
<path fill-rule="evenodd" clip-rule="evenodd" d="M45.334 5.33301H48.0006C53.8917 5.33301 58.6673 10.1086 58.6673 15.9997V31.9997C58.6673 34.9452 56.2795 37.333 53.334 37.333H40.0006C37.0551 37.333 34.6673 39.7208 34.6673 42.6663V53.333C34.6673 56.2785 32.2795 58.6663 29.334 58.6663H16.0007C10.1096 58.6663 5.33398 53.8907 5.33398 47.9997V15.9997C5.33398 10.1086 10.1096 5.33301 16.0007 5.33301H18.6673H21.334H42.6673H45.334ZM21.334 20.2284V9.33301H42.6673V20.2284C42.6673 22.6042 39.7949 23.794 38.115 22.1141L33.8863 17.8853C32.8449 16.8439 31.1564 16.8439 30.115 17.8853L25.8863 22.1141C24.2064 23.794 21.334 22.6042 21.334 20.2284ZM43.7581 43.5952C42.977 42.8142 41.7107 42.8142 40.9296 43.5952C40.1486 44.3763 40.1486 45.6426 40.9296 46.4237L45.1722 50.6662L40.9295 54.9089C40.1485 55.69 40.1485 56.9563 40.9295 57.7374C41.7106 58.5184 42.9769 58.5184 43.758 57.7374L48.0007 53.4947L52.2433 57.7374C53.0244 58.5184 54.2907 58.5184 55.0718 57.7374C55.8528 56.9563 55.8528 55.69 55.0718 54.9089L50.8291 50.6663L55.0717 46.4237C55.8527 45.6426 55.8527 44.3763 55.0717 43.5952C54.2906 42.8142 53.0243 42.8142 52.2432 43.5952L48.0007 47.8378L43.7581 43.5952Z" fill="white"/>
</svg>