<svg width="22" height="22" viewBox="0 0 22 22" fill="none" xmlns="http://www.w3.org/2000/svg">
<g id="apps">
<path id="Rectangle 327" opacity="0.4" d="M0.539062 2.61523C0.539062 1.51066 1.43449 0.615234 2.53906 0.615234H7.4624C8.56697 0.615234 9.4624 1.51066 9.4624 2.61523V7.53857C9.4624 8.64314 8.56697 9.53857 7.4624 9.53857H2.53906C1.43449 9.53857 0.539062 8.64314 0.539062 7.53857V2.61523Z" fill="white"/>
<path id="Rectangle 330" opacity="0.4" d="M12.4629 14.5391C12.4629 13.4345 13.3583 12.5391 14.4629 12.5391H19.3862C20.4908 12.5391 21.3862 13.4345 21.3862 14.5391V19.4624C21.3862 20.567 20.4908 21.4624 19.3862 21.4624H14.4629C13.3583 21.4624 12.4629 20.567 12.4629 19.4624V14.5391Z" fill="white"/>
<circle id="Ellipse 1069" cx="16.9246" cy="5.0769" r="4.46166" fill="white"/>
<circle id="Ellipse 1071" cx="5.00073" cy="17.0007" r="4.46166" fill="white"/>
</g>
</svg>
