<svg width="24" height="24" viewBox="0 0 24 24" fill="none" xmlns="http://www.w3.org/2000/svg">
<path opacity="0.4" d="M4.56273 9.50386C4.81294 7.50215 6.51455 6 8.53184 6H15.4696C17.4869 6 19.1885 7.50215 19.4387 9.50386L20.4387 17.5039C20.7371 19.8913 18.8756 22 16.4696 22H7.53184C5.12585 22 3.2643 19.8913 3.56273 17.5039L4.56273 9.50386Z" fill="white"/>
<path fill-rule="evenodd" clip-rule="evenodd" d="M8.25 5C8.25 2.92893 9.92893 1.25 12 1.25C14.0711 1.25 15.75 2.92893 15.75 5V7C15.75 7.41421 15.4142 7.75 15 7.75C14.5858 7.75 14.25 7.41421 14.25 7V5C14.25 3.75736 13.2426 2.75 12 2.75C10.7574 2.75 9.75 3.75736 9.75 5V7C9.75 7.41421 9.41421 7.75 9 7.75C8.58579 7.75 8.25 7.41421 8.25 7V5Z" fill="white"/>
<path fill-rule="evenodd" clip-rule="evenodd" d="M15.4939 11.4356C15.8056 11.7083 15.8372 12.1822 15.5645 12.4939L12.6946 15.7738C12.0779 16.4786 11.0156 16.5729 10.2843 15.9879L8.53151 14.5857C8.20806 14.3269 8.15562 13.8549 8.41438 13.5315C8.67313 13.208 9.1451 13.1556 9.46855 13.4144L11.2214 14.8166C11.3258 14.9002 11.4776 14.8867 11.5657 14.786L14.4356 11.5061C14.7084 11.1944 15.1822 11.1628 15.4939 11.4356Z" fill="white"/>
</svg>
