<svg width="24" height="24" viewBox="0 0 24 24" fill="none" xmlns="http://www.w3.org/2000/svg">
<path opacity="0.4" d="M8 5V13C8 14.1046 8.89543 15 10 15H20C21.1046 15 22 14.1046 22 13V5C22 3.89543 21.1046 3 20 3H10C8.89543 3 8 3.89543 8 5Z" fill="white"/>
<path fill-rule="evenodd" clip-rule="evenodd" d="M5.5 13.5C5.5 12.1193 6.61929 11 8 11C9.38071 11 10.5 12.1193 10.5 13.5C10.5 14.8807 9.38071 16 8 16C6.61929 16 5.5 14.8807 5.5 13.5Z" fill="white"/>
<path fill-rule="evenodd" clip-rule="evenodd" d="M14.3126 14.3184C14.6892 14.491 14.8545 14.9361 14.6819 15.3127C14.0769 16.6327 11.9325 19.0229 8.00014 19.0229C4.65974 19.0229 3.01891 20.7041 2.6573 21.3616C2.45768 21.7246 2.00164 21.857 1.6387 21.6573C1.27576 21.4577 1.14336 21.0017 1.34298 20.6387C1.98137 19.478 4.14054 17.5229 8.00014 17.5229C11.2678 17.5229 12.9234 15.5494 13.3183 14.6877C13.4909 14.3111 13.9361 14.1458 14.3126 14.3184Z" fill="white"/>
<path fill-rule="evenodd" clip-rule="evenodd" d="M11.25 7C11.25 6.58579 11.5858 6.25 12 6.25L18 6.25C18.4142 6.25 18.75 6.58579 18.75 7C18.75 7.41421 18.4142 7.75 18 7.75L12 7.75C11.5858 7.75 11.25 7.41421 11.25 7Z" fill="white"/>
<path fill-rule="evenodd" clip-rule="evenodd" d="M14.25 11C14.25 10.5858 14.5858 10.25 15 10.25L18 10.25C18.4142 10.25 18.75 10.5858 18.75 11C18.75 11.4142 18.4142 11.75 18 11.75H15C14.5858 11.75 14.25 11.4142 14.25 11Z" fill="white"/>
</svg>
