<svg width="54" height="48" viewBox="0 0 54 48" fill="none" xmlns="http://www.w3.org/2000/svg">
<path opacity="0.4" d="M5.66732 16H0.333984V40L11.8295 45.7478C14.7918 47.2289 18.0582 48 21.3701 48H43.0007C45.9462 48 48.334 45.6122 48.334 42.6667C48.334 39.7211 45.9462 37.3333 43.0007 37.3333H38.7777C36.2938 37.3333 33.844 36.755 31.6223 35.6442L23.7793 31.7227C24.2921 31.2504 24.7158 30.6647 25.0082 29.9825C26.111 27.4092 24.9316 24.4281 22.3666 23.306L5.66732 16Z" fill="white"/>
<path fill-rule="evenodd" clip-rule="evenodd" d="M31.668 0C30.5634 0 29.668 0.89543 29.668 2V22C29.668 23.1046 30.5634 24 31.668 24H51.668C52.7725 24 53.668 23.1046 53.668 22V2C53.668 0.895431 52.7725 0 51.668 0H31.668ZM44.3346 10C45.4392 10 46.3346 9.10457 46.3346 8C46.3346 6.89543 45.4392 6 44.3346 6H39.0013C37.8967 6 37.0013 6.89543 37.0013 8C37.0013 9.10457 37.8967 10 39.0013 10H44.3346Z" fill="white"/>
</svg>
