<svg width="18" height="18" viewBox="0 0 18 18" fill="none" xmlns="http://www.w3.org/2000/svg">
<path fill-rule="evenodd" clip-rule="evenodd" d="M3.16808 2.82324C2.59956 2.82324 2.13867 3.28412 2.13867 3.85265V4.81834H4.1975V3.85265C4.1975 3.28413 3.73661 2.82324 3.16808 2.82324ZM2.13867 6.31834V12.4703C2.13867 13.3358 2.41938 14.1779 2.93867 14.8703L3.16808 15.1762L3.3975 14.8703C3.91678 14.1779 4.1975 13.3358 4.1975 12.4703V6.31834H2.13867ZM11.8642 2.82324H10.2563C8.04718 2.82324 6.25632 4.61411 6.25632 6.82324V11.8821C6.25632 13.7014 7.73115 15.1762 9.55044 15.1762C10.0053 15.1762 10.374 14.8075 10.374 14.3527V12.0585C10.374 11.5063 10.8217 11.0585 11.374 11.0585H14.8642C15.4164 11.0585 15.8642 10.6108 15.8642 10.0585V6.82324C15.8642 4.6141 14.0733 2.82324 11.8642 2.82324ZM8.25142 5.56834C8.25142 5.15413 8.5872 4.81834 9.00142 4.81834H13.1191C13.5333 4.81834 13.8691 5.15413 13.8691 5.56834C13.8691 5.98255 13.5333 6.31834 13.1191 6.31834H9.00142C8.5872 6.31834 8.25142 5.98255 8.25142 5.56834ZM9.00142 7.56344C8.5872 7.56344 8.25142 7.89923 8.25142 8.31344C8.25142 8.72765 8.5872 9.06344 9.00142 9.06344H13.1191C13.5333 9.06344 13.8691 8.72765 13.8691 8.31344C13.8691 7.89923 13.5333 7.56344 13.1191 7.56344H9.00142ZM16.2515 12.77C16.4387 12.5561 16.417 12.2309 16.2031 12.0437C15.9892 11.8565 15.664 11.8782 15.4768 12.0922L13.5073 14.3431C13.4468 14.4122 13.3427 14.4214 13.271 14.3641L12.0681 13.4017C11.8461 13.2241 11.5222 13.2601 11.3446 13.4821C11.167 13.7041 11.203 14.028 11.425 14.2056L12.6279 15.1679C13.1298 15.5694 13.8588 15.5046 14.282 15.0209L16.2515 12.77Z" fill="white"/>
</svg>
