<svg width="239" height="219" viewBox="0 0 239 219" fill="none" xmlns="http://www.w3.org/2000/svg">
<g clip-path="url(#clip0_2063_1354)">
<g opacity="0.42">
<path d="M210.46 179.894C210.46 179.894 244.719 130.613 236.974 76.3988C229.228 22.1849 180.681 28.6572 148.088 21.3797C115.5 14.1072 98.7201 -1.44435 60.2185 11.48C21.717 24.4044 6.82967 44.6214 2.39067 74.7481C-2.04834 104.88 0.171162 133.31 5.17385 160.005C10.1816 186.699 19.7541 205.955 47.9031 206.906C76.052 207.857 85.7604 199.271 101.649 206.483C117.533 213.7 180.193 220.142 210.465 179.889L210.46 179.894Z" fill="#40507F"/>
<path opacity="0.7" d="M210.46 179.894C210.46 179.894 244.719 130.613 236.974 76.3988C229.228 22.1849 180.681 28.6572 148.088 21.3797C115.5 14.1072 98.7201 -1.44435 60.2185 11.48C21.717 24.4044 6.82967 44.6214 2.39067 74.7481C-2.04834 104.88 0.171162 133.31 5.17385 160.005C10.1816 186.699 19.7541 205.955 47.9031 206.906C76.052 207.857 85.7604 199.271 101.649 206.483C117.533 213.7 180.193 220.142 210.465 179.889L210.46 179.894Z" fill="#40507F"/>
</g>
<path d="M88.925 14.233C88.925 14.233 89.7756 21.2136 91.3408 20.6197C92.901 20.0308 97.2948 14.4746 96.8619 13.3422C96.4341 12.2048 88.925 14.233 88.925 14.233Z" fill="#F9A24B"/>
<path d="M117.658 32.7238C117.658 32.7238 127.834 37.7265 134.85 60.1028C142.193 83.5158 139.496 99.0675 139.496 99.0675L128.554 101.649L115.771 74.7032L117.663 32.7238H117.658Z" fill="#F48462"/>
<path d="M117.436 68.2612L137.442 67.1842C137.442 67.1842 131.539 38.4766 117.658 32.724C103.777 26.9714 117.436 68.2612 117.436 68.2612Z" fill="#92B4EA"/>
<path d="M139.496 95.6C139.496 95.6 148.49 100.94 149.3 102.455C150.111 103.97 150.513 110.392 148.399 110.029C146.291 109.667 145.365 105.943 145.365 105.943C145.365 105.943 136.356 105.943 135.138 102.696C133.92 99.4552 139.496 95.595 139.496 95.595V95.6Z" fill="#F48462"/>
<path d="M127.931 122.062C126.486 116.058 132.606 109.415 141.57 107.26C150.533 105.106 159.004 108.242 160.448 114.246C161.892 120.25 155.772 126.894 146.809 129.048C137.845 131.202 129.375 128.066 127.931 122.062ZM130.09 121.544C131.247 126.36 138.515 128.756 146.291 126.889C154.066 125.021 159.451 119.581 158.294 114.764C157.136 109.948 149.869 107.552 142.093 109.42C134.317 111.287 128.932 116.727 130.09 121.544Z" fill="#A37B90"/>
<path d="M130.389 147.631L165.295 139.245C166.411 138.976 167.099 137.854 166.83 136.738L161.294 113.694C161.026 112.578 159.903 111.89 158.787 112.159L123.881 120.545C122.765 120.813 122.078 121.936 122.346 123.052L127.882 146.096C128.151 147.212 129.273 147.9 130.389 147.631Z" fill="#8E647C"/>
<path d="M132.686 147.079L167.592 138.693C168.708 138.424 169.396 137.302 169.128 136.186L163.591 113.142C163.323 112.026 162.2 111.338 161.084 111.607L126.178 119.993C125.062 120.261 124.375 121.384 124.643 122.5L130.18 145.544C130.448 146.66 131.57 147.348 132.686 147.079Z" fill="#A37B90"/>
<path d="M122.979 127.539L164.802 117.289C165.266 117.176 165.55 116.707 165.437 116.242L164.214 111.252C164.1 110.787 163.631 110.503 163.167 110.617L121.343 120.866C120.879 120.98 120.595 121.449 120.709 121.913L121.932 126.904C122.045 127.369 122.514 127.653 122.979 127.539Z" fill="#8E647C"/>
<path d="M128.902 126.31C128.771 126.31 128.651 126.219 128.62 126.088C128.58 125.932 128.681 125.776 128.837 125.736L164.6 117.094C164.751 117.059 164.912 117.155 164.953 117.311C164.993 117.467 164.892 117.623 164.736 117.663L128.973 126.305C128.973 126.305 128.927 126.315 128.902 126.315V126.31Z" fill="white"/>
<path d="M157.117 127.528C156.603 127.528 156.14 127.181 156.009 126.663L154.348 119.873C154.328 119.798 154.343 119.717 154.384 119.652C154.424 119.586 154.489 119.536 154.565 119.521L157.816 118.726C157.967 118.686 158.128 118.781 158.168 118.937L159.829 125.721C159.9 126.018 159.854 126.32 159.698 126.582C159.542 126.844 159.291 127.025 158.999 127.095L157.393 127.488C157.303 127.508 157.212 127.523 157.122 127.523L157.117 127.528ZM154.983 120.019L156.578 126.522C156.648 126.819 156.955 127 157.252 126.929L158.858 126.537C159.004 126.502 159.125 126.411 159.2 126.285C159.276 126.159 159.301 126.008 159.266 125.862L157.67 119.36L154.988 120.019H154.983Z" fill="white"/>
<path d="M137.407 132.361C136.894 132.361 136.431 132.013 136.3 131.495L134.639 124.711C134.599 124.554 134.695 124.398 134.851 124.358L138.102 123.563C138.177 123.543 138.258 123.558 138.323 123.598C138.389 123.639 138.439 123.704 138.454 123.779L140.115 130.569C140.185 130.866 140.14 131.168 139.984 131.429C139.828 131.691 139.576 131.872 139.28 131.943L137.674 132.335C137.583 132.356 137.493 132.371 137.402 132.371L137.407 132.361ZM135.273 124.851L136.869 131.354C136.944 131.651 137.241 131.832 137.543 131.762L139.149 131.369C139.295 131.334 139.415 131.243 139.491 131.117C139.566 130.992 139.592 130.841 139.556 130.695L137.961 124.187L135.278 124.846L135.273 124.851Z" fill="white"/>
<path d="M141.258 101.489C141.967 101.705 142.597 102.128 143.13 102.646C144.932 104.403 149.114 110.211 147.685 112.46C146.316 114.614 143.895 111.454 143.895 111.454C143.895 111.454 145.339 114.388 143.004 114.685C141.051 114.937 140.035 113.084 140.035 113.084C140.035 113.084 141.243 116.28 138.253 115.616C135.259 114.952 131.469 108.6 131.056 106.069C130.643 103.537 134.287 104.674 134.287 104.674C134.287 104.674 134.202 101.886 135.696 101.594C137.282 101.287 138.298 103.29 138.298 103.29C138.298 103.29 138.696 100.714 141.258 101.484V101.489Z" fill="#F48462"/>
<path d="M130.673 100.764C130.673 100.764 132.712 105.948 135.48 107.458C138.248 108.972 140.543 102.475 140.543 102.475L135.47 98.7959L130.678 100.764H130.673Z" fill="#F48462"/>
<path d="M142.173 104.07C136.637 104.07 135.948 98.9563 135.943 98.906C135.923 98.75 136.033 98.609 136.189 98.5889C136.345 98.5738 136.486 98.6795 136.506 98.8355C136.532 99.0268 137.151 103.501 142.178 103.501C142.334 103.501 142.46 103.627 142.46 103.783C142.46 103.939 142.334 104.065 142.178 104.065L142.173 104.07Z" fill="black"/>
<path d="M127.135 188.124V198.537L144.252 197.802V188.124H127.135Z" fill="#F48462"/>
<path d="M84.7931 187.026V196.77L101.769 196.081V187.026H84.7931Z" fill="#F48462"/>
<path d="M121.664 79.6556C121.664 79.6556 134.895 100.613 142.736 134.167C149.888 164.772 150.814 188.97 150.814 188.97L120.491 190.082C120.491 190.082 117.049 165.129 116.133 155.255C115.217 145.38 112.167 132.164 112.167 132.164C112.167 132.164 108.206 187.963 107.194 188.93C106.183 189.896 77.5559 189.876 77.2287 188.572C76.5946 186.026 83.3134 95.5595 84.7981 89.4597C90.3645 66.5701 121.664 79.6556 121.664 79.6556Z" fill="#40507F"/>
<path d="M105.981 212.871C105.981 214.592 105.403 216.555 104.22 217.053C103.037 217.546 93.4646 218.578 85.09 217.848C77.0727 217.148 77.1783 217.435 76.5895 216.706C76.3026 216.333 75.0897 213.736 75.739 212.07C75.7792 211.99 75.8094 211.889 75.8497 211.809C76.1818 210.968 76.5241 210.158 76.7707 209.579C77.0173 209.03 77.3193 208.507 77.6766 207.999C78.5422 206.801 80.2635 204.325 80.7013 203.046C81.2801 201.34 82.1609 197.656 82.7497 195.925C83.1976 194.636 88.4569 192.603 90.9885 191.692C91.8642 191.375 92.8104 191.3 93.7263 191.466C96.283 191.934 101.568 192.981 102.458 193.725C103.626 194.702 104.22 202.815 104.22 204.038V205.261C104.22 206.403 105.005 208.658 105.513 210.53C105.649 210.998 105.76 211.436 105.845 211.839C105.926 212.236 105.981 212.584 105.981 212.871Z" fill="#5C69A5"/>
<path d="M112.167 132.456C111.986 132.44 111.865 132.305 111.875 132.144C111.885 132.023 112.851 119.758 113.128 114.322C113.41 108.892 113.42 106.295 113.42 106.27C113.42 106.154 113.485 106.053 113.591 106.003L123.617 101.539C123.763 101.473 123.934 101.539 123.999 101.685C124.065 101.831 123.999 102.002 123.853 102.067L113.999 106.456C113.989 107.145 113.948 109.722 113.707 114.347C113.425 119.788 112.459 132.058 112.454 132.184C112.444 132.335 112.313 132.451 112.167 132.451V132.456Z" fill="#68B6D8"/>
<path d="M99.0662 32.0343C99.0662 32.0343 90.1379 32.0041 85.3214 36.8004C80.5049 41.6017 86.5192 86.3943 86.5192 86.3943C86.5192 86.3943 101.205 90.5615 110.315 88.5685C119.429 86.5704 123.169 83.9735 123.169 83.9735C123.169 83.9735 122.127 38.9343 119.621 34.3141C117.114 29.694 99.0662 32.0343 99.0662 32.0343Z" fill="#92B4EA"/>
<path d="M96.6757 28.6725L96.726 34.576C96.726 34.576 98.9807 36.4382 101.829 36.4382C105.674 36.4382 106.983 33.4638 106.983 33.4638L106.837 26.5436L96.6757 28.6725Z" fill="#F48462"/>
<path d="M96.6757 28.5213C96.6757 28.5213 99.4286 34.1883 103.787 33.4635C107.295 32.8797 106.837 27.0315 106.837 27.0315L96.6807 28.5213H96.6757Z" fill="black"/>
<path d="M108.588 13.1157C108.588 13.1157 110.702 23.1563 107.506 28.0332C104.311 32.9101 100.033 31.5663 98.1 30.1319C95.493 28.1943 94.9192 25.4614 94.9192 25.4614C94.9192 25.4614 91.3912 26.2264 90.1632 23.3576C88.8747 20.348 91.0338 17.8667 92.8004 17.6906C94.5669 17.5144 94.7783 17.8365 94.7783 17.8365L94.2045 14.6104C94.2045 14.6104 104.758 2.47108 108.583 13.1157H108.588Z" fill="#F48462"/>
<path d="M106.963 17.8668C106.963 17.8668 112.288 15.4863 112.776 19.6333C113.34 24.4347 107.592 24.5756 107.592 24.5756L106.963 17.8668Z" fill="#F48462"/>
<path d="M109.701 22.1196C109.656 22.1196 109.605 22.1095 109.565 22.0844C109.429 22.0089 109.379 21.8327 109.454 21.6968L111.191 18.6016C111.266 18.4657 111.437 18.4154 111.578 18.4909C111.714 18.5664 111.764 18.7425 111.689 18.8784L109.952 21.9736C109.902 22.0642 109.807 22.1196 109.706 22.1196H109.701Z" fill="black"/>
<path d="M94.28 22.4819C94.2146 22.4819 94.1542 22.4618 94.0988 22.4165L91.3307 20.1215C91.2099 20.0208 91.1948 19.8447 91.2955 19.7239C91.3962 19.6031 91.5723 19.588 91.6931 19.6887L94.4612 21.9837C94.582 22.0843 94.5971 22.2605 94.4964 22.3813C94.4411 22.4467 94.3605 22.4819 94.28 22.4819Z" fill="black"/>
<path d="M91.7636 22.955C91.6781 22.955 91.5975 22.9198 91.5371 22.8443C91.4415 22.7185 91.4617 22.5423 91.5875 22.4467L93.1779 21.2086C93.3037 21.113 93.4798 21.1331 93.5754 21.2589C93.6711 21.3847 93.6509 21.5609 93.5251 21.6565L91.9347 22.8946C91.8844 22.9349 91.824 22.955 91.7586 22.955H91.7636Z" fill="black"/>
<path d="M111.769 21.1633H110.239C110.083 21.1633 109.958 21.0374 109.958 20.8814C109.958 20.7254 110.083 20.5996 110.239 20.5996H111.769C111.925 20.5996 112.051 20.7254 112.051 20.8814C112.051 21.0374 111.925 21.1633 111.769 21.1633Z" fill="black"/>
<path d="M100.043 19.8748C99.9018 19.8748 99.776 19.7691 99.7609 19.6232L99.5797 17.8969C99.5646 17.7409 99.6754 17.5999 99.8314 17.5848C99.9874 17.5748 100.128 17.6805 100.143 17.8365L100.325 19.5628C100.34 19.7188 100.229 19.8597 100.073 19.8748C100.063 19.8748 100.053 19.8748 100.043 19.8748Z" fill="black"/>
<path d="M106.475 19.4673C106.334 19.4673 106.208 19.3616 106.193 19.2156L106.012 17.4893C105.997 17.3333 106.107 17.1924 106.263 17.1773C106.419 17.1672 106.56 17.2729 106.575 17.4289L106.756 19.1552C106.772 19.3112 106.661 19.4522 106.505 19.4673C106.495 19.4673 106.485 19.4673 106.475 19.4673Z" fill="black"/>
<path d="M103.838 23.8659C103.838 23.8659 103.807 23.8659 103.797 23.8659C103.641 23.8408 103.536 23.6998 103.561 23.5438C103.943 20.967 103.012 18.8783 103.002 18.8582C102.937 18.7173 103.002 18.5462 103.143 18.4807C103.284 18.4153 103.45 18.4807 103.52 18.6217C103.561 18.7123 104.532 20.8814 104.124 23.6294C104.104 23.7703 103.983 23.871 103.843 23.871L103.838 23.8659Z" fill="black"/>
<path d="M106.978 16.0499C106.933 16.0499 106.887 16.0399 106.847 16.0197C106.173 15.6674 105.146 15.9191 105.136 15.9241C104.985 15.9644 104.829 15.8738 104.794 15.7177C104.753 15.5668 104.849 15.4107 105 15.3755C105.05 15.3604 106.248 15.0635 107.114 15.5164C107.255 15.5869 107.305 15.758 107.234 15.8989C107.184 15.9946 107.083 16.0499 106.983 16.0499H106.978Z" fill="black"/>
<path d="M98.6336 16.8653C98.5632 16.8653 98.4927 16.8401 98.4374 16.7847C98.3266 16.674 98.3216 16.4979 98.4374 16.3821C99.1218 15.6825 100.35 15.5919 100.405 15.5869C100.561 15.5768 100.697 15.6926 100.707 15.8486C100.717 16.0046 100.601 16.1405 100.445 16.1506C100.435 16.1506 99.3785 16.2311 98.845 16.7747C98.7897 16.83 98.7142 16.8602 98.6437 16.8602L98.6336 16.8653Z" fill="black"/>
<path d="M96.3636 18.7375C96.3636 18.7375 98.9254 17.0012 98.7744 14.374C98.6184 11.7418 98.0446 11.0724 98.0446 11.0724C98.0446 11.0724 100.682 12.4766 103.963 11.4851C107.672 10.3678 109.011 6.79443 106.988 5.40031C104.733 3.85017 99.9621 4.50445 99.9621 4.50445C99.9621 4.50445 95.9358 3.27139 92.1864 7.83624C88.4369 12.3961 90.9181 18.6872 90.9181 18.6872C90.9181 18.6872 92.2015 16.5834 96.3687 18.7375H96.3636Z" fill="black"/>
<path d="M103.299 26.6641C101.86 26.6641 100.702 25.4814 100.642 25.421C100.531 25.3103 100.536 25.1291 100.647 25.0184C100.757 24.9077 100.939 24.9127 101.049 25.0234C101.064 25.0385 102.448 26.4427 103.873 26.0048C104.024 25.9595 104.18 26.0451 104.225 26.191C104.27 26.342 104.185 26.498 104.039 26.5433C103.787 26.6188 103.541 26.6541 103.299 26.6541V26.6641Z" fill="black"/>
<path d="M106.656 7.11145C106.656 7.11145 109.122 9.36617 109.701 12.1141C110.28 14.8621 109.701 17.1923 109.701 17.1923L109.147 17.1822C109.147 17.1822 107.819 10.5187 105.664 9.90469C103.51 9.29068 106.656 7.10641 106.656 7.10641V7.11145Z" fill="black"/>
<path d="M85.2159 101.936C85.1253 101.936 85.0347 101.89 84.9793 101.81C84.8887 101.679 84.9189 101.498 85.0498 101.407C90.2135 97.8088 91.5623 92.5645 91.5774 92.5091C91.6177 92.3531 91.7737 92.2625 91.9297 92.2978C92.0857 92.338 92.1814 92.494 92.1411 92.6501C92.0857 92.8715 90.7319 98.151 85.3819 101.885C85.3316 101.921 85.2712 101.936 85.2159 101.936Z" fill="#68B6D8"/>
<path d="M171.274 216.348C171.686 216.303 171.968 215.9 171.903 215.472C171.601 213.444 170.488 207.767 167.333 205.306C163.458 202.286 155.239 200.953 152.28 198.929C149.32 196.906 146.059 192.1 144.252 192.965C142.445 193.831 138.998 197.898 134.141 197.213C129.285 196.534 127.06 195.311 125.726 196.463C124.393 197.616 123.336 214.114 123.879 215.11C124.423 216.102 166.351 216.912 171.274 216.343V216.348Z" fill="#5C69A5"/>
<path d="M151.429 201.829C151.293 201.829 151.172 201.733 151.147 201.597C151.112 201.441 151.212 201.285 151.373 201.255C151.454 201.24 159.652 199.453 159.466 195.2C159.441 194.652 159.3 194.33 159.038 194.239C158.304 193.972 156.688 195.095 155.032 196.559C153.502 198.391 151.761 199.851 151.62 199.966C151.504 200.062 151.333 200.052 151.227 199.946C151.122 199.836 151.117 199.664 151.222 199.554C151.519 199.217 152.989 197.591 154.645 196.131C155.983 194.526 157.116 192.669 156.683 191.325C156.638 191.184 156.537 190.942 156.401 190.932C155.535 190.932 153.341 194.722 151.7 198.411C151.635 198.557 151.464 198.628 151.318 198.557C151.172 198.492 151.107 198.321 151.172 198.175C151.756 196.861 154.735 190.354 156.401 190.354C156.688 190.369 157.035 190.515 157.237 191.149C157.579 192.216 157.131 193.499 156.356 194.757C157.483 193.957 158.545 193.454 159.235 193.7C159.738 193.882 160.015 194.38 160.05 195.185C160.256 199.931 151.856 201.758 151.499 201.834C151.479 201.834 151.459 201.839 151.439 201.839L151.429 201.829Z" fill="#A37B90"/>
<path d="M94.2046 205.532C92.8508 205.532 91.7486 205.014 91.7285 205.004C91.5825 204.933 91.5221 204.762 91.5926 204.616C91.663 204.475 91.8341 204.41 91.9801 204.48C92.1361 204.556 95.8504 206.297 97.6773 202.704C98.0548 201.964 98.0649 201.586 97.9541 201.481C97.5314 201.083 95.2716 202.004 93.4245 203.086C93.2987 203.162 93.1326 203.126 93.0471 203.011C92.9565 202.895 92.9716 202.729 93.0773 202.628C94.1241 201.616 96.8268 198.637 96.7865 197.006C96.7815 196.704 96.6808 196.478 96.4795 196.302C96.3033 196.146 96.1121 196.095 95.8856 196.141C94.4613 196.443 92.4331 200.227 91.7687 201.657C91.7033 201.803 91.5271 201.868 91.3812 201.798C91.2352 201.732 91.1748 201.556 91.2403 201.415C91.4969 200.862 93.797 195.99 95.7648 195.572C96.1675 195.486 96.55 195.587 96.862 195.864C97.1841 196.146 97.3552 196.528 97.3653 196.991C97.4005 198.41 95.8655 200.429 94.713 201.742C96.0517 201.093 97.7327 200.474 98.3517 201.063C98.9053 201.581 98.3719 202.628 98.1957 202.975C97.1539 205.024 95.5534 205.537 94.2046 205.537V205.532Z" fill="#A37B90"/>
<path d="M143.895 111.735C143.804 111.735 143.718 111.694 143.663 111.614L138.409 104.21C138.318 104.085 138.348 103.903 138.474 103.813C138.6 103.722 138.776 103.752 138.872 103.878L144.126 111.282C144.217 111.407 144.187 111.584 144.061 111.679C144.01 111.714 143.955 111.73 143.895 111.73V111.735Z" fill="black"/>
<path d="M140.035 113.371C139.944 113.371 139.858 113.331 139.803 113.25L134.624 105.762C134.534 105.631 134.569 105.454 134.695 105.369C134.826 105.278 134.997 105.314 135.087 105.439L140.266 112.928C140.357 113.059 140.321 113.235 140.196 113.321C140.145 113.356 140.09 113.371 140.035 113.371Z" fill="black"/>
<path d="M124.623 84.8795C124.623 84.8795 122.55 61.6427 119.223 48.7233C115.771 35.3258 113.37 31.4908 113.37 31.4908H107.441C107.441 31.4908 110.733 39.7044 111.88 44.7826C113.028 49.8658 114.004 55.5982 114.004 55.5982L98.6386 55.9807L96.711 32.1853C96.711 32.1853 94.6979 32.4168 92.9011 32.8698L91.1044 33.3227C91.1044 33.3227 96.5802 63.369 85.8903 69.0259C75.2005 74.6829 83.8923 79.4389 83.8923 79.4389L85.0549 91.1001C85.0549 91.1001 122.016 93.9185 124.633 84.8744L124.623 84.8795Z" fill="#40507F"/>
<path d="M107.748 182.206H77.3293C76.9207 182.206 76.5895 182.537 76.5895 182.946V190.641C76.5895 191.05 76.9207 191.381 77.3293 191.381H107.748C108.157 191.381 108.488 191.05 108.488 190.641V182.946C108.488 182.537 108.157 182.206 107.748 182.206Z" fill="#F7B369"/>
<path d="M150.568 180.684L119.44 182.179C119.027 182.199 118.707 182.551 118.727 182.964L119.096 190.631C119.115 191.044 119.467 191.364 119.881 191.344L151.008 189.849C151.422 189.829 151.741 189.477 151.721 189.063L151.353 181.397C151.333 180.983 150.982 180.664 150.568 180.684Z" fill="#F7B369"/>
<path d="M87.7222 35.0088C87.7222 35.0088 71.2194 44.6015 72.7292 67.1842C73.9522 85.509 86.8515 85.6147 96.6706 85.8462C106.49 86.0727 120.033 82.7409 120.033 82.7409L118.705 71.5477C118.705 71.5477 99.1116 68.8551 89.7705 65.6542C80.8623 62.6042 87.7171 35.0088 87.7171 35.0088H87.7222Z" fill="#F48462"/>
<path d="M88.3009 15.4561C88.3009 15.4561 87.8228 14.7112 88.2606 14.0921L88.6985 13.4731C88.6985 13.4731 87.1534 2.5869 97.7274 0.74989C108.302 -1.09216 110.003 9.94502 110.003 9.94502C110.003 9.94502 115.655 10.9868 112.836 13.2013C110.018 15.4108 93.0318 16.0801 88.3059 15.4661L88.3009 15.4561Z" fill="#F7B369"/>
<path d="M95.7294 1.24313C95.7294 1.24313 97.0631 0.0603959 99.1014 1.0822e-06C101.643 -0.0704596 102.192 0.75997 102.192 0.75997C102.192 0.75997 103.661 3.75958 104.119 6.33643C104.577 8.91328 104.119 12.1142 104.119 12.1142C104.119 12.1142 103.968 12.2753 102.489 12.4514C101.487 12.5722 100.742 12.391 100.742 12.391C100.742 12.391 98.8447 3.66899 95.7294 1.24313Z" fill="#F9A24B"/>
<path d="M71.2899 70.8728C71.2899 70.8728 70.4393 55.8145 77.1834 44.9535C83.9275 34.0926 92.891 32.8747 92.891 32.8747L93.3541 66.6502L71.2899 70.8728Z" fill="#92B4EA"/>
<path d="M135.479 48.6227L137.231 49.2719L135.807 52.8704L135.479 48.6227Z" fill="#739DD8"/>
<path d="M135.605 49.3323C136.411 48.673 137.629 49.136 137.795 50.1627L138.962 57.3899L140.13 64.6171C140.296 65.6438 139.289 66.4641 138.313 66.0967L131.468 63.4947L124.624 60.8928C123.652 60.5203 123.446 59.2369 124.251 58.5827L129.928 53.9575L135.605 49.3323Z" fill="#8E647C"/>
<path d="M127.402 68.7744C127.366 68.7744 127.331 68.7693 127.296 68.7542C127.145 68.6989 127.069 68.5277 127.13 68.3818L129.319 62.6242C129.375 62.4732 129.546 62.3977 129.692 62.4581C129.843 62.5134 129.918 62.6846 129.858 62.8305L127.668 68.5881C127.623 68.7039 127.512 68.7744 127.397 68.7744H127.402Z" fill="#8E647C"/>
<path d="M118.313 79.2181L120.581 80.6779C120.822 80.8328 121.143 80.7632 121.298 80.5224L130.661 65.9715C130.816 65.7308 130.746 65.41 130.505 65.2551L128.237 63.7954C127.996 63.6404 127.675 63.71 127.52 63.9508L118.157 78.5017C118.003 78.7424 118.072 79.0632 118.313 79.2181Z" fill="#EFA459"/>
<path d="M117.457 78.6679L119.726 80.1276C119.966 80.2826 120.287 80.213 120.442 79.9722L129.805 65.4213C129.96 65.1805 129.891 64.8598 129.65 64.7049L127.381 63.2451C127.14 63.0902 126.82 63.1598 126.665 63.4005L117.302 77.9515C117.147 78.1922 117.216 78.513 117.457 78.6679Z" fill="#F7B369"/>
<path d="M134.005 48.7736C134.81 48.1143 136.028 48.5773 136.194 49.604L137.362 56.8312L138.529 64.0584C138.696 65.0851 137.689 65.9055 136.713 65.5381L129.868 62.9361L123.023 60.3341C122.052 59.9617 121.845 58.6783 122.651 58.024L128.328 53.3988L134.005 48.7736Z" fill="#A37B90"/>
<path d="M129.596 63.0168C129.561 63.0168 129.525 63.0117 129.49 62.9966C129.339 62.9363 129.269 62.7702 129.329 62.6192L134.75 49.0957C134.81 48.9448 134.976 48.8743 135.127 48.9347C135.278 48.9951 135.348 49.1612 135.288 49.3122L129.868 62.8356C129.822 62.9514 129.712 63.0168 129.596 63.0168Z" fill="white"/>
<path d="M112.197 71.321C112.197 71.321 118.538 67.9439 122.861 69.3078L121.417 71.5474C121.417 71.5474 129.772 72.5188 131.09 74.1847C132.675 76.1928 129.681 76.4142 129.681 76.4142C129.681 76.4142 132.58 78.0046 131.82 79.0464C131.06 80.0932 128.976 80.5563 128.976 80.5563C128.976 80.5563 132.404 81.4269 130.018 83.4955C127.638 85.5589 111.724 87.9999 108.432 80.979C106.807 77.5114 112.197 71.3159 112.197 71.3159V71.321Z" fill="#F48462"/>
<path d="M129.682 76.7015L124.448 76.3945C124.292 76.3844 124.171 76.2536 124.181 76.0976C124.191 75.9415 124.312 75.8208 124.478 75.8308L129.697 76.1378C129.853 76.1479 129.974 76.2787 129.964 76.4348C129.954 76.5857 129.828 76.7015 129.682 76.7015Z" fill="black"/>
<path d="M128.978 80.8482L124.443 80.4959C124.287 80.4858 124.171 80.3499 124.181 80.1939C124.191 80.0379 124.327 79.9171 124.488 79.9322L129.003 80.2845C129.159 80.2946 129.275 80.4305 129.264 80.5865C129.254 80.7324 129.129 80.8482 128.983 80.8482H128.978Z" fill="black"/>
<path d="M122.761 72.3076C122.761 72.3076 122.736 72.3076 122.721 72.3076L119.349 71.8345C119.193 71.8144 119.087 71.6684 119.107 71.5124C119.127 71.3564 119.273 71.2507 119.429 71.2708L122.801 71.7439C122.957 71.7641 123.063 71.91 123.043 72.066C123.023 72.2069 122.902 72.3076 122.761 72.3076Z" fill="black"/>
<path d="M99.0158 59.7504C98.8598 59.7504 98.7289 59.6246 98.7239 59.4686C98.7239 59.3075 98.8447 59.1767 99.0057 59.1716L116.465 58.6885C116.631 58.6885 116.757 58.8143 116.762 58.9703C116.762 59.1314 116.641 59.2622 116.48 59.2673L99.0208 59.7504C99.0208 59.7504 99.0158 59.7504 99.0107 59.7504H99.0158Z" fill="#68B6D8"/>
</g>
<defs>
<clipPath id="clip0_2063_1354">
<rect width="238.11" height="218.105" fill="white"/>
</clipPath>
</defs>
</svg>
