<svg width="341" height="342" viewBox="0 0 341 342" fill="none" xmlns="http://www.w3.org/2000/svg">
<g opacity="0.43">
<path d="M306.195 273.752L304.506 272.461C326.976 242.958 338.857 207.713 338.857 170.522C338.857 112.906 309.87 59.9004 261.314 28.7285L262.467 26.9404C311.638 58.4898 340.982 112.171 340.982 170.522C340.982 208.17 328.943 243.872 306.195 273.752Z" fill="#F1F5F9"/>
<path d="M170.501 341.003C76.4892 341.003 0 264.514 0 170.501C0 76.4892 76.4892 0 170.501 0V2.12579C77.6614 2.12579 2.14568 77.6614 2.14568 170.482C2.14568 263.322 77.6813 338.837 170.501 338.837C198.554 338.837 226.329 331.804 250.805 318.493L251.818 320.361C227.024 333.89 198.892 341.003 170.501 341.003Z" fill="#F1F5F9"/>
<path d="M89.8209 301.745C43.8876 273.454 16.4707 224.382 16.4707 170.501H20.7422C20.7422 222.892 47.4041 270.593 92.0659 298.109L89.8209 301.745Z" fill="#F1F5F9"/>
<path d="M170.502 324.553C153.615 324.553 137.026 321.831 121.172 316.487L122.543 312.454C137.96 317.659 154.092 320.302 170.522 320.302C247.667 320.302 311.739 262.508 319.507 185.859L323.759 186.296C315.733 265.09 249.853 324.553 170.502 324.553Z" fill="#F1F5F9"/>
<path d="M318.355 146.581C312.772 111.833 294.931 79.9859 268.09 56.9199C240.971 33.5957 206.303 20.7614 170.502 20.7614C141.595 20.7614 113.542 29.0063 89.3638 44.6221C61.1919 62.8205 39.6954 90.2374 28.828 121.826L24.7949 120.436C35.9604 87.9527 58.0727 59.7609 87.0393 41.0459C111.913 24.9931 140.761 16.5098 170.482 16.5098C207.316 16.5098 242.958 29.7215 270.852 53.7014C298.448 77.423 316.805 110.184 322.547 145.926L318.355 146.581Z" fill="#F1F5F9"/>
<path d="M170.501 281.758C109.151 281.758 59.2441 231.852 59.2441 170.501C59.2441 145.667 67.2507 122.184 82.3697 102.595L85.7472 105.197C71.2043 124.051 63.5156 146.621 63.5156 170.501C63.5156 229.487 111.515 277.487 170.501 277.487C180.971 277.487 191.322 275.977 201.236 272.997L202.468 277.089C192.137 280.209 181.369 281.758 170.501 281.758Z" fill="#F1F5F9"/>
<path d="M245.639 252.554L242.758 249.415C264.83 229.19 277.486 200.442 277.486 170.522C277.486 149.462 271.367 129.078 259.804 111.575L263.36 109.231C275.4 127.429 281.757 148.628 281.757 170.542C281.738 201.634 268.585 231.534 245.639 252.554Z" fill="#F1F5F9"/>
<path d="M237.057 86.7411C217.965 71.5426 194.938 63.5162 170.502 63.5162C149.065 63.5162 128.383 69.8341 110.681 81.7942L108.297 78.2578C126.694 65.8209 148.21 59.2646 170.502 59.2646C195.932 59.2646 219.872 67.6089 239.719 83.4233L237.057 86.7411Z" fill="#F1F5F9"/>
<path d="M170.501 262.646C155.521 262.646 140.64 258.971 127.488 252.017L128.482 250.13C141.336 256.924 155.859 260.52 170.481 260.52C210.871 260.52 246.553 233.362 257.262 194.461L259.308 195.038C248.381 234.852 211.845 262.646 170.501 262.646Z" fill="#F1F5F9"/>
<path d="M105.357 235.686C87.9533 218.282 78.3574 195.137 78.3574 170.521C78.3574 119.72 119.681 78.3765 170.502 78.3765C221.303 78.3765 262.647 119.72 262.647 170.521H260.521C260.521 120.893 220.151 80.5221 170.522 80.5221C120.893 80.5221 80.523 120.893 80.523 170.521C80.523 194.561 89.8805 217.17 106.907 234.176L105.357 235.686Z" fill="#F1F5F9"/>
<path d="M170.501 227.819C138.892 227.819 113.184 202.11 113.184 170.501C113.184 138.892 138.892 113.184 170.501 113.184V117.456C141.256 117.456 117.455 141.257 117.455 170.501C117.455 199.746 141.256 223.547 170.501 223.547C199.746 223.547 223.547 199.746 223.547 170.501H227.818C227.798 202.11 202.09 227.819 170.501 227.819Z" fill="#F1F5F9"/>
<path d="M170.501 198.991C154.786 198.991 142.012 186.217 142.012 170.501H144.137C144.137 185.024 155.959 196.846 170.482 196.846C185.005 196.846 196.826 185.024 196.826 170.501C196.826 155.978 185.005 144.157 170.482 144.157C162.415 144.157 154.906 147.773 149.859 154.091L148.19 152.76C153.634 145.926 161.76 142.012 170.482 142.012C186.197 142.012 198.971 154.786 198.971 170.501C198.971 186.217 186.197 198.991 170.501 198.991Z" fill="#F1F5F9"/>
<path d="M65.1971 279.584L61.8425 276.227L65.1971 272.871C65.6193 272.449 65.6193 271.755 65.1971 271.332C64.775 270.91 64.0814 270.91 63.6593 271.332L60.3047 274.689L56.9501 271.332C56.528 270.91 55.8345 270.91 55.4123 271.332C54.9902 271.755 54.9902 272.449 55.4123 272.871L58.7669 276.227L55.4123 279.584C54.9902 280.006 54.9902 280.7 55.4123 281.123C55.8345 281.545 56.528 281.545 56.9501 281.123L60.3047 277.766L63.6593 281.123C64.0814 281.545 64.775 281.545 65.1971 281.123C65.6268 280.7 65.6268 280.014 65.1971 279.584Z" fill="#FF8092"/>
<path d="M11.5897 218.531L8.23512 215.174L11.5897 211.818C12.0118 211.395 12.0118 210.702 11.5897 210.279C11.1675 209.857 10.474 209.857 10.0519 210.279L6.69728 213.636L3.34271 210.279C2.92057 209.857 2.22704 209.857 1.80489 210.279C1.38274 210.702 1.38274 211.395 1.80489 211.818L5.15946 215.174L1.80489 218.531C1.38274 218.953 1.38274 219.647 1.80489 220.069C2.22704 220.492 2.92057 220.492 3.34271 220.069L6.69728 216.713L10.0519 220.069C10.474 220.492 11.1675 220.492 11.5897 220.069C12.0194 219.647 12.0194 218.961 11.5897 218.531Z" fill="#887EF9"/>
<path d="M136.997 253.146C136.997 255.617 135.001 257.614 132.53 257.614C130.059 257.614 128.062 255.617 128.062 253.146C128.062 250.676 130.059 248.679 132.53 248.679C135.001 248.679 136.997 250.684 136.997 253.146Z" fill="#2DD4BF"/>
</g>
<g filter="url(#filter0_d_886_6128)">
<rect x="117" y="116" width="108" height="108" rx="54" fill="#2969FF"/>
<g clip-path="url(#clip0_886_6128)">
<path d="M185.654 180.8H182.568V177.714H185.654V180.8Z" fill="white"/>
<path d="M176.4 180.8H179.486V177.714H176.4V180.8Z" fill="white"/>
<path d="M191.826 180.8H188.74V177.714H191.826V180.8Z" fill="white"/>
<path fill-rule="evenodd" clip-rule="evenodd" d="M160.97 165.371V157.657C160.97 156.239 161.249 154.834 161.792 153.524C162.335 152.214 163.13 151.023 164.133 150.02C165.136 149.017 166.327 148.222 167.637 147.679C168.947 147.136 170.352 146.857 171.77 146.857C173.188 146.857 174.593 147.136 175.903 147.679C177.213 148.222 178.404 149.017 179.407 150.02C180.41 151.023 181.205 152.214 181.748 153.524C182.291 154.834 182.57 156.239 182.57 157.657V165.371H187.199C188.426 165.371 189.603 165.859 190.472 166.727C191.34 167.595 191.827 168.772 191.827 170V171.697C193.571 172.051 195.139 172.997 196.265 174.375C197.391 175.753 198.006 177.477 198.006 179.257C198.006 181.036 197.391 182.761 196.265 184.139C195.139 185.517 193.571 186.463 191.827 186.817V188.514C191.827 189.742 191.34 190.919 190.472 191.787C189.603 192.655 188.426 193.143 187.199 193.143H156.341C155.114 193.143 153.937 192.655 153.069 191.787C152.201 190.919 151.713 189.742 151.713 188.514V170C151.713 168.772 152.201 167.595 153.069 166.727C153.937 165.859 155.114 165.371 156.341 165.371H160.97ZM164.056 157.657C164.056 155.611 164.869 153.649 166.315 152.202C167.762 150.755 169.724 149.943 171.77 149.943C173.816 149.943 175.778 150.755 177.225 152.202C178.672 153.649 179.484 155.611 179.484 157.657V165.371H164.056V157.657ZM177.941 174.628C176.714 174.628 175.537 175.116 174.669 175.984C173.801 176.852 173.313 178.029 173.313 179.257C173.313 180.485 173.801 181.662 174.669 182.53C175.537 183.398 176.714 183.885 177.941 183.885H190.284C191.512 183.885 192.689 183.398 193.557 182.53C194.425 181.662 194.913 180.485 194.913 179.257C194.913 178.029 194.425 176.852 193.557 175.984C192.689 175.116 191.512 174.628 190.284 174.628H177.941Z" fill="white"/>
</g>
</g>
<defs>
<filter id="filter0_d_886_6128" x="74.5714" y="85.1429" width="200.571" height="200.571" filterUnits="userSpaceOnUse" color-interpolation-filters="sRGB">
<feFlood flood-opacity="0" result="BackgroundImageFix"/>
<feColorMatrix in="SourceAlpha" type="matrix" values="0 0 0 0 0 0 0 0 0 0 0 0 0 0 0 0 0 0 127 0" result="hardAlpha"/>
<feOffset dx="3.85714" dy="15.4286"/>
<feGaussianBlur stdDeviation="23.1429"/>
<feComposite in2="hardAlpha" operator="out"/>
<feColorMatrix type="matrix" values="0 0 0 0 0.160784 0 0 0 0 0.411766 0 0 0 0 1 0 0 0 0.3 0"/>
<feBlend mode="normal" in2="BackgroundImageFix" result="effect1_dropShadow_886_6128"/>
<feBlend mode="normal" in="SourceGraphic" in2="effect1_dropShadow_886_6128" result="shape"/>
</filter>
<clipPath id="clip0_886_6128">
<rect width="46.2857" height="46.2857" fill="white" transform="translate(151.717 146.857)"/>
</clipPath>
</defs>
</svg>
