<svg width="332" height="188" viewBox="0 0 332 188" fill="none" xmlns="http://www.w3.org/2000/svg">
<path d="M54.979 41.572L48.0373 65.372C48.0187 65.436 48.0667 65.5 48.1333 65.5H90.425C90.4694 65.5 90.5086 65.4707 90.521 65.428L97.4627 41.628C97.4813 41.564 97.4333 41.5 97.3667 41.5H55.075C55.0306 41.5 54.9914 41.5293 54.979 41.572Z" fill="#FFEC00"/>
<path d="M63.9636 81.6275L57.0207 105.927C57.0085 105.97 56.9692 106 56.9246 106H1.13257C1.06614 106 1.01817 105.936 1.03642 105.873L7.97928 81.5725C7.99154 81.5296 8.03078 81.5 8.07543 81.5H63.8674C63.9339 81.5 63.9818 81.5636 63.9636 81.6275Z" fill="#FFEC00"/>
<path d="M85.9644 121.627L79.0204 146.427C79.0084 146.47 78.969 146.5 78.9242 146.5H22.6318C22.5656 146.5 22.5177 146.437 22.5355 146.373L29.4795 121.573C29.4916 121.53 29.531 121.5 29.5758 121.5H85.8682C85.9344 121.5 85.9823 121.563 85.9644 121.627Z" fill="#FFEC00"/>
<path d="M54.979 41.572L48.0373 65.372C48.0187 65.436 48.0667 65.5 48.1333 65.5H90.425C90.4694 65.5 90.5086 65.4707 90.521 65.428L97.4627 41.628C97.4813 41.564 97.4333 41.5 97.3667 41.5H55.075C55.0306 41.5 54.9914 41.5293 54.979 41.572Z" stroke="#FFEC00"/>
<path d="M63.9636 81.6275L57.0207 105.927C57.0085 105.97 56.9692 106 56.9246 106H1.13257C1.06614 106 1.01817 105.936 1.03642 105.873L7.97928 81.5725C7.99154 81.5296 8.03078 81.5 8.07543 81.5H63.8674C63.9339 81.5 63.9818 81.5636 63.9636 81.6275Z" stroke="#FFEC00"/>
<path d="M85.9644 121.627L79.0204 146.427C79.0084 146.47 78.969 146.5 78.9242 146.5H22.6318C22.5656 146.5 22.5177 146.437 22.5355 146.373L29.4795 121.573C29.4916 121.53 29.531 121.5 29.5758 121.5H85.8682C85.9344 121.5 85.9823 121.563 85.9644 121.627Z" stroke="#FFEC00"/>
<path d="M330.873 1.49973L99.0756 1.00016C99.0309 1.00007 98.9915 1.02968 98.9792 1.07269L92.0364 25.3725C92.0182 25.4364 92.0661 25.5 92.1326 25.5H164.372C164.437 25.5 164.485 25.5611 164.469 25.6243L160.519 41.4243C160.508 41.4688 160.468 41.5 160.422 41.5H120.575C120.531 41.5 120.491 41.5293 120.479 41.572L113.537 65.372C113.519 65.436 113.567 65.5 113.633 65.5H154.374C154.439 65.5 154.486 65.5599 154.472 65.6226L150.807 81.4226C150.797 81.4679 150.756 81.5 150.71 81.5H78.5754C78.5308 81.5 78.4915 81.5296 78.4793 81.5725L71.5364 105.873C71.5182 105.936 71.5661 106 71.6326 106H144.375C144.439 106 144.487 106.059 144.472 106.122L141.018 121.422C141.007 121.468 140.967 121.5 140.92 121.5H99.0758C99.031 121.5 98.9916 121.53 98.9795 121.573L92.0355 146.373C92.0177 146.437 92.0656 146.5 92.1318 146.5H134.375C134.439 146.5 134.487 146.559 134.472 146.622L131.018 161.921C131.007 161.967 130.967 162 130.92 161.999L56.0753 161.501C56.0307 161.5 55.9913 161.529 55.9787 161.572L48.5377 186.872C48.5189 186.936 48.5669 187 48.6336 187H286.421C286.468 187 286.508 186.968 286.519 186.924L295.47 150.124C295.485 150.061 295.438 150 295.373 150H178.628C178.563 150 178.515 149.939 178.531 149.876L188.481 109.576C188.492 109.531 188.532 109.5 188.578 109.5H299.921C299.968 109.5 300.008 109.468 300.019 109.424L308.957 72.6236C308.973 72.5607 308.925 72.5 308.86 72.5H197.629C197.564 72.5 197.516 72.4381 197.533 72.3748L206.48 38.0748C206.492 38.0307 206.532 38 206.577 38H321.922C321.968 38 322.008 37.9686 322.019 37.9239L330.97 1.62367C330.985 1.56072 330.937 1.49987 330.873 1.49973Z" fill="#404C8C" stroke="#404C8C"/>
</svg>
