<svg width="178" height="52" viewBox="0 0 178 52" fill="none" xmlns="http://www.w3.org/2000/svg">
<g clip-path="url(#clip0_549_4970)">
<path d="M26.0825 37.6275C25.155 37.5536 24.2274 37.5536 23.2999 37.5536C19.1816 37.5536 14.9149 38.1082 10.6853 39.1434C9.23832 39.5131 7.82846 39.9198 6.4557 40.3635L6.4557 10.416C8.756 9.34378 11.2418 8.41947 13.8389 7.79095C17.0297 6.97756 20.2204 6.57086 23.2628 6.57086C24.2274 6.57086 25.155 6.60783 26.0454 6.68178V6.7927C27.0842 7.08847 28.1602 7.34728 29.2732 7.53214C30.3121 7.717 31.388 7.82792 32.5011 7.90186V1.35778C29.7927 0.54439 26.639 0.137695 23.2999 0.137695C19.8123 0.137695 16.065 0.581362 12.2807 1.54264C7.68005 2.68878 3.48756 4.46345 0 6.60783L0 50.4199C3.48756 48.2755 7.68005 46.5378 12.2807 45.3547C16.065 44.3934 19.8123 43.9498 23.2999 43.9498C24.2645 43.9498 25.1921 43.9868 26.0825 44.0607V37.6275Z" fill="#2969FF"/>
<path d="M46.3767 6.6083C42.5923 7.56958 38.845 8.01324 35.3575 8.01324C34.3928 8.01324 33.4653 7.97627 32.5748 7.90233C31.4618 7.82838 30.3858 7.68049 29.347 7.53261C28.2339 7.34774 27.158 7.08894 26.1191 6.79316L26.1191 37.591V44.0612V50.6422C28.8647 51.4186 32.0183 51.8623 35.3946 51.8623C38.8821 51.8623 42.6294 51.4186 46.4138 50.4574C51.0144 49.3112 55.1698 47.5365 58.6944 45.3922V1.58008C55.1327 3.68749 50.9773 5.46216 46.3767 6.6083ZM52.1645 41.584C49.8642 42.6562 47.3784 43.5805 44.7813 44.209C41.5905 45.0224 38.3998 45.4291 35.3575 45.4291C34.3928 45.4291 33.4653 45.3922 32.5748 45.3182V45.2073V14.3725C33.5024 14.4464 34.4299 14.4464 35.3575 14.4464C39.4758 14.4464 43.7424 13.8918 47.972 12.8566C49.419 12.4869 50.8289 12.0802 52.2016 11.6365V41.584H52.1645Z" fill="#3266CC"/>
</g>
<path d="M76.5651 17.92C78.0371 17.92 79.3331 18.152 80.4531 18.616C81.5891 19.064 82.5731 19.728 83.4051 20.608L81.4131 23.272C80.7251 22.552 79.9811 22.016 79.1811 21.664C78.3971 21.296 77.5011 21.112 76.4931 21.112C75.9011 21.112 75.4211 21.176 75.0531 21.304C74.6851 21.432 74.4211 21.608 74.2611 21.832C74.1011 22.056 74.0211 22.312 74.0211 22.6C74.0211 22.936 74.1731 23.224 74.4771 23.464C74.7971 23.688 75.3091 23.88 76.0131 24.04L78.6771 24.64C80.2611 25.008 81.4211 25.544 82.1571 26.248C82.8931 26.952 83.2611 27.888 83.2611 29.056C83.2611 30.176 82.9731 31.128 82.3971 31.912C81.8211 32.68 81.0291 33.264 80.0211 33.664C79.0131 34.048 77.8611 34.24 76.5651 34.24C75.5091 34.24 74.5011 34.128 73.5411 33.904C72.5811 33.664 71.7171 33.328 70.9491 32.896C70.1811 32.464 69.5331 31.968 69.0051 31.408L70.9971 28.648C71.3971 29.112 71.8851 29.528 72.4611 29.896C73.0531 30.248 73.6931 30.528 74.3811 30.736C75.0851 30.944 75.7971 31.048 76.5171 31.048C77.0771 31.048 77.5411 30.992 77.9091 30.88C78.2931 30.768 78.5731 30.6 78.7491 30.376C78.9251 30.152 79.0131 29.888 79.0131 29.584C79.0131 29.248 78.8931 28.968 78.6531 28.744C78.4131 28.504 77.9571 28.304 77.2851 28.144L74.3571 27.496C73.4611 27.288 72.6611 27.016 71.9571 26.68C71.2691 26.328 70.7251 25.864 70.3251 25.288C69.9251 24.696 69.7251 23.96 69.7251 23.08C69.7251 22.088 69.9971 21.208 70.5411 20.44C71.0851 19.656 71.8691 19.04 72.8931 18.592C73.9171 18.144 75.1411 17.92 76.5651 17.92ZM91.4098 34.24C90.0818 34.24 88.9298 33.992 87.9538 33.496C86.9938 33 86.2498 32.288 85.7218 31.36C85.1938 30.432 84.9298 29.312 84.9298 28C84.9298 26.688 85.1938 25.568 85.7218 24.64C86.2498 23.712 86.9858 23 87.9298 22.504C88.8898 22.008 89.9858 21.76 91.2178 21.76C92.4818 21.76 93.5538 22.008 94.4338 22.504C95.3298 22.984 96.0098 23.656 96.4738 24.52C96.9378 25.368 97.1698 26.344 97.1698 27.448C97.1698 27.736 97.1618 28.024 97.1458 28.312C97.1298 28.6 97.1058 28.84 97.0738 29.032H87.5698V26.848H95.2738L93.3298 27.592C93.3298 26.632 93.1538 25.896 92.8018 25.384C92.4658 24.872 91.9378 24.616 91.2178 24.616C90.7058 24.616 90.2658 24.736 89.8978 24.976C89.5458 25.216 89.2738 25.592 89.0818 26.104C88.9058 26.616 88.8178 27.272 88.8178 28.072C88.8178 28.856 88.9218 29.496 89.1298 29.992C89.3378 30.472 89.6338 30.824 90.0178 31.048C90.4018 31.256 90.8658 31.36 91.4098 31.36C92.0178 31.36 92.4978 31.24 92.8498 31C93.2178 30.76 93.4898 30.424 93.6658 29.992L96.9298 31.072C96.7058 31.76 96.3138 32.344 95.7538 32.824C95.2098 33.288 94.5538 33.64 93.7858 33.88C93.0338 34.12 92.2418 34.24 91.4098 34.24ZM99.4523 34V22L103.052 22L103.22 24.592C103.524 23.696 103.972 23 104.564 22.504C105.172 22.008 105.94 21.76 106.868 21.76C107.172 21.76 107.428 21.784 107.636 21.832C107.86 21.88 108.036 21.944 108.164 22.024L107.756 25.384C107.596 25.32 107.388 25.272 107.132 25.24C106.892 25.192 106.596 25.168 106.244 25.168C105.764 25.168 105.316 25.272 104.9 25.48C104.484 25.688 104.148 26 103.892 26.416C103.652 26.816 103.532 27.328 103.532 27.952V34H99.4523ZM117.565 22H121.789L117.469 34H112.597L108.277 22H112.573L115.045 31.144L117.565 22ZM125.258 20.608C124.426 20.608 123.818 20.456 123.434 20.152C123.066 19.832 122.882 19.336 122.882 18.664C122.882 17.976 123.066 17.48 123.434 17.176C123.818 16.856 124.426 16.696 125.258 16.696C126.074 16.696 126.674 16.856 127.058 17.176C127.442 17.48 127.634 17.976 127.634 18.664C127.634 19.336 127.442 19.832 127.058 20.152C126.674 20.456 126.074 20.608 125.258 20.608ZM127.298 22V34H123.218V22H127.298ZM130.202 34V22H133.85L134.066 26.128L133.61 25.672C133.77 24.808 134.05 24.088 134.45 23.512C134.866 22.936 135.378 22.504 135.986 22.216C136.61 21.912 137.306 21.76 138.074 21.76C138.906 21.76 139.626 21.92 140.234 22.24C140.858 22.56 141.346 23.032 141.698 23.656C142.05 24.28 142.226 25.064 142.226 26.008V34H138.146V27.088C138.146 26.256 137.986 25.68 137.666 25.36C137.346 25.04 136.938 24.88 136.442 24.88C136.058 24.88 135.698 24.976 135.362 25.168C135.026 25.344 134.762 25.632 134.57 26.032C134.378 26.432 134.282 26.968 134.282 27.64V34H130.202Z" fill="#061533"/>
<path d="M151.925 34.24C150.517 34.24 149.261 33.928 148.157 33.304C147.069 32.68 146.221 31.76 145.613 30.544C145.005 29.328 144.701 27.848 144.701 26.104C144.701 24.392 145.021 22.928 145.661 21.712C146.301 20.496 147.213 19.56 148.397 18.904C149.597 18.248 151.005 17.92 152.621 17.92C154.413 17.92 155.861 18.248 156.965 18.904C158.069 19.544 158.925 20.568 159.533 21.976L155.717 23.488C155.509 22.672 155.141 22.08 154.613 21.712C154.085 21.344 153.429 21.16 152.645 21.16C151.861 21.16 151.189 21.352 150.629 21.736C150.069 22.104 149.645 22.656 149.357 23.392C149.069 24.112 148.925 25.008 148.925 26.08C148.925 27.2 149.069 28.136 149.357 28.888C149.661 29.64 150.101 30.2 150.677 30.568C151.269 30.92 151.997 31.096 152.861 31.096C153.325 31.096 153.749 31.04 154.133 30.928C154.517 30.816 154.853 30.656 155.141 30.448C155.429 30.224 155.653 29.952 155.813 29.632C155.973 29.296 156.053 28.904 156.053 28.456V28.216H152.429V25.456H159.557V34H156.749L156.437 30.28L157.109 30.856C156.773 31.944 156.165 32.784 155.285 33.376C154.421 33.952 153.301 34.24 151.925 34.24ZM168.141 21.76C169.405 21.76 170.509 22.008 171.453 22.504C172.413 22.984 173.157 23.696 173.685 24.64C174.229 25.568 174.501 26.688 174.501 28C174.501 29.312 174.229 30.44 173.685 31.384C173.157 32.312 172.413 33.024 171.453 33.52C170.509 34 169.405 34.24 168.141 34.24C166.909 34.24 165.813 34 164.853 33.52C163.893 33.024 163.141 32.312 162.597 31.384C162.069 30.44 161.805 29.312 161.805 28C161.805 26.688 162.069 25.568 162.597 24.64C163.141 23.696 163.893 22.984 164.853 22.504C165.813 22.008 166.909 21.76 168.141 21.76ZM168.141 24.664C167.677 24.664 167.277 24.776 166.941 25C166.605 25.224 166.349 25.584 166.173 26.08C165.997 26.576 165.909 27.216 165.909 28C165.909 28.784 165.997 29.424 166.173 29.92C166.349 30.4 166.605 30.76 166.941 31C167.277 31.224 167.677 31.336 168.141 31.336C168.621 31.336 169.029 31.224 169.365 31C169.701 30.76 169.957 30.4 170.133 29.92C170.309 29.424 170.397 28.784 170.397 28C170.397 27.216 170.309 26.576 170.133 26.08C169.957 25.584 169.701 25.224 169.365 25C169.029 24.776 168.621 24.664 168.141 24.664Z" fill="#2969FF"/>
<defs>
<clipPath id="clip0_549_4970">
<rect width="58.6207" height="51.7241" fill="white" transform="translate(0 0.137695)"/>
</clipPath>
</defs>
</svg>
