<svg width="178" height="52" viewBox="0 0 178 52" fill="none" xmlns="http://www.w3.org/2000/svg">
<g clip-path="url(#clip0_401_46)">
<path d="M26.0825 37.6278C25.155 37.5538 24.2274 37.5538 23.2999 37.5538C19.1816 37.5538 14.9149 38.1084 10.6853 39.1436C9.23832 39.5134 7.82846 39.9201 6.4557 40.3637L6.4557 10.4162C8.756 9.34402 11.2418 8.41972 13.8389 7.79119C17.0297 6.9778 20.2204 6.57111 23.2628 6.57111C24.2274 6.57111 25.155 6.60808 26.0454 6.68202V6.79294C27.0842 7.08872 28.1602 7.34752 29.2732 7.53238C30.3121 7.71724 31.388 7.82816 32.5011 7.90211V1.35802C29.7927 0.544634 26.639 0.137939 23.2999 0.137939C19.8123 0.137939 16.065 0.581606 12.2807 1.54288C7.68005 2.68902 3.48756 4.46369 0 6.60808L0 50.4202C3.48756 48.2758 7.68005 46.5381 12.2807 45.355C16.065 44.3937 19.8123 43.95 23.2999 43.95C24.2645 43.95 25.1921 43.987 26.0825 44.0609V37.6278Z" fill="#2969FF"/>
<path d="M46.3773 6.6083C42.5929 7.56958 38.8456 8.01324 35.3581 8.01324C34.3934 8.01324 33.4659 7.97627 32.5754 7.90233C31.4624 7.82838 30.3864 7.68049 29.3476 7.53261C28.2345 7.34774 27.1586 7.08894 26.1198 6.79316L26.1198 37.591V44.0612V50.6422C28.8653 51.4186 32.0189 51.8623 35.3952 51.8623C38.8827 51.8623 42.63 51.4186 46.4144 50.4574C51.015 49.3112 55.1704 47.5365 58.695 45.3922V1.58008C55.1333 3.68749 50.9779 5.46216 46.3773 6.6083ZM52.1651 41.584C49.8648 42.6562 47.379 43.5805 44.7819 44.209C41.5912 45.0224 38.4004 45.4291 35.3581 45.4291C34.3934 45.4291 33.4659 45.3922 32.5754 45.3182V45.2073V14.3725C33.503 14.4464 34.4305 14.4464 35.3581 14.4464C39.4764 14.4464 43.7431 13.8918 47.9727 12.8566C49.4196 12.4869 50.8295 12.0802 52.2022 11.6365V41.584H52.1651Z" fill="#3266CC"/>
</g>
<path d="M76.5647 17.92C78.0367 17.92 79.3327 18.152 80.4527 18.616C81.5887 19.064 82.5727 19.728 83.4047 20.608L81.4127 23.272C80.7247 22.552 79.9807 22.016 79.1807 21.664C78.3967 21.296 77.5007 21.112 76.4927 21.112C75.9007 21.112 75.4207 21.176 75.0527 21.304C74.6847 21.432 74.4207 21.608 74.2607 21.832C74.1007 22.056 74.0207 22.312 74.0207 22.6C74.0207 22.936 74.1727 23.224 74.4767 23.464C74.7967 23.688 75.3087 23.88 76.0127 24.04L78.6767 24.64C80.2607 25.008 81.4207 25.544 82.1567 26.248C82.8927 26.952 83.2607 27.888 83.2607 29.056C83.2607 30.176 82.9727 31.128 82.3967 31.912C81.8207 32.68 81.0287 33.264 80.0207 33.664C79.0127 34.048 77.8607 34.24 76.5647 34.24C75.5087 34.24 74.5007 34.128 73.5407 33.904C72.5807 33.664 71.7167 33.328 70.9487 32.896C70.1807 32.464 69.5327 31.968 69.0047 31.408L70.9967 28.648C71.3967 29.112 71.8847 29.528 72.4607 29.896C73.0527 30.248 73.6927 30.528 74.3807 30.736C75.0847 30.944 75.7967 31.048 76.5167 31.048C77.0767 31.048 77.5407 30.992 77.9087 30.88C78.2927 30.768 78.5727 30.6 78.7487 30.376C78.9247 30.152 79.0127 29.888 79.0127 29.584C79.0127 29.248 78.8927 28.968 78.6527 28.744C78.4127 28.504 77.9567 28.304 77.2847 28.144L74.3567 27.496C73.4607 27.288 72.6607 27.016 71.9567 26.68C71.2687 26.328 70.7247 25.864 70.3247 25.288C69.9247 24.696 69.7247 23.96 69.7247 23.08C69.7247 22.088 69.9967 21.208 70.5407 20.44C71.0847 19.656 71.8687 19.04 72.8927 18.592C73.9167 18.144 75.1407 17.92 76.5647 17.92ZM91.4094 34.24C90.0814 34.24 88.9294 33.992 87.9534 33.496C86.9934 33 86.2494 32.288 85.7214 31.36C85.1934 30.432 84.9294 29.312 84.9294 28C84.9294 26.688 85.1934 25.568 85.7214 24.64C86.2494 23.712 86.9854 23 87.9294 22.504C88.8894 22.008 89.9854 21.76 91.2174 21.76C92.4814 21.76 93.5534 22.008 94.4334 22.504C95.3294 22.984 96.0094 23.656 96.4734 24.52C96.9374 25.368 97.1694 26.344 97.1694 27.448C97.1694 27.736 97.1614 28.024 97.1454 28.312C97.1294 28.6 97.1054 28.84 97.0734 29.032H87.5694V26.848H95.2734L93.3294 27.592C93.3294 26.632 93.1534 25.896 92.8014 25.384C92.4654 24.872 91.9374 24.616 91.2174 24.616C90.7054 24.616 90.2654 24.736 89.8974 24.976C89.5454 25.216 89.2734 25.592 89.0814 26.104C88.9054 26.616 88.8174 27.272 88.8174 28.072C88.8174 28.856 88.9214 29.496 89.1294 29.992C89.3374 30.472 89.6334 30.824 90.0174 31.048C90.4014 31.256 90.8654 31.36 91.4094 31.36C92.0174 31.36 92.4974 31.24 92.8494 31C93.2174 30.76 93.4894 30.424 93.6654 29.992L96.9294 31.072C96.7054 31.76 96.3134 32.344 95.7534 32.824C95.2094 33.288 94.5534 33.64 93.7854 33.88C93.0334 34.12 92.2414 34.24 91.4094 34.24ZM99.4519 34V22L103.052 22L103.22 24.592C103.524 23.696 103.972 23 104.564 22.504C105.172 22.008 105.94 21.76 106.868 21.76C107.172 21.76 107.428 21.784 107.636 21.832C107.86 21.88 108.036 21.944 108.164 22.024L107.756 25.384C107.596 25.32 107.388 25.272 107.132 25.24C106.892 25.192 106.596 25.168 106.244 25.168C105.764 25.168 105.316 25.272 104.9 25.48C104.484 25.688 104.148 26 103.892 26.416C103.652 26.816 103.532 27.328 103.532 27.952V34H99.4519ZM117.564 22H121.788L117.468 34H112.596L108.276 22H112.572L115.044 31.144L117.564 22ZM125.257 20.608C124.425 20.608 123.817 20.456 123.433 20.152C123.065 19.832 122.881 19.336 122.881 18.664C122.881 17.976 123.065 17.48 123.433 17.176C123.817 16.856 124.425 16.696 125.257 16.696C126.073 16.696 126.673 16.856 127.057 17.176C127.441 17.48 127.633 17.976 127.633 18.664C127.633 19.336 127.441 19.832 127.057 20.152C126.673 20.456 126.073 20.608 125.257 20.608ZM127.297 22V34H123.217V22H127.297ZM130.202 34V22H133.85L134.066 26.128L133.61 25.672C133.77 24.808 134.05 24.088 134.45 23.512C134.866 22.936 135.378 22.504 135.986 22.216C136.61 21.912 137.306 21.76 138.074 21.76C138.906 21.76 139.626 21.92 140.234 22.24C140.858 22.56 141.346 23.032 141.698 23.656C142.05 24.28 142.226 25.064 142.226 26.008V34H138.146V27.088C138.146 26.256 137.986 25.68 137.666 25.36C137.346 25.04 136.938 24.88 136.442 24.88C136.058 24.88 135.698 24.976 135.362 25.168C135.026 25.344 134.762 25.632 134.57 26.032C134.378 26.432 134.282 26.968 134.282 27.64V34H130.202Z" fill="#061533"/>
<path d="M151.925 34.24C150.517 34.24 149.261 33.928 148.157 33.304C147.069 32.68 146.221 31.76 145.613 30.544C145.005 29.328 144.701 27.848 144.701 26.104C144.701 24.392 145.021 22.928 145.661 21.712C146.301 20.496 147.213 19.56 148.397 18.904C149.597 18.248 151.005 17.92 152.621 17.92C154.413 17.92 155.861 18.248 156.965 18.904C158.069 19.544 158.925 20.568 159.533 21.976L155.717 23.488C155.509 22.672 155.141 22.08 154.613 21.712C154.085 21.344 153.429 21.16 152.645 21.16C151.861 21.16 151.189 21.352 150.629 21.736C150.069 22.104 149.645 22.656 149.357 23.392C149.069 24.112 148.925 25.008 148.925 26.08C148.925 27.2 149.069 28.136 149.357 28.888C149.661 29.64 150.101 30.2 150.677 30.568C151.269 30.92 151.997 31.096 152.861 31.096C153.325 31.096 153.749 31.04 154.133 30.928C154.517 30.816 154.853 30.656 155.141 30.448C155.429 30.224 155.653 29.952 155.813 29.632C155.973 29.296 156.053 28.904 156.053 28.456V28.216H152.429V25.456H159.557V34H156.749L156.437 30.28L157.109 30.856C156.773 31.944 156.165 32.784 155.285 33.376C154.421 33.952 153.301 34.24 151.925 34.24ZM168.14 21.76C169.404 21.76 170.508 22.008 171.452 22.504C172.412 22.984 173.156 23.696 173.684 24.64C174.228 25.568 174.5 26.688 174.5 28C174.5 29.312 174.228 30.44 173.684 31.384C173.156 32.312 172.412 33.024 171.452 33.52C170.508 34 169.404 34.24 168.14 34.24C166.908 34.24 165.812 34 164.852 33.52C163.892 33.024 163.14 32.312 162.596 31.384C162.068 30.44 161.804 29.312 161.804 28C161.804 26.688 162.068 25.568 162.596 24.64C163.14 23.696 163.892 22.984 164.852 22.504C165.812 22.008 166.908 21.76 168.14 21.76ZM168.14 24.664C167.676 24.664 167.276 24.776 166.94 25C166.604 25.224 166.348 25.584 166.172 26.08C165.996 26.576 165.908 27.216 165.908 28C165.908 28.784 165.996 29.424 166.172 29.92C166.348 30.4 166.604 30.76 166.94 31C167.276 31.224 167.676 31.336 168.14 31.336C168.62 31.336 169.028 31.224 169.364 31C169.7 30.76 169.956 30.4 170.132 29.92C170.308 29.424 170.396 28.784 170.396 28C170.396 27.216 170.308 26.576 170.132 26.08C169.956 25.584 169.7 25.224 169.364 25C169.028 24.776 168.62 24.664 168.14 24.664Z" fill="#2969FF"/>
<defs>
<clipPath id="clip0_401_46">
<rect width="58.6207" height="51.7241" fill="white" transform="translate(0 0.137939)"/>
</clipPath>
</defs>
</svg>
