<svg width="175" height="175" viewBox="0 0 175 175" fill="none" xmlns="http://www.w3.org/2000/svg">
<g opacity="0.66" clip-path="url(#clip0_888_3911)">
<path d="M73.9004 35.582H79.3745V40.714H73.9004V35.582Z" fill="#2969FF"/>
<path d="M84.8477 35.582H90.3218V40.714H84.8477V35.582Z" fill="#2969FF"/>
<path d="M95.7969 35.582H101.271V40.714H95.7969V35.582Z" fill="#2969FF"/>
<path d="M133.944 136.511V65.6895H41.2266V136.511H133.944ZM46.3585 114.614H63.1229V131.379H46.3585V114.614ZM106.916 109.482H90.1513V92.7178H106.916V109.482ZM112.048 92.7178H128.812V109.482H112.048V92.7178ZM90.1513 114.614H106.916V131.379H90.1513V114.614ZM85.0193 131.379H68.2549V114.614H85.0193V131.379ZM90.1513 87.5858V70.8214H106.916V87.5858H90.1513ZM85.0193 87.5858H68.2549V70.8214H85.0193V87.5858ZM85.0193 92.7178V109.482H68.2549V92.7178H85.0193ZM63.1229 109.482H46.3585V92.7178H63.1229V109.482ZM112.048 131.379V114.614H128.812V131.379H112.048ZM128.812 87.5858H112.048V70.8214H128.812V87.5858ZM63.1229 70.8214V87.5858H46.3585V70.8214H63.1229Z" fill="#2969FF"/>
<path d="M145.064 65.6895C142.916 65.6895 140.897 66.526 139.379 68.0443C137.86 69.5627 137.023 71.582 137.023 73.7295C137.023 75.8771 137.86 77.8963 139.378 79.4147C140.157 80.1934 141.068 80.7911 142.059 81.1904C140.194 84.2812 140.584 88.3625 143.249 91.0273C144.767 92.5457 146.786 93.3822 148.934 93.3822C150.422 93.3822 151.849 92.9799 153.09 92.2275C153.489 93.2149 154.085 94.1219 154.861 94.8979C156.379 96.4162 158.399 97.2527 160.546 97.2527C162.694 97.2527 164.713 96.4166 166.231 94.8979H166.232C167.75 93.3795 168.586 91.3602 168.586 89.2127C168.586 87.0651 167.75 85.0459 166.232 83.5275C165.441 82.7372 164.526 82.1473 163.549 81.7556C165.416 78.6644 165.026 74.5808 162.361 71.9152C160.842 70.3968 158.823 69.5603 156.675 69.5603C155.187 69.5603 153.761 69.9627 152.52 70.7147C152.12 69.7273 151.524 68.8203 150.748 68.0447C149.23 66.526 147.211 65.6895 145.064 65.6895ZM143.007 71.6733C143.556 71.1242 144.287 70.8214 145.064 70.8214C145.84 70.8214 146.57 71.1239 147.12 71.6733C147.669 72.2224 147.972 72.9529 147.972 73.7295C147.972 74.5058 147.67 75.2359 147.121 75.7847L147.12 75.7857C146.571 76.3349 145.84 76.6376 145.064 76.6376C144.287 76.6376 143.557 76.3352 143.007 75.7857C142.458 75.2366 142.155 74.5062 142.155 73.7295C142.155 72.9529 142.458 72.2224 143.007 71.6733ZM162.603 91.2689C162.054 91.8183 161.324 92.1208 160.547 92.1208C159.77 92.1208 159.04 91.8183 158.49 91.2689C157.941 90.7198 157.639 89.9893 157.639 89.2127C157.639 88.4357 157.941 87.7056 158.49 87.1561C159.057 86.5892 159.802 86.3059 160.547 86.3059C161.291 86.3059 162.036 86.5896 162.603 87.1565C163.152 87.7056 163.455 88.436 163.455 89.2127C163.455 89.9893 163.152 90.7198 162.603 91.2689ZM156.676 74.6919C157.453 74.6919 158.183 74.9944 158.732 75.5438C159.866 76.6777 159.866 78.5228 158.732 79.6566L150.99 87.398C150.441 87.9471 149.711 88.2499 148.934 88.2499C148.157 88.2499 147.427 87.9475 146.878 87.398C145.744 86.2642 145.744 84.4191 146.878 83.2852L150.748 79.4144L154.619 75.5438C155.169 74.9947 155.899 74.6919 156.676 74.6919Z" fill="#2969FF"/>
<path d="M169.697 104.008H150.538C150.444 104.008 150.367 103.931 150.367 103.837V98.3627H145.235V103.837C145.235 106.761 147.613 109.14 150.538 109.14H169.697C169.791 109.14 169.868 109.216 169.868 109.311V120.259C169.868 120.354 169.791 120.43 169.697 120.43H161.486C158.562 120.43 156.183 122.809 156.183 125.733V136.681C156.183 136.776 156.106 136.852 156.012 136.852H150.367V114.785H145.235V147.801H29.9365V54.3989H145.235V62.7811H150.367V21.8964H133.944V10.9482H117.864V21.8964H62.9521V27.0284H117.864V40.7136H133.944V27.0284H145.235V49.2669H29.9365V27.0284H41.2268V40.7136H57.3069V10.9482H41.2268V21.8964H24.8045V136.852H13.6852C13.5912 136.852 13.5142 136.776 13.5142 136.681V125.733C13.5142 122.809 11.1353 120.43 8.21114 120.43H0V125.562H8.21114C8.30523 125.562 8.38221 125.639 8.38221 125.733V136.681C8.38221 139.606 10.761 141.984 13.6852 141.984H24.8045V152.933H30.2786V163.881H144.892V152.933H150.367V141.984H156.012C158.936 141.984 161.315 139.606 161.315 136.681V125.733C161.315 125.639 161.392 125.562 161.486 125.562H169.697C172.621 125.562 175 123.183 175 120.259V109.311C175 106.387 172.621 104.008 169.697 104.008ZM128.812 35.5817H122.996V16.0802H128.812V35.5817ZM46.3587 16.0802H52.175V35.5817H46.3587V16.0802ZM139.761 158.749H35.4106V152.933H139.761V158.749Z" fill="#2969FF"/>
<path d="M164.224 27.0284C168.657 27.0284 172.264 23.4217 172.264 18.9883C172.264 14.555 168.657 10.9482 164.224 10.9482C159.79 10.9482 156.184 14.555 156.184 18.9883C156.184 23.4217 159.79 27.0284 164.224 27.0284ZM164.224 16.0802C165.827 16.0802 167.132 17.3848 167.132 18.9883C167.132 20.5919 165.827 21.8964 164.224 21.8964C162.62 21.8964 161.316 20.5919 161.316 18.9883C161.316 17.3848 162.62 16.0802 164.224 16.0802Z" fill="#2969FF"/>
<path d="M10.9483 109.14C15.3816 109.14 18.9884 105.533 18.9884 101.1C18.9884 96.6663 15.3816 93.0596 10.9483 93.0596C6.51495 93.0596 2.9082 96.6663 2.9082 101.1C2.9082 105.533 6.51495 109.14 10.9483 109.14ZM10.9483 98.1915C12.5518 98.1915 13.8564 99.4961 13.8564 101.1C13.8564 102.703 12.5518 104.008 10.9483 104.008C9.34471 104.008 8.04017 102.703 8.04017 101.1C8.04017 99.4961 9.34471 98.1915 10.9483 98.1915Z" fill="#2969FF"/>
<path d="M11.1198 70.9926H16.2517V65.3474H21.8969V60.2155H16.2517V54.5703H11.1198V60.2155H5.47461V65.3474H11.1198V70.9926Z" fill="#2969FF"/>
<path d="M164.053 147.63H158.921V153.275H153.275V158.407H158.921V164.052H164.053V158.407H169.698V153.275H164.053V147.63Z" fill="#2969FF"/>
</g>
<defs>
<clipPath id="clip0_888_3911">
<rect width="175" height="175" fill="white"/>
</clipPath>
</defs>
</svg>
