<svg width="114" height="114" viewBox="0 0 114 114" fill="none" xmlns="http://www.w3.org/2000/svg">
<g opacity="0.8">
<path d="M34.7335 65.3898C35.0898 65.7461 35.5351 65.9064 35.9982 65.9064C36.4613 65.9064 36.9066 65.7283 37.2629 65.3898C37.9576 64.6952 37.9576 63.573 37.2629 62.8783L33.7004 59.3158L37.2629 55.7533C37.9576 55.0586 37.9576 53.9364 37.2629 53.2417C36.5682 52.547 35.446 52.547 34.7513 53.2417L31.1888 56.8042L27.6263 53.2417C26.9316 52.547 25.8095 52.547 25.1148 53.2417C24.4201 53.9364 24.4201 55.0586 25.1148 55.7533L28.6773 59.3158L25.1148 62.8783C24.4201 63.573 24.4201 64.6952 25.1148 65.3898C25.471 65.7461 25.9163 65.9064 26.3795 65.9064C26.8426 65.9064 27.2879 65.7283 27.6441 65.3898L31.2066 61.8273L34.7691 65.3898H34.7335Z" fill="#2969FF"/>
<path d="M67.5266 53.2241C66.8319 52.5295 65.7097 52.5295 65.015 53.2241L61.4525 56.7866L57.89 53.2241C57.1953 52.5295 56.0731 52.5295 55.3784 53.2241C54.6837 53.9188 54.6837 55.041 55.3784 55.7357L58.9409 59.2982L55.3784 62.8607C54.6837 63.5554 54.6837 64.6776 55.3784 65.3723C55.7347 65.7285 56.18 65.8888 56.6431 65.8888C57.1062 65.8888 57.5516 65.7107 57.9078 65.3723L61.4703 61.8098L65.0328 65.3723C65.3891 65.7285 65.8344 65.8888 66.2975 65.8888C66.7606 65.8888 67.2059 65.7107 67.5622 65.3723C68.2569 64.6776 68.2569 63.5554 67.5622 62.8607L63.9997 59.2982L67.5622 55.7357C68.2569 55.041 68.2569 53.9188 67.5622 53.2241H67.5266Z" fill="#2969FF"/>
<path d="M96.1875 60.5625C93.2484 60.5625 90.8438 62.9672 90.8438 65.9062C90.8438 68.8453 93.2484 71.25 96.1875 71.25C99.1266 71.25 101.531 68.8453 101.531 65.9062C101.531 62.9672 99.1266 60.5625 96.1875 60.5625ZM96.1875 67.6875C95.2078 67.6875 94.4062 66.8859 94.4062 65.9062C94.4062 64.9266 95.2078 64.125 96.1875 64.125C97.1672 64.125 97.9688 64.9266 97.9688 65.9062C97.9688 66.8859 97.1672 67.6875 96.1875 67.6875Z" fill="#2969FF"/>
<path d="M34.556 78.7312C33.7723 79.319 33.5942 80.4412 34.182 81.225C34.7698 82.0087 35.892 82.1868 36.6757 81.599C43.1595 76.7897 49.4473 76.7897 55.931 81.599C56.2517 81.8306 56.6257 81.9553 56.9998 81.9553C57.552 81.9553 58.0863 81.7059 58.4248 81.2428C59.0126 80.459 58.8523 79.3368 58.0507 78.749C50.2488 72.96 42.3401 72.96 34.556 78.749V78.7312Z" fill="#2969FF"/>
<path d="M18.6133 30.2812H82.4711C83.4508 30.2812 84.2523 29.4797 84.2523 28.5C84.2523 27.5203 83.4508 26.7188 82.4711 26.7188H18.6133C17.6336 26.7188 16.832 27.5203 16.832 28.5C16.832 29.4797 17.6336 30.2812 18.6133 30.2812Z" fill="#2969FF"/>
<path d="M103.312 51.6562V39.1875C103.312 36.2484 100.908 33.8438 97.9688 33.8438H94.4062V24.9375C94.4062 21.9984 92.0016 19.5938 89.0625 19.5938H14.25C9.33375 19.5938 5.34375 23.5838 5.34375 28.5V90.8438C5.34375 95.76 9.33375 99.75 14.25 99.75H97.9688C100.908 99.75 103.312 97.3453 103.312 94.4062V80.1562C106.252 80.1562 108.656 77.7516 108.656 74.8125V57C108.656 54.0609 106.252 51.6562 103.312 51.6562ZM14.25 23.1562H89.0625C90.0422 23.1562 90.8438 23.9578 90.8438 24.9375V33.8438H14.25C11.3109 33.8438 8.90625 31.4391 8.90625 28.5C8.90625 25.5609 11.3109 23.1562 14.25 23.1562ZM99.75 94.4062C99.75 95.3859 98.9484 96.1875 97.9688 96.1875H14.25C11.3109 96.1875 8.90625 93.7828 8.90625 90.8438V35.5716C10.4025 36.6937 12.2372 37.4062 14.25 37.4062H97.9688C98.9484 37.4062 99.75 38.2078 99.75 39.1875V51.6562H92.625C87.7087 51.6562 83.7188 55.6463 83.7188 60.5625V71.25C83.7188 76.1662 87.7087 80.1562 92.625 80.1562H99.75V94.4062ZM105.094 74.8125C105.094 75.7922 104.292 76.5938 103.312 76.5938H92.625C89.6859 76.5938 87.2812 74.1891 87.2812 71.25V60.5625C87.2812 57.6234 89.6859 55.2188 92.625 55.2188H103.312C104.292 55.2188 105.094 56.0203 105.094 57V74.8125Z" fill="#2969FF"/>
</g>
</svg>
