<svg width="318" height="256" viewBox="0 0 318 256" fill="none" xmlns="http://www.w3.org/2000/svg">
<path fill-rule="evenodd" clip-rule="evenodd" d="M220.545 254.685L218.909 110.854C218.909 110.854 210.758 116.858 205.557 120.7C202.825 122.716 201.014 125.74 200.546 129.099C199.48 136.52 197.625 150.179 197.011 159.338C195.697 178.621 199.275 233.314 200.78 254.685H220.545Z" fill="#FFD83D"/>
<path fill-rule="evenodd" clip-rule="evenodd" d="M209.084 254.683H284.86C281.075 228.736 263.958 120.398 241.545 109.866L229.239 113.269C229.239 113.269 218.223 115.836 213.602 123.83C209.48 130.959 205.242 140.772 204.89 156.291C204.596 168.964 207.867 231.904 209.084 254.683Z" fill="#FE9900"/>
<path fill-rule="evenodd" clip-rule="evenodd" d="M168.459 121.353C168.459 118.202 165.9 115.657 162.749 115.657H38.1145C34.9767 115.657 32.418 118.202 32.418 121.353C32.418 137.136 32.418 181.253 32.418 197.036C32.418 200.187 34.9767 202.746 38.1145 202.746C60.2807 202.746 140.583 202.746 162.749 202.746C165.9 202.746 168.459 200.187 168.459 197.036C168.459 181.253 168.459 137.136 168.459 121.353Z" fill="#EBF4FF"/>
<path fill-rule="evenodd" clip-rule="evenodd" d="M132.05 90.8672L122.376 75.6285C122.2 75.3611 121.857 75.2896 121.597 75.4545C121.338 75.6194 121.258 75.9732 121.423 76.233L131.098 91.4717C131.263 91.7315 131.617 91.8106 131.876 91.6457C132.136 91.4808 132.215 91.127 132.05 90.8672Z" fill="#2969FF"/>
<path fill-rule="evenodd" clip-rule="evenodd" d="M233.702 78.9163L238.093 70.4584C238.236 70.1921 238.135 69.8522 237.853 69.7048C237.576 69.5679 237.236 69.6684 237.099 69.9453L232.702 78.3925C232.566 78.6694 232.666 79.0092 232.943 79.1461C233.215 79.2991 233.56 79.1826 233.702 78.9163Z" fill="#FF3D3D"/>
<path fill-rule="evenodd" clip-rule="evenodd" d="M156.651 192.212C156.651 190.749 156.066 189.352 155.041 188.322C154.002 187.292 152.613 186.715 151.146 186.715C129.793 186.715 52.3735 186.715 31.0067 186.715C29.5528 186.715 28.1511 187.292 27.1256 188.322C26.1001 189.352 25.5156 190.749 25.5156 192.212C25.5156 200.346 25.5156 215.505 25.5156 223.639C25.5156 225.095 26.1001 226.493 27.1256 227.522C28.1511 228.552 29.5528 229.136 31.0067 229.136H151.146C152.613 229.136 154.002 228.552 155.041 227.522C156.066 226.493 156.651 225.095 156.651 223.639V192.212Z" fill="#2969FF"/>
<path fill-rule="evenodd" clip-rule="evenodd" d="M82.8819 83.391C82.8819 81.4653 81.3198 79.8896 79.3806 79.8896H65.806C63.8803 79.8896 62.3047 81.4653 62.3047 83.391C62.3047 87.0539 62.3047 93.3026 62.3047 96.9655C62.3047 98.9047 63.8803 100.467 65.806 100.467H79.3806C81.3198 100.467 82.8819 98.9047 82.8819 96.9655C82.8819 93.3026 82.8819 87.0539 82.8819 83.391ZM81.7641 83.391V96.9655C81.7641 98.2853 80.7003 99.349 79.3806 99.349H65.806C64.4998 99.349 63.4357 98.2853 63.4357 96.9655C63.4357 93.3026 63.4357 87.0539 63.4357 83.391C63.4357 82.0847 64.4998 81.0209 65.806 81.0209H79.3806C80.7003 81.0209 81.7641 82.0847 81.7641 83.391Z" fill="#2969FF"/>
<path fill-rule="evenodd" clip-rule="evenodd" d="M107.175 93.829C107.175 92.601 106.183 91.6006 104.946 91.6006C102.718 91.6006 98.7734 91.6006 96.5369 91.6006C95.3088 91.6006 94.3086 92.601 94.3086 93.829V102.238C94.3086 103.475 95.3088 104.467 96.5369 104.467C98.7734 104.467 102.718 104.467 104.946 104.467C106.183 104.467 107.175 103.475 107.175 102.238C107.175 100.002 107.175 96.0655 107.175 93.829ZM106.052 93.829C106.052 96.0655 106.052 100.002 106.052 102.238C106.052 102.848 105.556 103.344 104.946 103.344C102.718 103.344 98.7734 103.344 96.5369 103.344C95.9269 103.344 95.431 102.848 95.431 102.238V93.829C95.431 93.219 95.9269 92.723 96.5369 92.723C98.7734 92.723 102.718 92.723 104.946 92.723C105.556 92.723 106.052 93.219 106.052 93.829Z" fill="#FE9900"/>
<path fill-rule="evenodd" clip-rule="evenodd" d="M177.455 213.296C175.874 213.296 174.6 214.571 174.6 216.142C174.6 217.723 175.874 218.998 177.455 218.998C179.027 218.998 180.302 217.723 180.302 216.142C180.302 214.571 179.027 213.296 177.455 213.296ZM177.455 214.413C178.404 214.413 179.175 215.193 179.175 216.142C179.175 217.101 178.404 217.871 177.455 217.871C176.497 217.871 175.726 217.101 175.726 216.142C175.726 215.193 176.497 214.413 177.455 214.413Z" fill="#FF3D3D"/>
<path fill-rule="evenodd" clip-rule="evenodd" d="M262.8 85.7197C261.147 85.7197 259.801 87.0661 259.801 88.73C259.801 90.3829 261.147 91.7296 262.8 91.7296C264.464 91.7296 265.81 90.3829 265.81 88.73C265.81 87.0661 264.464 85.7197 262.8 85.7197ZM262.8 86.8473C263.84 86.8473 264.683 87.6901 264.683 88.73C264.683 89.7699 263.84 90.6129 262.8 90.6129C261.76 90.6129 260.917 89.7699 260.917 88.73C260.917 87.6901 261.76 86.8473 262.8 86.8473Z" fill="#FE9900"/>
<path fill-rule="evenodd" clip-rule="evenodd" d="M42.5206 159.465H99.633C99.9428 159.465 100.199 159.209 100.199 158.899C100.199 158.589 99.9428 158.347 99.633 158.347H42.5206C42.2108 158.347 41.9551 158.589 41.9551 158.899C41.9551 159.209 42.2108 159.465 42.5206 159.465Z" fill="white"/>
<path fill-rule="evenodd" clip-rule="evenodd" d="M42.5308 172.906H129.923C130.232 172.906 130.479 172.65 130.479 172.34C130.479 172.031 130.232 171.788 129.923 171.788H42.5308C42.2217 171.788 41.9746 172.031 41.9746 172.34C41.9746 172.65 42.2217 172.906 42.5308 172.906Z" fill="white"/>
<path fill-rule="evenodd" clip-rule="evenodd" d="M31.7432 219.621H81.7183C82.0281 219.621 82.2838 219.379 82.2838 219.069C82.2838 218.76 82.0281 218.504 81.7183 218.504H31.7432C31.4335 218.504 31.1777 218.76 31.1777 219.069C31.1777 219.379 31.4335 219.621 31.7432 219.621Z" fill="white"/>
<path fill-rule="evenodd" clip-rule="evenodd" d="M31.7509 209.882H59.1609C59.4711 209.882 59.722 209.64 59.722 209.33C59.722 209.02 59.4711 208.765 59.1609 208.765H31.7509C31.4407 208.765 31.1895 209.02 31.1895 209.33C31.1895 209.64 31.4407 209.882 31.7509 209.882Z" fill="white"/>
<path fill-rule="evenodd" clip-rule="evenodd" d="M132.081 209.822L140.42 218.161C140.636 218.376 140.996 218.376 141.216 218.156C141.432 217.941 141.432 217.58 141.216 217.365L132.877 209.026C132.657 208.806 132.301 208.81 132.086 209.026C131.866 209.246 131.861 209.602 132.081 209.822Z" fill="white"/>
<path fill-rule="evenodd" clip-rule="evenodd" d="M140.417 209.019L132.078 217.358C131.862 217.573 131.862 217.934 132.082 218.154C132.298 218.369 132.658 218.369 132.874 218.154L141.213 209.815C141.433 209.595 141.428 209.239 141.213 209.023C140.993 208.803 140.637 208.799 140.417 209.019Z" fill="white"/>
<path fill-rule="evenodd" clip-rule="evenodd" d="M223.636 33.5367C224.522 30.2326 227.903 28.2801 231.187 29.1601C234.472 30.04 236.444 33.4272 235.559 36.7312C234.817 39.4979 232.303 41.3198 229.559 41.2886C228.28 41.2871 227.155 42.138 226.824 43.372C226.318 45.2629 225.614 47.8901 225.614 47.8901C225.534 48.1887 225.709 48.4919 226.008 48.5719C226.306 48.6519 226.609 48.4768 226.689 48.1782C226.689 48.1782 227.392 45.5509 227.919 43.6654C228.116 42.9289 228.79 42.4054 229.555 42.4183C232.794 42.4328 235.758 40.2834 236.633 37.0192C237.678 33.118 235.357 29.1251 231.475 28.0852C227.594 27.0452 223.587 29.3422 222.542 33.2434C222.462 33.5419 222.656 33.8498 222.954 33.9298C223.253 34.0098 223.556 33.8353 223.636 33.5367Z" fill="#2969FF"/>
<path fill-rule="evenodd" clip-rule="evenodd" d="M190.567 28.3206C189.951 26.0218 191.322 23.668 193.606 23.0559C195.905 22.4399 198.255 23.7968 198.871 26.0956C199.359 27.9202 198.583 29.7912 197.095 30.7904C196.089 31.4603 195.633 32.6913 195.941 33.8407C196.273 35.1376 196.682 36.6604 196.682 36.6604C196.763 36.9621 197.072 37.141 197.374 37.0601C197.676 36.9793 197.854 36.6696 197.773 36.3679C197.773 36.3679 197.369 34.8594 197.019 33.5519C196.834 32.8623 197.114 32.1251 197.714 31.7182C199.598 30.4742 200.564 28.1056 199.948 25.8068C199.174 22.919 196.201 21.1902 193.313 21.964C190.426 22.7378 188.715 25.7215 189.489 28.6093C189.566 28.8967 189.875 29.0755 190.177 28.9946C190.479 28.9138 190.644 28.6079 190.567 28.3206Z" fill="#2969FF"/>
<path d="M224.356 54.6252C225.276 54.8715 226.221 54.3257 226.467 53.4063C226.714 52.487 226.168 51.5419 225.248 51.2956C224.329 51.0492 223.384 51.5949 223.138 52.5142C222.892 53.4336 223.437 54.3788 224.356 54.6252Z" fill="#2969FF"/>
<path d="M198.484 41.2885C199.148 41.1107 199.542 40.4283 199.364 39.7647C199.186 39.1011 198.504 38.7073 197.84 38.8851C197.176 39.0629 196.783 39.745 196.961 40.4086C197.138 41.0723 197.82 41.4663 198.484 41.2885Z" fill="#2969FF"/>
<path fill-rule="evenodd" clip-rule="evenodd" d="M26.7163 147.489C28.7359 151.149 25.3213 157.011 19.0471 160.633C12.7683 164.259 5.98853 164.282 3.82438 160.706C3.81529 160.69 3.80852 160.678 3.79942 160.662C3.7926 160.651 3.78578 160.639 3.77669 160.623C1.7617 156.961 5.16945 151.097 11.4483 147.472C17.7224 143.85 24.5091 143.828 26.6686 147.406L26.6732 147.404C26.6823 147.42 26.6891 147.431 26.6959 147.443C26.705 147.459 26.7118 147.471 26.7209 147.486L26.7163 147.489Z" fill="white"/>
<path fill-rule="evenodd" clip-rule="evenodd" d="M30.0996 103.019C30.0675 102.985 30.0378 102.945 30.0197 102.902C29.1337 101.303 29.1736 99.3163 30.0088 97.2535C31.2006 94.3337 34.0088 91.2422 37.901 88.995C41.7885 86.7505 45.8745 85.8617 48.9944 86.2921C51.1984 86.6002 52.9391 87.559 53.8858 89.1234L53.4325 89.9208L53.4347 89.9247L53.4064 89.9726L53.4018 89.9753L53.4325 89.9208C53.4028 89.6649 53.3206 89.1243 53.2222 89.0183C53.1929 88.946 53.1585 88.908 53.1259 88.9268C52.8322 89.0964 52.8898 89.3467 53.0264 89.5619C53.0921 89.6972 53.1997 89.8189 53.289 89.9091L53.4018 89.9753C53.3858 89.9583 53.1653 89.781 53.0264 89.5619C52.9266 89.3675 52.9104 89.1563 53.1714 89.0056C53.1854 88.9975 53.2062 89.0013 53.2222 89.0183C53.326 89.2735 53.3999 89.9397 53.4018 89.9753L53.4064 89.9726L53.439 89.9643L53.4347 89.9247L53.8904 89.1314L53.9381 89.214C53.9449 89.2258 53.9517 89.2376 53.9608 89.2534C54.8214 90.8516 54.7794 92.8242 53.949 94.8737C52.7618 97.7908 49.949 100.885 46.0615 103.129C42.1693 105.377 38.0878 106.263 34.9633 105.835C32.7732 105.529 31.044 104.58 30.0948 103.032C30.081 103.019 30.0741 103.008 30.0673 102.996L30.0196 102.913C30.0424 102.953 30.0675 102.985 30.0972 103.015L30.0996 103.019ZM52.9297 89.7174L52.9639 89.7765C53.0639 89.9498 53.2481 90.0535 53.4473 90.0541C53.2434 90.0562 53.0547 89.9445 52.957 89.7646C53.6862 91.0922 53.6059 92.7403 52.9089 94.4502C51.7955 97.1829 49.1403 100.055 45.4998 102.157C41.8546 104.261 38.0399 105.125 35.1166 104.723C33.2919 104.469 31.8199 103.717 31.0348 102.421L31.0075 102.374L31.0007 102.362C30.2692 101.031 30.3564 99.3842 31.0488 97.677C32.16 94.9403 34.8174 92.0723 38.4626 89.9677C42.1031 87.8659 45.9155 86.9985 48.8411 87.4046C50.6705 87.6559 52.1355 88.4063 52.9229 89.7055L52.9297 89.7174ZM30.5767 103.232L30.5555 103.271L30.5767 103.232ZM30.3257 102.238C30.2963 102.165 30.262 102.127 30.2294 102.146C29.9357 102.316 29.9932 102.566 30.1299 102.781C30.2138 102.948 30.365 103.102 30.459 103.19L30.4728 103.192L30.5053 103.195C30.4914 103.192 30.4798 103.194 30.4613 103.194L30.459 103.19C30.4335 103.189 30.4128 103.185 30.3919 103.181C30.4128 103.185 30.4405 103.19 30.4613 103.194L30.4751 103.207C30.4888 103.22 30.5072 103.23 30.5209 103.243L30.5555 103.271L30.549 103.227L30.5424 103.194L30.51 103.192L30.5053 103.195L30.51 103.192L30.5053 103.195L30.51 103.192C30.4893 103.178 30.2688 103 30.1299 102.781C30.0301 102.587 30.0185 102.373 30.2749 102.225C30.2888 102.217 30.3096 102.221 30.3257 102.238C30.4295 102.493 30.5034 103.159 30.51 103.192L30.536 103.14C30.5063 102.884 30.4241 102.344 30.3257 102.238ZM53.439 89.9643L53.4454 90.0077L53.4473 90.0541L53.4128 90.0266C53.3991 90.0135 53.3853 90.0005 53.3715 89.9874L53.3578 89.9744C53.3717 89.9769 53.3879 89.9728 53.4018 89.9753L53.439 89.9643Z" fill="#FE9900"/>
<path fill-rule="evenodd" clip-rule="evenodd" d="M44.2582 131.897L44.2529 131.896C44.2571 131.86 44.2613 131.823 44.2719 131.783L44.2473 131.876C44.2437 131.889 44.2403 131.902 44.2408 131.921C43.8179 133.686 44.369 135.581 45.7016 137.345C47.6085 139.857 51.1211 142.116 55.4623 143.28C59.7983 144.442 63.9752 144.242 66.8773 143.019C68.9137 142.157 70.3382 140.792 70.8546 139.052C70.8633 139.04 70.8681 139.023 70.8716 139.01L70.8963 138.917L70.3559 139.333L70.8987 138.909C71.3355 137.133 70.7826 135.224 69.442 133.448C67.5403 130.937 64.0225 128.677 59.6865 127.515C55.3453 126.352 51.1736 126.552 48.2662 127.774C46.2171 128.642 44.784 130.019 44.2796 131.776C44.2638 131.814 44.2583 131.855 44.2582 131.897ZM69.8015 138.657L69.785 138.718C69.7403 138.885 69.7759 139.064 69.884 139.202C69.9495 139.29 70.0377 139.356 70.1393 139.392C70.0377 139.356 69.9444 139.288 69.8788 139.2C69.7719 139.059 69.7427 138.877 69.7886 138.705C69.3654 140.16 68.1433 141.268 66.4413 141.984C63.7217 143.129 59.8135 143.283 55.7531 142.195C51.6874 141.105 48.3794 139.018 46.5966 136.667C45.4859 135.197 44.9768 133.625 45.3375 132.154L45.3504 132.105L45.3552 132.088C45.7795 130.629 47.0054 129.526 48.7023 128.809C51.4231 127.659 55.3302 127.51 59.3958 128.6C63.4563 129.688 66.7654 131.77 68.547 134.126C69.6628 135.597 70.1681 137.164 69.8062 138.639L69.8015 138.657ZM70.1965 139.408L70.2017 139.409L70.1862 139.405L70.1965 139.408ZM70.1653 139.399L70.1705 139.401L70.1393 139.392L70.1653 139.399ZM44.8503 132.536L44.7946 132.578L44.7934 132.582L44.8503 132.536Z" fill="white"/>
<path d="M45.6105 102.449C49.1557 100.403 50.3702 95.8695 48.3234 92.3243C46.2766 88.7792 41.7436 87.5645 38.1985 89.6113C34.6534 91.658 33.4385 96.1913 35.4853 99.7364C37.5321 103.282 42.0654 104.496 45.6105 102.449Z" fill="#FE9900"/>
<path fill-rule="evenodd" clip-rule="evenodd" d="M59.5082 128.145C55.4525 127.058 51.2681 129.474 50.1814 133.53C49.0946 137.585 51.5128 141.761 55.5685 142.848C59.6243 143.935 63.7979 141.525 64.8846 137.469C65.9714 133.414 63.564 129.232 59.5082 128.145ZM59.2157 129.236C62.6753 130.163 64.7282 133.719 63.8012 137.179C62.8742 140.639 59.3183 142.692 55.8588 141.765C52.3992 140.838 50.3375 137.279 51.2645 133.82C52.1914 130.36 55.7562 128.309 59.2157 129.236Z" fill="white"/>
<path fill-rule="evenodd" clip-rule="evenodd" d="M30.3659 76.6562L35.9725 86.3671C36.1291 86.6384 36.4654 86.7335 36.7334 86.5788C37.0015 86.424 37.0955 86.0804 36.9389 85.8091L31.3323 76.0983C31.1788 75.8324 30.8311 75.7366 30.5631 75.8914C30.295 76.0461 30.2124 76.3904 30.3659 76.6562Z" fill="#FE9900"/>
<path fill-rule="evenodd" clip-rule="evenodd" d="M45.3729 72.2068L43.6452 81.2292C43.5872 81.5316 43.7889 81.8276 44.0859 81.8886C44.3924 81.9432 44.6892 81.7451 44.7471 81.4427L46.4758 72.4153C46.5337 72.1128 46.3315 71.8169 46.025 71.7623C45.728 71.7013 45.4318 71.8994 45.3729 72.2068Z" fill="#FE9900"/>
<path fill-rule="evenodd" clip-rule="evenodd" d="M19.9031 88.4606L28.5854 91.4773C28.8762 91.5783 29.1962 91.4204 29.3022 91.1276C29.3978 90.84 29.2424 90.5173 28.9515 90.4163L20.274 87.4013C19.9783 87.2986 19.6587 87.4561 19.563 87.7438C19.457 88.0366 19.6122 88.3596 19.9031 88.4606Z" fill="#FE9900"/>
<path fill-rule="evenodd" clip-rule="evenodd" d="M147.106 131.465C138.918 130.711 132.508 123.816 132.508 115.44C132.508 106.552 139.726 99.334 148.614 99.334C157.502 99.334 164.72 106.552 164.72 115.44C164.72 122.82 159.738 129.041 152.964 130.94L156.182 159.571C156.277 160.446 155.644 161.24 154.768 161.334C153.933 161.429 152.924 161.537 152.089 161.631C151.213 161.725 150.432 161.106 150.324 160.23L147.106 131.465ZM148.614 104.236C154.795 104.236 159.818 109.259 159.818 115.44C159.818 121.621 154.795 126.631 148.614 126.631C142.433 126.631 137.423 121.621 137.423 115.44C137.423 109.259 142.433 104.236 148.614 104.236Z" fill="#2969FF"/>
<path fill-rule="evenodd" clip-rule="evenodd" d="M165.27 148.326C165.27 148.326 160.166 141.228 158.59 138.535C157.015 135.842 151.17 133.781 149.056 132.866C146.942 131.95 146.079 137.296 152.301 138.387L154.321 142.844L156.032 157.698L158.119 158.749L165.27 148.326Z" fill="#FFC8A3"/>
<path fill-rule="evenodd" clip-rule="evenodd" d="M146.942 135.758C146.942 135.758 145.214 136.22 144.813 137.408C144.425 138.581 145.163 141.082 145.163 141.082C145.163 141.082 143.383 143.118 145.257 146.037C145.257 146.037 144.213 148.707 145.731 151.01C145.731 151.01 144.974 152.287 146.177 153.836C147.38 155.386 151.664 155.91 152.638 154.343C153.128 153.525 152.631 151.868 152.631 151.868C152.631 151.868 153.689 149.765 152.979 148.142C152.979 148.142 153.956 144.91 152.049 143.347C152.049 143.347 152.677 141.001 151.682 139.499L149.497 136.732L146.942 135.758Z" fill="#FFC8A3"/>
<path fill-rule="evenodd" clip-rule="evenodd" d="M146.003 141.898L149.869 143.361C150.157 143.472 150.483 143.332 150.592 143.035C150.699 142.753 150.56 142.421 150.272 142.31L146.395 140.848C146.107 140.737 145.792 140.89 145.673 141.174C145.564 141.47 145.715 141.787 146.003 141.898Z" fill="#061533"/>
<path fill-rule="evenodd" clip-rule="evenodd" d="M146.438 146.346L150.089 147.727C150.381 147.844 150.705 147.697 150.813 147.401C150.921 147.118 150.773 146.793 150.492 146.676L146.83 145.296C146.547 145.192 146.224 145.339 146.117 145.621C145.997 145.918 146.145 146.243 146.438 146.346Z" fill="#061533"/>
<path fill-rule="evenodd" clip-rule="evenodd" d="M146.941 150.87L150.482 152.211C150.777 152.322 151.093 152.173 151.211 151.889C151.32 151.593 151.169 151.272 150.885 151.16L147.333 149.821C147.048 149.721 146.723 149.858 146.614 150.154C146.507 150.437 146.647 150.759 146.941 150.87Z" fill="#061533"/>
<path fill-rule="evenodd" clip-rule="evenodd" d="M154.807 143.99C154.807 143.99 155.668 146.845 159.426 148.703C159.708 148.838 160.045 148.73 160.18 148.447C160.315 148.165 160.207 147.828 159.924 147.693C156.665 146.091 155.884 143.653 155.884 143.653C155.79 143.357 155.48 143.195 155.184 143.29C154.887 143.384 154.713 143.694 154.807 143.99Z" fill="#061533"/>
<path fill-rule="evenodd" clip-rule="evenodd" d="M184.825 158.777C184.825 158.777 175.129 149.781 170.887 149.741C170.887 149.741 167.683 148.138 165.999 147.289C165.407 146.993 164.679 147.128 164.235 147.626C162.605 149.458 158.781 154.037 156.963 158.696C156.801 159.1 156.842 159.544 157.044 159.921C157.596 160.931 158.835 163.019 160.276 164.783C160.276 164.783 159.037 168.419 168.087 176.66C177.136 184.902 188.893 194.679 199.424 197.17L194.333 163.53L184.825 158.777Z" fill="#FE9900"/>
<path fill-rule="evenodd" clip-rule="evenodd" d="M162.879 163.126C164.931 159 167.436 155.339 170.341 152.089C170.541 151.857 170.524 151.505 170.297 151.3C170.07 151.096 169.712 151.108 169.499 151.34C166.523 154.663 163.973 158.41 161.876 162.636C161.744 162.908 161.857 163.243 162.128 163.39C162.412 163.522 162.746 163.413 162.879 163.126Z" fill="white"/>
<path fill-rule="evenodd" clip-rule="evenodd" d="M165.732 92.9218C165.732 92.9218 169.114 101.189 171.982 104.443C171.982 104.443 171.885 113.673 177.104 110.124C177.104 110.124 185.99 121.992 196.508 111.81L207.432 127.114L226.39 109.733L213.826 94.6009L195.128 77.2045L172.86 77.9163L165.732 92.9218Z" fill="#FFC8A3"/>
<path fill-rule="evenodd" clip-rule="evenodd" d="M196.381 84.5057C196.381 84.5057 193.927 86.9615 192.279 91.1767C192.161 91.4652 192.301 91.7916 192.586 91.9059C192.885 92.0165 193.209 91.8754 193.313 91.5879C194.878 87.6161 197.187 85.296 197.187 85.296C197.401 85.0776 197.396 84.7228 197.177 84.5041C196.958 84.2854 196.608 84.2848 196.381 84.5057Z" fill="#061533"/>
<path fill-rule="evenodd" clip-rule="evenodd" d="M197.642 88.8215C197.642 88.8215 195.495 88.2793 194.014 88.272C193.706 88.2705 193.456 88.5202 193.454 88.8307C193.451 89.1398 193.703 89.3923 194.011 89.3938C195.381 89.4009 197.368 89.9091 197.368 89.9091C197.674 89.9848 197.978 89.8026 198.052 89.5035C198.126 89.2031 197.948 88.8972 197.642 88.8215Z" fill="#061533"/>
<path d="M177.033 100.69C177.866 100.299 178.223 99.3067 177.831 98.4744C177.44 97.6422 176.448 97.2848 175.616 97.6762C174.784 98.0676 174.427 99.0594 174.818 99.8916C175.209 100.724 176.201 101.081 177.033 100.69Z" fill="#061533"/>
<path fill-rule="evenodd" clip-rule="evenodd" d="M188.739 85.0358C188.739 85.0358 195.697 109.849 194.899 110.757C194.054 111.711 184.747 86.2318 184.747 86.2318C183.74 86.6712 182.659 87.0725 181.423 87.4159L176.134 79.0617L178.459 88.6244C178.459 88.6244 171.886 92.6342 164.301 95.466C164.301 95.466 151.911 75.5249 168.548 61.2278C185.185 46.9308 219.531 45.7981 220.301 90.584L211.113 98.6095C211.113 98.6095 203.827 98.9488 197.636 93.8878C197.636 93.8878 199.383 93.0324 200.643 90.9707C201.562 89.4747 201.735 86.8235 199.875 84.2629C195.461 78.1533 188.739 85.0358 188.739 85.0358Z" fill="#061533"/>
<path fill-rule="evenodd" clip-rule="evenodd" d="M172.793 96.5173C172.862 95.8847 173.349 95.0898 174.084 94.446C175.24 93.4401 177.027 92.786 178.947 93.7241C179.221 93.8515 179.556 93.7461 179.7 93.4566C179.832 93.1857 179.708 92.843 179.433 92.7157C177.019 91.5362 174.79 92.3295 173.351 93.6076C172.366 94.4677 171.76 95.575 171.672 96.4123C171.648 96.7099 171.871 96.991 172.18 97.0158C172.49 97.0406 172.755 96.8197 172.793 96.5173Z" fill="#061533"/>
<path fill-rule="evenodd" clip-rule="evenodd" d="M200.216 91.5715C200.216 91.5715 198.948 93.8037 195.164 94.9801C194.858 95.0764 194.697 95.387 194.789 95.6789C194.881 95.9707 195.195 96.1463 195.487 96.0544C199.813 94.7073 201.197 92.1178 201.197 92.1178C201.34 91.8437 201.249 91.506 200.975 91.3632C200.71 91.2021 200.363 91.3113 200.216 91.5715Z" fill="#061533"/>
<path d="M216.174 100.872L199.396 118.481L205.555 124.349L222.332 106.739L216.174 100.872Z" fill="#FE9900"/>
<path fill-rule="evenodd" clip-rule="evenodd" d="M202.816 114.847C200.54 112.678 196.932 112.776 194.77 115.046C192.08 117.87 188.53 121.596 185.84 124.42C183.678 126.689 183.754 130.297 186.031 132.466C187.883 134.23 190.066 136.311 191.919 138.075C194.185 140.234 197.802 140.146 199.964 137.877C202.655 135.053 206.205 131.327 208.895 128.502C211.057 126.233 210.97 122.616 208.704 120.457C206.852 118.692 204.668 116.612 202.816 114.847Z" fill="#2969FF"/>
<path fill-rule="evenodd" clip-rule="evenodd" d="M222.063 91.2726C221.294 90.3857 219.966 90.2992 219.089 91.0595C217.046 92.8302 213.537 95.8714 211.505 97.6321C210.628 98.3924 210.525 99.7195 211.293 100.606C212.05 101.479 213.378 101.566 214.255 100.805C216.287 99.0447 219.796 96.0036 221.839 94.2329C222.716 93.4726 222.82 92.1457 222.063 91.2726Z" fill="#FE9900"/>
<path fill-rule="evenodd" clip-rule="evenodd" d="M182.525 110.98C183.865 110.538 185.23 110.334 186.63 110.43C186.941 110.454 187.204 110.227 187.228 109.916C187.252 109.604 187.025 109.341 186.714 109.317C185.17 109.209 183.662 109.425 182.178 109.916C181.879 110.011 181.723 110.334 181.819 110.621C181.915 110.921 182.238 111.076 182.525 110.98Z" fill="#061533"/>
<path fill-rule="evenodd" clip-rule="evenodd" d="M213.69 100.928C213.69 100.928 210.091 115.11 223.898 128.901L241.18 115.529L238.707 111.286L242.886 113.531L249.235 108.861C249.235 108.861 240.588 91.7481 221.69 93.8884L213.69 100.928Z" fill="#061533"/>
<path fill-rule="evenodd" clip-rule="evenodd" d="M195.389 134.967C195.389 134.967 194.339 123.938 190.016 116.531C190.016 116.531 182.475 115.211 173.331 119.305C173.331 119.305 169.668 125.271 176.078 129.324C176.078 129.324 177.883 132.179 181.667 133.782L182.73 138.118L190.016 143.289L195.389 134.967Z" fill="#FFC8A3"/>
<path fill-rule="evenodd" clip-rule="evenodd" d="M177.386 128.597C177.008 127.668 176.645 126.443 176.483 124.948C176.456 124.638 176.174 124.41 175.864 124.45C175.555 124.477 175.339 124.759 175.366 125.069C175.541 126.685 175.945 128.018 176.349 129.015C176.456 129.311 176.793 129.446 177.076 129.325C177.359 129.217 177.507 128.88 177.386 128.597Z" fill="#061533"/>
<path fill-rule="evenodd" clip-rule="evenodd" d="M207.037 151.019C209.097 156.271 211.306 162.587 211.306 162.587L219.911 135.68C219.911 135.68 226.241 126.173 237.27 130.415C248.299 134.657 249.323 149.875 245.013 158.991C240.704 168.108 227.951 203.243 214.269 206.96C200.6 210.677 195.658 199.607 191.133 185.938C191.133 185.938 176.024 151.76 182.272 146.952C182.272 146.952 181.316 142.899 181.303 139.505C181.316 138.711 181.814 138.024 182.568 137.768C185.221 136.879 191.618 134.751 194.958 133.889C195.685 133.728 196.426 134.024 196.83 134.644C197.894 136.246 199.873 139.33 200.654 141.148C200.654 141.148 202.445 141.148 204.586 145.296C205.246 146.575 206.135 148.69 207.037 151.019Z" fill="#FE9900"/>
<path fill-rule="evenodd" clip-rule="evenodd" d="M206.851 152.071C208.804 157.121 210.77 162.777 210.77 162.777C210.851 163.006 211.067 163.154 211.309 163.154C211.551 163.14 211.767 162.992 211.834 162.763L220.426 135.938C220.978 135.143 226.97 127.05 237.07 130.942C242.39 132.988 245.285 137.702 246.349 142.981C247.413 148.34 246.619 154.293 244.504 158.75C241.932 164.218 236.317 179.031 229.287 190.815C226.499 195.488 223.483 199.676 220.359 202.598C218.325 204.497 216.238 205.843 214.123 206.422C213.827 206.503 213.652 206.813 213.733 207.109C213.814 207.406 214.123 207.58 214.42 207.5C218.621 206.368 222.769 202.356 226.594 197.009C235.32 184.809 242.498 165.632 245.528 159.235C247.723 154.576 248.557 148.354 247.44 142.765C246.309 137.109 243.171 132.086 237.474 129.891C226.014 125.474 219.456 135.372 219.456 135.372C219.416 135.426 219.402 135.466 219.389 135.52L211.282 160.824C210.554 158.79 209.222 155.087 207.902 151.667C207.781 151.37 207.457 151.236 207.174 151.344C206.878 151.451 206.744 151.774 206.851 152.071Z" fill="white"/>
<path fill-rule="evenodd" clip-rule="evenodd" d="M191.647 185.71C191.647 185.71 185.695 172.243 182.827 161.053C182.746 160.756 182.436 160.568 182.14 160.649C181.843 160.729 181.655 161.025 181.736 161.335C184.631 172.593 190.624 186.154 190.624 186.154C190.745 186.451 191.081 186.572 191.364 186.451C191.647 186.316 191.768 185.993 191.647 185.71Z" fill="white"/>
<path fill-rule="evenodd" clip-rule="evenodd" d="M210.906 162.655C210.906 162.655 217.114 176.471 216.548 184.457C216.522 184.767 216.764 185.036 217.073 185.063C217.383 185.076 217.639 184.848 217.666 184.538C218.245 176.35 211.929 162.197 211.929 162.197C211.795 161.914 211.471 161.779 211.189 161.914C210.906 162.035 210.771 162.372 210.906 162.655Z" fill="white"/>
<path fill-rule="evenodd" clip-rule="evenodd" d="M185.282 146.604C189.3 144.977 193.399 143.552 197.578 142.423C197.882 142.339 198.05 142.027 197.97 141.73C197.889 141.434 197.587 141.261 197.283 141.345C193.062 142.488 188.922 143.927 184.863 145.568C184.572 145.678 184.445 146.003 184.553 146.3C184.675 146.582 184.991 146.715 185.282 146.604Z" fill="white"/>
<path fill-rule="evenodd" clip-rule="evenodd" d="M99.0586 255.256H306.123C306.431 255.256 306.688 255.012 306.688 254.704C306.688 254.396 306.431 254.14 306.123 254.14H99.0586C98.7506 254.14 98.4941 254.396 98.4941 254.704C98.4941 255.012 98.7506 255.256 99.0586 255.256Z" fill="#FE9900"/>
<path fill-rule="evenodd" clip-rule="evenodd" d="M295.001 35.6554L311.56 19.1501C311.771 18.9397 312.115 18.9392 312.326 19.1497C312.537 19.3603 312.537 19.7028 312.326 19.9132L295.766 36.4185C295.555 36.6289 295.212 36.6294 295 36.4189C294.789 36.2083 294.79 35.8658 295.001 35.6554Z" fill="#FF3D3D"/>
<path fill-rule="evenodd" clip-rule="evenodd" d="M287.866 28.3323L291.143 16.1485C291.22 15.8615 291.517 15.6901 291.804 15.767C292.092 15.8438 292.263 16.14 292.186 16.427L288.909 28.6108C288.832 28.8978 288.535 29.0692 288.247 28.9923C287.959 28.9155 287.789 28.6194 287.866 28.3323Z" fill="#FF3D3D"/>
<path fill-rule="evenodd" clip-rule="evenodd" d="M302.834 42.4815L316.042 38.9558C316.33 38.879 316.627 39.0505 316.705 39.3387C316.782 39.627 316.611 39.9235 316.323 40.0003L303.115 43.5259C302.827 43.603 302.53 43.4314 302.453 43.1432C302.375 42.8549 302.546 42.5585 302.834 42.4815Z" fill="#FF3D3D"/>
<path fill-rule="evenodd" clip-rule="evenodd" d="M173.369 47.3065C172.265 47.423 171.174 47.5136 170.096 47.5654C169.797 47.5784 169.537 47.3453 169.524 47.0475C169.511 46.7627 169.745 46.5039 170.043 46.4909C171.096 46.4391 172.161 46.3485 173.239 46.232C173.538 46.1931 173.81 46.4132 173.836 46.698C173.875 46.9958 173.655 47.2676 173.369 47.3065ZM163.522 47.4359C162.431 47.3324 161.34 47.2029 160.275 47.0346C159.976 46.9828 159.768 46.7111 159.82 46.4133C159.872 46.1155 160.145 45.9213 160.444 45.9601C161.483 46.1284 162.548 46.2579 163.626 46.3614C163.925 46.3873 164.146 46.6463 164.12 46.9441C164.094 47.2419 163.821 47.4618 163.522 47.4359ZM182.982 45.248C181.917 45.5846 180.864 45.8693 179.812 46.1283C179.526 46.206 179.24 46.0247 179.162 45.7398C179.084 45.455 179.266 45.1572 179.552 45.0925C180.578 44.8335 181.618 44.5488 182.657 44.2251C182.943 44.1344 183.241 44.2897 183.332 44.5746C183.423 44.8594 183.268 45.1574 182.982 45.248ZM153.871 45.5456C152.818 45.2219 151.779 44.8596 150.766 44.4711C150.493 44.3676 150.35 44.0568 150.467 43.7719C150.571 43.5 150.883 43.3575 151.156 43.4611C152.156 43.8495 153.169 44.1991 154.195 44.5098C154.481 44.6005 154.637 44.8984 154.546 45.1833C154.468 45.4681 154.156 45.6363 153.871 45.5456ZM192.062 41.519C191.074 42.0239 190.087 42.4901 189.1 42.9303C188.827 43.0468 188.515 42.9304 188.385 42.6585C188.268 42.3866 188.386 42.0629 188.658 41.9463C189.62 41.5191 190.594 41.0529 191.555 40.5479C191.828 40.4184 192.153 40.5221 192.296 40.794C192.425 41.0529 192.321 41.3765 192.062 41.519ZM144.83 41.6874C143.868 41.1436 142.933 40.5867 142.024 39.9782C141.777 39.8228 141.699 39.4862 141.868 39.2402C142.037 38.9942 142.375 38.9164 142.621 39.0847C143.505 39.6674 144.414 40.2242 145.362 40.7421C145.622 40.8845 145.713 41.2211 145.57 41.48C145.414 41.739 145.089 41.8298 144.83 41.6874ZM200.428 36.4047C199.518 37.052 198.622 37.6605 197.726 38.2431C197.466 38.3985 197.128 38.3339 196.972 38.0879C196.803 37.8289 196.881 37.4922 197.128 37.3368C198.024 36.7671 198.907 36.1586 199.791 35.5241C200.038 35.3558 200.375 35.4076 200.544 35.6536C200.726 35.8996 200.661 36.2363 200.428 36.4047ZM136.814 35.9904C135.996 35.2524 135.204 34.5013 134.45 33.7115C134.242 33.5043 134.256 33.1549 134.463 32.9477C134.684 32.7406 135.022 32.7534 135.23 32.9735C135.97 33.7375 136.737 34.4754 137.542 35.1875C137.763 35.3818 137.776 35.7314 137.581 35.9515C137.386 36.1716 137.035 36.1847 136.814 35.9904ZM208.572 31.2514C207.65 31.7305 206.715 32.2486 205.779 32.8183C205.52 32.9736 205.182 32.883 205.026 32.6241C204.883 32.3781 204.961 32.0413 205.221 31.8859C206.182 31.3162 207.13 30.7855 208.079 30.2935C208.338 30.1511 208.676 30.2545 208.806 30.5264C208.949 30.7853 208.845 31.109 208.572 31.2514ZM254.532 32.6756C254.532 32.6756 253.557 32.0025 251.777 31.0832C251.518 30.9538 251.414 30.6301 251.557 30.3582C251.687 30.0993 252.012 29.9956 252.284 30.1251C254.129 31.0961 255.142 31.7954 255.142 31.7954C255.389 31.9637 255.454 32.3002 255.285 32.5462C255.116 32.7792 254.779 32.844 254.532 32.6756ZM217.497 27.6521C216.496 27.937 215.47 28.2735 214.444 28.649C214.171 28.7526 213.859 28.6101 213.755 28.3382C213.651 28.0533 213.795 27.7428 214.067 27.6392C215.12 27.2508 216.159 26.9141 217.185 26.6163C217.484 26.5257 217.782 26.6938 217.86 26.9787C217.951 27.2635 217.782 27.5615 217.497 27.6521ZM245.893 28.5456C244.945 28.2089 243.919 27.8852 242.841 27.5874C242.542 27.4967 242.373 27.1988 242.464 26.914C242.541 26.6291 242.84 26.461 243.126 26.5387C244.23 26.8494 245.282 27.186 246.257 27.5355C246.542 27.6391 246.685 27.937 246.581 28.2219C246.49 28.5067 246.179 28.6491 245.893 28.5456ZM226.953 25.9429C225.901 26.0076 224.836 26.1244 223.758 26.2797C223.459 26.3315 223.186 26.1244 223.147 25.8266C223.108 25.5288 223.316 25.2567 223.602 25.2179C224.719 25.0495 225.797 24.9331 226.875 24.8684C227.174 24.8425 227.434 25.0624 227.447 25.3602C227.473 25.658 227.252 25.917 226.953 25.9429ZM236.553 26.2666C235.527 26.1241 234.462 26.0077 233.358 25.93C233.059 25.917 232.838 25.658 232.864 25.3602C232.877 25.0624 233.137 24.8296 233.435 24.8555C234.566 24.9332 235.644 25.0496 236.709 25.1921C236.995 25.2439 237.202 25.5156 237.163 25.8134C237.124 26.0983 236.852 26.3054 236.553 26.2666Z" fill="#2969FF"/>
<path fill-rule="evenodd" clip-rule="evenodd" d="M245.889 221.101C244.811 221.114 243.719 221.088 242.615 221.05C242.316 221.05 242.083 220.79 242.096 220.493C242.109 220.195 242.356 219.962 242.654 219.975C243.745 220.014 244.824 220.027 245.876 220.027C246.175 220.027 246.421 220.273 246.421 220.571C246.421 220.868 246.188 221.101 245.889 221.101ZM255.67 220.467C254.605 220.596 253.527 220.726 252.423 220.816C252.124 220.842 251.852 220.622 251.826 220.324C251.8 220.027 252.02 219.768 252.319 219.742C253.41 219.651 254.489 219.535 255.528 219.392C255.827 219.353 256.099 219.561 256.138 219.858C256.177 220.156 255.969 220.428 255.67 220.467ZM236.107 220.583C235.042 220.48 233.964 220.337 232.86 220.195C232.561 220.143 232.353 219.871 232.405 219.573C232.444 219.289 232.717 219.081 233.016 219.12C234.094 219.276 235.159 219.405 236.211 219.522C236.51 219.547 236.731 219.819 236.692 220.104C236.666 220.402 236.393 220.622 236.107 220.583ZM265.283 218.499C264.257 218.784 263.192 219.056 262.114 219.314C261.815 219.379 261.529 219.198 261.464 218.9C261.399 218.615 261.581 218.318 261.867 218.253C262.932 218.007 263.971 217.748 264.985 217.463C265.27 217.385 265.569 217.554 265.66 217.838C265.738 218.123 265.569 218.421 265.283 218.499ZM226.43 219.082C225.378 218.874 224.312 218.641 223.247 218.382C222.948 218.318 222.767 218.033 222.832 217.735C222.91 217.45 223.195 217.269 223.494 217.334C224.559 217.58 225.611 217.813 226.65 218.02C226.936 218.084 227.131 218.369 227.066 218.654C227.014 218.952 226.716 219.146 226.43 219.082ZM216.934 216.79C215.895 216.518 214.842 216.233 213.79 215.948C213.504 215.87 213.336 215.573 213.414 215.288C213.492 215.003 213.79 214.835 214.076 214.912C215.128 215.197 216.181 215.482 217.207 215.754C217.493 215.832 217.674 216.116 217.596 216.414C217.518 216.699 217.22 216.867 216.934 216.79ZM274.493 215.119C273.519 215.56 272.519 215.987 271.48 216.401C271.207 216.518 270.895 216.376 270.778 216.104C270.674 215.832 270.804 215.508 271.077 215.404C272.103 214.99 273.09 214.576 274.039 214.135C274.312 214.006 274.636 214.122 274.753 214.394C274.883 214.666 274.766 214.99 274.493 215.119ZM207.529 214.2C206.503 213.915 205.451 213.605 204.411 213.307C204.126 213.229 203.956 212.931 204.034 212.634C204.125 212.349 204.424 212.193 204.71 212.271C205.762 212.569 206.802 212.867 207.828 213.164C208.114 213.242 208.282 213.54 208.204 213.838C208.114 214.123 207.815 214.291 207.529 214.2ZM283.041 210.29C282.158 210.886 281.248 211.468 280.274 212.051C280.027 212.206 279.69 212.129 279.534 211.87C279.378 211.611 279.469 211.287 279.715 211.132C280.664 210.562 281.573 209.979 282.43 209.397C282.677 209.228 283.015 209.293 283.184 209.539C283.339 209.785 283.288 210.122 283.041 210.29ZM198.176 211.481C197.137 211.183 196.098 210.873 195.058 210.562C194.773 210.484 194.604 210.187 194.695 209.902C194.773 209.604 195.084 209.448 195.37 209.526C196.409 209.837 197.449 210.148 198.475 210.445C198.761 210.536 198.929 210.834 198.838 211.119C198.76 211.404 198.462 211.572 198.176 211.481ZM60.766 207.972C60.1814 208.84 59.6356 209.759 59.129 210.717C58.9861 210.976 58.6615 211.067 58.3887 210.937C58.1289 210.795 58.025 210.458 58.1679 210.199C58.7005 209.215 59.2591 208.283 59.8567 207.377C60.0125 207.131 60.3504 207.053 60.6102 207.221C60.857 207.39 60.9218 207.726 60.766 207.972ZM188.836 208.723C187.797 208.413 186.757 208.102 185.718 207.791C185.432 207.713 185.264 207.416 185.355 207.131C185.433 206.833 185.745 206.678 186.03 206.755C187.07 207.066 188.109 207.377 189.135 207.688C189.421 207.765 189.59 208.076 189.499 208.361C189.421 208.646 189.122 208.801 188.836 208.723ZM290.64 204.075C289.9 204.8 289.094 205.538 288.224 206.289C288.003 206.496 287.653 206.47 287.458 206.237C287.263 206.017 287.289 205.681 287.509 205.487C288.367 204.736 289.159 204.01 289.874 203.311C290.094 203.104 290.432 203.104 290.64 203.311C290.848 203.531 290.848 203.868 290.64 204.075ZM179.496 205.953C178.457 205.655 177.418 205.357 176.379 205.046C176.093 204.969 175.924 204.671 176.015 204.386C176.093 204.088 176.392 203.933 176.677 204.01C177.717 204.321 178.756 204.619 179.795 204.93C180.081 205.007 180.25 205.305 180.159 205.59C180.081 205.875 179.782 206.043 179.496 205.953ZM170.143 203.259C169.104 202.962 168.065 202.664 167.012 202.379C166.727 202.289 166.558 201.991 166.636 201.706C166.727 201.421 167.025 201.252 167.311 201.33C168.35 201.628 169.39 201.926 170.442 202.211C170.728 202.301 170.884 202.599 170.806 202.884C170.728 203.169 170.429 203.337 170.143 203.259ZM67.0794 200.825C66.261 201.512 65.4946 202.237 64.7412 203C64.5333 203.208 64.1953 203.221 63.9744 203.013C63.7666 202.806 63.7539 202.457 63.9617 202.25C64.7412 201.46 65.5333 200.709 66.3776 199.997C66.5984 199.803 66.9363 199.828 67.1311 200.061C67.326 200.295 67.3002 200.631 67.0794 200.825ZM160.764 200.657C159.712 200.372 158.673 200.1 157.621 199.815C157.335 199.738 157.166 199.453 157.244 199.155C157.322 198.87 157.608 198.702 157.907 198.78C158.946 199.051 159.998 199.336 161.037 199.608C161.336 199.686 161.505 199.984 161.427 200.269C161.349 200.566 161.05 200.735 160.764 200.657ZM296.927 196.501C296.927 196.501 296.317 197.55 295.018 199.207C294.836 199.44 294.498 199.492 294.264 199.297C294.018 199.116 293.978 198.779 294.16 198.546C295.407 196.954 295.992 195.957 295.992 195.957C296.135 195.698 296.473 195.62 296.732 195.763C296.992 195.918 297.07 196.242 296.927 196.501ZM151.347 198.21C150.294 197.938 149.242 197.679 148.19 197.433C147.904 197.355 147.722 197.07 147.8 196.786C147.865 196.488 148.164 196.307 148.45 196.384C149.502 196.643 150.554 196.889 151.606 197.161C151.892 197.226 152.074 197.524 151.996 197.809C151.931 198.106 151.632 198.275 151.347 198.21ZM75.146 195.685C74.1717 196.151 73.2236 196.643 72.3013 197.161C72.0415 197.317 71.7169 197.226 71.561 196.967C71.4181 196.708 71.5087 196.384 71.7685 196.229C72.7038 195.685 73.6784 195.18 74.6786 194.714C74.9514 194.585 75.2759 194.701 75.4058 194.973C75.5227 195.245 75.4188 195.569 75.146 195.685ZM141.876 195.957C140.824 195.724 139.759 195.491 138.707 195.271C138.421 195.206 138.226 194.921 138.291 194.636C138.356 194.339 138.642 194.157 138.941 194.222C139.993 194.442 141.058 194.675 142.11 194.908C142.409 194.973 142.591 195.258 142.526 195.556C142.461 195.84 142.175 196.022 141.876 195.957ZM132.355 193.989C131.29 193.795 130.225 193.601 129.172 193.406C128.874 193.355 128.678 193.083 128.73 192.785C128.782 192.487 129.068 192.293 129.354 192.345C130.419 192.539 131.484 192.733 132.563 192.927C132.848 192.992 133.043 193.264 132.991 193.562C132.939 193.859 132.654 194.054 132.355 193.989ZM84.2391 192.565C83.1739 192.824 82.1479 193.096 81.1347 193.406C80.8489 193.497 80.5372 193.329 80.4593 193.044C80.3683 192.759 80.5241 192.461 80.8099 192.371C81.8491 192.06 82.9011 191.775 83.9793 191.516C84.2651 191.451 84.5639 191.633 84.6288 191.917C84.7068 192.202 84.5249 192.5 84.2391 192.565ZM122.768 192.383C121.703 192.228 120.625 192.073 119.56 191.943C119.274 191.904 119.066 191.633 119.092 191.335C119.131 191.037 119.404 190.83 119.702 190.869C120.767 191.011 121.846 191.154 122.924 191.309C123.223 191.361 123.431 191.633 123.392 191.917C123.34 192.215 123.067 192.422 122.768 192.383ZM93.7742 191.05C92.683 191.154 91.6174 191.27 90.5652 191.412C90.2664 191.451 89.9938 191.244 89.9548 190.946C89.9158 190.648 90.1239 190.377 90.4226 190.338C91.4878 190.195 92.579 190.079 93.6702 189.975C93.9689 189.949 94.2288 190.17 94.2547 190.467C94.2807 190.765 94.06 191.024 93.7742 191.05ZM113.13 191.231C112.051 191.14 110.973 191.05 109.908 190.985C109.609 190.959 109.375 190.7 109.401 190.415C109.427 190.118 109.674 189.885 109.973 189.91C111.051 189.975 112.142 190.066 113.233 190.157C113.519 190.182 113.74 190.454 113.714 190.752C113.688 191.037 113.428 191.257 113.13 191.231ZM103.439 190.713C102.361 190.7 101.282 190.7 100.217 190.726C99.9182 190.726 99.6713 190.493 99.6583 190.195C99.6583 189.897 99.8924 189.652 100.191 189.639C101.269 189.626 102.36 189.626 103.465 189.639C103.763 189.639 103.997 189.885 103.997 190.182C103.984 190.48 103.737 190.726 103.439 190.713Z" fill="#2969FF"/>
<path fill-rule="evenodd" clip-rule="evenodd" d="M74.7015 124.718C74.921 123.902 75.4525 123.21 76.1814 122.791C76.9102 122.371 77.7795 122.258 78.5918 122.475C85.611 124.346 102.785 128.926 109.804 130.797C110.621 131.015 111.312 131.544 111.733 132.27C112.153 132.996 112.27 133.861 112.051 134.677C110.759 139.475 108.273 148.707 106.981 153.505C106.763 154.316 106.227 155.006 105.497 155.431C104.768 155.85 103.903 155.964 103.086 155.747C96.0669 153.875 78.8932 149.296 71.874 147.424C71.0617 147.207 70.3655 146.677 69.9452 145.951C69.5261 145.22 69.4135 144.356 69.6317 143.546L74.7015 124.718Z" fill="#FE9900"/>
<path fill-rule="evenodd" clip-rule="evenodd" d="M111.994 132.56L92.8525 140.293C91.3019 140.918 89.5215 140.444 88.4876 139.128C84.8605 134.493 75.8557 122.982 75.8557 122.982C75.6702 122.747 75.7157 122.407 75.9499 122.224C76.1855 122.036 76.5265 122.08 76.712 122.314C76.712 122.314 85.7168 133.826 89.3424 138.466C90.0736 139.402 91.3415 139.74 92.4448 139.294C97.9352 137.072 111.587 131.556 111.587 131.556C111.866 131.445 112.183 131.577 112.294 131.852C112.404 132.132 112.274 132.444 111.994 132.56Z" fill="white"/>
<path fill-rule="evenodd" clip-rule="evenodd" d="M258.079 191.895C259.937 191.895 261.443 193.397 261.443 195.235C261.443 197.087 259.937 198.588 258.079 198.588C256.222 198.588 254.714 197.087 254.714 195.235C254.714 193.397 256.222 191.895 258.079 191.895ZM258.079 192.969C256.819 192.969 255.793 193.992 255.793 195.235C255.793 196.491 256.819 197.514 258.079 197.514C259.339 197.514 260.352 196.491 260.352 195.235C260.352 193.992 259.339 192.969 258.079 192.969Z" fill="#FF3D3D"/>
<path fill-rule="evenodd" clip-rule="evenodd" d="M105.589 98.8916C107.024 98.8916 108.193 100.056 108.193 101.487C108.193 102.917 107.024 104.082 105.589 104.082C104.154 104.082 103 102.917 103 101.487C103 100.056 104.154 98.8916 105.589 98.8916ZM105.589 99.9682C104.761 99.9682 104.08 100.646 104.08 101.487C104.08 102.327 104.761 103.006 105.589 103.006C106.433 103.006 107.113 102.327 107.113 101.487C107.113 100.646 106.433 99.9682 105.589 99.9682Z" fill="#FF3D3D"/>
<path fill-rule="evenodd" clip-rule="evenodd" d="M124.711 72.5147L108.707 65.1216C108.434 64.9921 108.317 64.6814 108.447 64.4095C108.577 64.1376 108.889 64.0211 109.161 64.1506L125.166 71.5307C125.438 71.6602 125.555 71.9838 125.425 72.2557C125.296 72.5276 124.971 72.6441 124.711 72.5147Z" fill="#2969FF"/>
<path fill-rule="evenodd" clip-rule="evenodd" d="M316.974 161.495C317.166 161.394 317.392 161.405 317.561 161.54C317.742 161.664 317.809 161.889 317.764 162.091L310.057 193.932C310.012 194.101 309.899 194.236 309.741 194.304C309.583 194.371 309.414 194.36 309.256 194.281L295.523 186.363L282.264 181.448C282.072 181.369 281.936 181.189 281.914 180.975C281.902 180.773 282.015 180.57 282.196 180.469L316.974 161.495ZM316.421 163.025L283.753 180.852C286.946 182.033 295.952 185.373 295.952 185.373C295.974 185.385 296.008 185.396 296.03 185.407L309.177 192.976L316.421 163.025Z" fill="#2969FF"/>
<path fill-rule="evenodd" clip-rule="evenodd" d="M115.455 0.832881C115.408 0.624719 115.484 0.407022 115.655 0.284017C115.826 0.151551 116.053 0.132627 116.243 0.236708L145.501 16.199C145.69 16.3031 145.795 16.5018 145.785 16.71C145.766 16.9182 145.634 17.1073 145.434 17.1735L134.28 21.3179L122.736 27.9601C122.594 28.0452 122.414 28.0642 122.252 27.9885C122.101 27.9223 121.977 27.7898 121.939 27.6195L115.455 0.832881ZM116.794 1.76965L122.822 26.6733L133.777 20.3623C133.805 20.3433 133.834 20.3339 133.862 20.315L143.944 16.5775C139.416 14.108 121.398 4.27705 116.794 1.76965Z" fill="#2969FF"/>
<path fill-rule="evenodd" clip-rule="evenodd" d="M295.656 185.441L316.307 162.193C316.499 161.979 316.848 161.957 317.074 162.148C317.289 162.351 317.311 162.688 317.119 162.913L296.469 186.161C296.266 186.386 295.927 186.408 295.701 186.206C295.476 186.015 295.465 185.666 295.656 185.441Z" fill="#2969FF"/>
<path fill-rule="evenodd" clip-rule="evenodd" d="M133.384 21.1187L116.021 1.56087C115.822 1.33379 115.841 0.993159 116.059 0.803921C116.287 0.605222 116.629 0.624182 116.828 0.841806L134.2 20.3997C134.39 20.6267 134.371 20.9673 134.153 21.166C133.925 21.3647 133.583 21.3458 133.384 21.1187Z" fill="#2969FF"/>
<path fill-rule="evenodd" clip-rule="evenodd" d="M296.775 185.971L300.352 193.248L303.037 190.008C303.218 189.783 303.568 189.75 303.794 189.941C304.031 190.132 304.053 190.47 303.873 190.694L300.657 194.575C300.533 194.721 300.352 194.789 300.171 194.777C299.991 194.755 299.833 194.642 299.754 194.474L295.804 186.443C295.669 186.173 295.782 185.847 296.053 185.723C296.312 185.588 296.639 185.701 296.775 185.971Z" fill="#2969FF"/>
<path fill-rule="evenodd" clip-rule="evenodd" d="M134.089 21.3363L130.776 28.0921C130.69 28.253 130.529 28.3666 130.348 28.395C130.168 28.414 129.988 28.3381 129.864 28.1962L127.159 24.9318C126.969 24.7047 127.007 24.3641 127.235 24.1749C127.462 23.9856 127.804 24.0141 127.994 24.2412L130.168 26.8621L133.12 20.8632C133.253 20.5888 133.576 20.4848 133.842 20.6078C134.117 20.7403 134.221 21.0714 134.089 21.3363Z" fill="#2969FF"/>
</svg>
