<svg width="281" height="285" viewBox="0 0 281 285" fill="none" xmlns="http://www.w3.org/2000/svg">
<g clip-path="url(#clip0_125_16437)">
<path fill-rule="evenodd" clip-rule="evenodd" d="M147.308 284.467H171.922L159.83 157.087L136.523 155.704L147.308 284.467Z" fill="#FE9900"/>
<path fill-rule="evenodd" clip-rule="evenodd" d="M171.161 284.467C165.747 244.074 160.735 196.44 158.395 159.032L186.613 139.925H194.037C194.037 139.925 209.906 148.168 214.673 151.416L219.096 239.609L224.998 284.467H171.161Z" fill="#2969FF"/>
<path fill-rule="evenodd" clip-rule="evenodd" d="M102.69 284.467V207.805C102.69 207.805 90.1105 235.444 76.1092 242.372L62.0938 211.713C62.0938 211.713 77.4016 173.288 80.7045 165.791C84.0074 158.294 88.1003 153.98 93.3562 150.952C98.5978 147.924 106.122 144.436 106.122 144.436L134.082 154.209L139.209 159.301C142.268 200.92 146.331 246.952 150.022 284.467H102.69Z" fill="#2969FF"/>
<path fill-rule="evenodd" clip-rule="evenodd" d="M165.676 157.764C165.676 157.764 167.184 176.845 167.715 183.558C167.816 184.846 168.893 185.848 170.199 185.848C170.932 185.848 171.635 185.548 172.138 185.004C172.626 184.46 172.871 183.744 172.813 183.014C172.181 175.571 170.501 156.032 170.501 156.032L165.676 157.764Z" fill="white"/>
<path fill-rule="evenodd" clip-rule="evenodd" d="M128.692 155.454C128.692 155.454 128.895 174.593 128.967 181.327C128.98 182.619 129.985 183.691 131.287 183.779C132.018 183.829 132.74 183.576 133.278 183.067C133.802 182.558 134.094 181.86 134.087 181.128C133.964 173.659 133.621 154.051 133.621 154.051L128.692 155.454Z" fill="white"/>
<path fill-rule="evenodd" clip-rule="evenodd" d="M119.664 117.397C119.664 117.397 111.048 117.772 110.818 132.183C110.818 132.183 102.331 132.39 104.069 145.447C131.741 168.278 168.777 167.663 193.879 140.007L199.58 142.746C199.58 142.746 202.509 126.168 191.969 125.824C191.969 125.824 190.676 105.503 176.273 105.537C160.534 105.576 119.664 117.397 119.664 117.397Z" fill="#FE9900"/>
<path fill-rule="evenodd" clip-rule="evenodd" d="M140.919 161.925C146.577 162.61 151.976 162.42 157.132 161.398C157.462 161.334 157.677 161.02 157.606 160.697C157.548 160.374 157.232 160.164 156.902 160.228C151.876 161.226 146.591 161.409 141.063 160.741C140.732 160.701 140.431 160.934 140.388 161.26C140.345 161.588 140.589 161.885 140.919 161.925Z" fill="#061533"/>
<path fill-rule="evenodd" clip-rule="evenodd" d="M156.231 57.7169C157.426 57.843 158.607 57.9411 159.774 57.9972C160.097 58.0112 160.379 57.7589 160.393 57.4365C160.407 57.1282 160.154 56.8481 159.831 56.834C158.692 56.778 157.538 56.6799 156.371 56.5537C156.048 56.5117 155.753 56.7499 155.725 57.0582C155.683 57.3806 155.921 57.6748 156.231 57.7169ZM166.889 57.857C168.071 57.7449 169.252 57.6048 170.405 57.4226C170.728 57.3665 170.953 57.0724 170.897 56.75C170.841 56.4276 170.545 56.2174 170.222 56.2595C169.097 56.4417 167.944 56.5818 166.777 56.6939C166.453 56.7219 166.214 57.0022 166.242 57.3246C166.27 57.6469 166.566 57.885 166.889 57.857ZM145.825 55.4886C146.978 55.853 148.117 56.1612 149.256 56.4415C149.566 56.5256 149.875 56.3294 149.96 56.021C150.044 55.7127 149.847 55.3903 149.538 55.3203C148.427 55.04 147.302 54.7317 146.177 54.3813C145.867 54.2832 145.544 54.4513 145.446 54.7596C145.347 55.068 145.516 55.3905 145.825 55.4886ZM177.337 55.8108C178.476 55.4604 179.601 55.0681 180.698 54.6477C180.993 54.5356 181.148 54.1991 181.021 53.8908C180.909 53.5965 180.571 53.4422 180.276 53.5544C179.193 53.9748 178.097 54.3532 176.986 54.6896C176.676 54.7877 176.508 55.1102 176.606 55.4185C176.691 55.7269 177.028 55.9089 177.337 55.8108ZM135.996 51.452C137.065 51.9986 138.134 52.5033 139.202 52.9798C139.498 53.1059 139.835 52.9798 139.976 52.6855C140.102 52.3912 139.976 52.0408 139.68 51.9147C138.64 51.4522 137.585 50.9475 136.545 50.4009C136.249 50.2607 135.898 50.3729 135.743 50.6672C135.603 50.9475 135.715 51.2979 135.996 51.452ZM187.124 51.6344C188.164 51.0457 189.177 50.4429 190.161 49.7841C190.428 49.616 190.513 49.2517 190.33 48.9854C190.147 48.7191 189.781 48.6348 189.514 48.817C188.558 49.4477 187.574 50.0505 186.548 50.6111C186.266 50.7653 186.168 51.1296 186.322 51.4099C186.491 51.6902 186.843 51.7885 187.124 51.6344ZM126.94 45.9159C127.925 46.6167 128.895 47.2753 129.865 47.906C130.147 48.0742 130.512 48.0042 130.681 47.7379C130.864 47.4576 130.78 47.0931 130.512 46.9249C129.542 46.3083 128.586 45.6495 127.63 44.9628C127.363 44.7806 126.997 44.8366 126.814 45.1029C126.617 45.3692 126.687 45.7337 126.94 45.9159ZM195.8 45.4675C196.686 44.6687 197.544 43.8555 198.359 43.0006C198.584 42.7764 198.57 42.3982 198.345 42.1739C198.106 41.9497 197.741 41.9636 197.516 42.2018C196.714 43.0287 195.884 43.8276 195.012 44.5984C194.773 44.8087 194.759 45.1871 194.97 45.4254C195.181 45.6637 195.561 45.6778 195.8 45.4675ZM118.124 40.3377C119.122 40.8562 120.135 41.4171 121.147 42.0338C121.428 42.2019 121.794 42.1038 121.963 41.8235C122.118 41.5572 122.033 41.1927 121.752 41.0245C120.711 40.4078 119.685 39.8333 118.658 39.3007C118.377 39.1466 118.011 39.2585 117.871 39.5529C117.716 39.8332 117.829 40.1835 118.124 40.3377ZM68.3741 41.8794C68.3741 41.8794 69.4292 41.1507 71.3556 40.1556C71.6368 40.0155 71.7492 39.6651 71.5945 39.3708C71.4539 39.0905 71.1022 38.9783 70.8069 39.1184C68.8101 40.1696 67.7133 40.9265 67.7133 40.9265C67.4462 41.1087 67.3762 41.4729 67.559 41.7392C67.7418 41.9915 68.1069 42.0616 68.3741 41.8794ZM108.464 36.4415C109.546 36.7499 110.657 37.1142 111.768 37.5206C112.064 37.6327 112.401 37.4785 112.514 37.1842C112.626 36.8758 112.471 36.5397 112.176 36.4276C111.037 36.0071 109.912 35.6426 108.801 35.3203C108.478 35.2222 108.154 35.4042 108.07 35.7126C107.971 36.0209 108.154 36.3434 108.464 36.4415ZM77.725 37.4087C78.7515 37.0442 79.8624 36.6938 81.0295 36.3715C81.3529 36.2733 81.536 35.9508 81.4376 35.6425C81.3532 35.3341 81.0296 35.1522 80.7202 35.2363C79.525 35.5726 78.3864 35.9369 77.3317 36.3153C77.0224 36.4275 76.8677 36.7499 76.9802 37.0583C77.0786 37.3666 77.4157 37.5208 77.725 37.4087ZM98.2269 34.5913C99.3658 34.6614 100.519 34.7878 101.686 34.9559C102.01 35.012 102.305 34.7878 102.347 34.4654C102.389 34.143 102.164 33.8486 101.855 33.8065C100.646 33.6243 99.4785 33.4983 98.3114 33.4282C97.988 33.4002 97.7065 33.6383 97.6924 33.9606C97.6643 34.283 97.9034 34.5633 98.2269 34.5913ZM87.8356 34.9417C88.9465 34.7875 90.0992 34.6615 91.2944 34.5774C91.6178 34.5633 91.857 34.283 91.8289 33.9606C91.8148 33.6383 91.5338 33.3862 91.2104 33.4142C89.987 33.4983 88.82 33.6244 87.667 33.7786C87.3576 33.8346 87.1326 34.1288 87.1748 34.4512C87.217 34.7595 87.5122 34.9838 87.8356 34.9417Z" fill="#2969FF"/>
<path fill-rule="evenodd" clip-rule="evenodd" d="M77.7264 245.847C78.8935 245.861 80.0752 245.833 81.2704 245.791C81.5938 245.791 81.8469 245.511 81.8328 245.189C81.8188 244.866 81.5515 244.614 81.2281 244.628C80.0469 244.67 78.8797 244.684 77.7407 244.684C77.4173 244.684 77.1502 244.95 77.1502 245.273C77.1502 245.595 77.403 245.847 77.7264 245.847ZM67.1385 245.161C68.2916 245.301 69.4587 245.441 70.6539 245.539C70.9773 245.567 71.2723 245.329 71.3004 245.006C71.3285 244.684 71.0894 244.404 70.766 244.376C69.5848 244.278 68.4178 244.151 67.2929 243.997C66.9695 243.955 66.6743 244.18 66.6321 244.502C66.5899 244.824 66.8151 245.119 67.1385 245.161ZM88.3149 245.287C89.4679 245.175 90.635 245.021 91.8303 244.866C92.1537 244.81 92.3787 244.516 92.3224 244.193C92.2802 243.885 91.985 243.661 91.6616 243.703C90.4945 243.871 89.3413 244.011 88.2023 244.137C87.8789 244.165 87.6399 244.46 87.6821 244.768C87.7102 245.09 88.0055 245.329 88.3149 245.287ZM56.733 243.03C57.8439 243.339 58.9967 243.633 60.1638 243.913C60.4872 243.983 60.7966 243.787 60.8669 243.465C60.9372 243.156 60.7401 242.834 60.4308 242.764C59.2777 242.498 58.1528 242.217 57.056 241.909C56.7466 241.825 56.4233 242.007 56.3249 242.315C56.2405 242.624 56.4237 242.946 56.733 243.03ZM98.7907 243.661C99.9297 243.437 101.083 243.184 102.236 242.904C102.559 242.834 102.756 242.526 102.686 242.203C102.601 241.895 102.292 241.699 101.969 241.769C100.816 242.035 99.6767 242.287 98.5518 242.512C98.2424 242.582 98.0316 242.89 98.1019 243.198C98.1582 243.521 98.4814 243.731 98.7907 243.661ZM109.07 241.18C110.195 240.886 111.334 240.577 112.473 240.269C112.782 240.185 112.965 239.863 112.88 239.554C112.796 239.246 112.473 239.064 112.163 239.148C111.024 239.456 109.885 239.765 108.774 240.059C108.465 240.143 108.268 240.451 108.353 240.774C108.437 241.082 108.761 241.264 109.07 241.18ZM46.7631 239.372C47.8177 239.849 48.9003 240.311 50.0252 240.76C50.3205 240.886 50.6583 240.732 50.7849 240.438C50.8974 240.143 50.7566 239.793 50.4613 239.681C49.3505 239.232 48.2817 238.784 47.2552 238.307C46.9599 238.167 46.6084 238.293 46.4818 238.587C46.3412 238.882 46.4678 239.232 46.7631 239.372ZM119.25 238.377C120.361 238.069 121.5 237.732 122.625 237.41C122.934 237.326 123.118 237.004 123.033 236.681C122.935 236.373 122.611 236.205 122.301 236.289C121.163 236.611 120.038 236.933 118.927 237.256C118.617 237.34 118.435 237.662 118.519 237.985C118.618 238.293 118.941 238.475 119.25 238.377ZM37.5105 234.144C38.4666 234.789 39.4511 235.42 40.5057 236.051C40.7728 236.219 41.1383 236.135 41.3071 235.854C41.4758 235.574 41.3776 235.224 41.1104 235.056C40.0839 234.439 39.0998 233.808 38.1718 233.177C37.9046 232.995 37.5389 233.065 37.3561 233.331C37.1874 233.598 37.2433 233.962 37.5105 234.144ZM129.375 235.434C130.499 235.111 131.624 234.775 132.749 234.439C133.059 234.355 133.242 234.032 133.143 233.724C133.059 233.402 132.721 233.233 132.412 233.318C131.287 233.654 130.162 233.99 129.051 234.313C128.742 234.411 128.559 234.733 128.658 235.042C128.742 235.35 129.065 235.532 129.375 235.434ZM278.118 231.636C278.75 232.575 279.341 233.57 279.89 234.607C280.044 234.887 280.396 234.985 280.691 234.845C280.972 234.691 281.085 234.327 280.93 234.046C280.353 232.981 279.749 231.972 279.102 230.991C278.933 230.725 278.567 230.64 278.286 230.823C278.019 231.005 277.949 231.369 278.118 231.636ZM139.485 232.449C140.61 232.112 141.735 231.776 142.86 231.439C143.169 231.355 143.352 231.033 143.253 230.725C143.169 230.402 142.831 230.234 142.522 230.318C141.397 230.655 140.272 230.991 139.162 231.327C138.852 231.412 138.669 231.748 138.768 232.056C138.852 232.364 139.176 232.533 139.485 232.449ZM29.2845 227.417C30.086 228.202 30.958 229.001 31.9001 229.814C32.1392 230.038 32.5186 230.01 32.7295 229.758C32.9405 229.519 32.9126 229.155 32.6735 228.945C31.7455 228.132 30.8878 227.347 30.1144 226.59C29.8754 226.366 29.5094 226.366 29.2845 226.59C29.0595 226.828 29.0595 227.193 29.2845 227.417ZM149.595 229.449C150.72 229.127 151.845 228.805 152.97 228.468C153.279 228.384 153.462 228.062 153.364 227.753C153.279 227.431 152.956 227.263 152.646 227.347C151.521 227.683 150.397 228.006 149.272 228.342C148.962 228.426 148.779 228.748 148.878 229.057C148.962 229.365 149.286 229.547 149.595 229.449ZM159.719 226.534C160.844 226.212 161.97 225.889 163.108 225.581C163.418 225.483 163.6 225.16 163.516 224.852C163.418 224.544 163.094 224.362 162.785 224.446C161.66 224.768 160.535 225.09 159.396 225.399C159.087 225.497 158.918 225.819 159.002 226.127C159.086 226.436 159.41 226.618 159.719 226.534ZM271.283 223.899C272.169 224.642 272.999 225.427 273.814 226.254C274.039 226.478 274.405 226.492 274.644 226.268C274.869 226.043 274.883 225.665 274.658 225.441C273.814 224.586 272.957 223.773 272.043 223.002C271.804 222.792 271.438 222.82 271.227 223.072C271.016 223.325 271.044 223.689 271.283 223.899ZM169.872 223.717C171.011 223.409 172.136 223.114 173.275 222.806C173.584 222.722 173.767 222.414 173.683 222.091C173.598 221.783 173.289 221.601 172.965 221.685C171.84 221.979 170.702 222.287 169.577 222.582C169.253 222.666 169.071 222.988 169.155 223.296C169.239 223.619 169.562 223.801 169.872 223.717ZM22.4789 219.218C22.4789 219.218 23.1397 220.353 24.5458 222.147C24.7427 222.4 25.1084 222.456 25.3615 222.245C25.6287 222.049 25.671 221.685 25.4741 221.432C24.1242 219.708 23.4912 218.629 23.4912 218.629C23.3365 218.349 22.9711 218.265 22.6898 218.419C22.4086 218.587 22.3242 218.938 22.4789 219.218ZM180.066 221.068C181.205 220.774 182.344 220.493 183.483 220.227C183.793 220.143 183.99 219.835 183.905 219.526C183.835 219.204 183.512 219.008 183.202 219.092C182.063 219.372 180.924 219.638 179.785 219.933C179.476 220.003 179.279 220.325 179.363 220.634C179.434 220.956 179.757 221.138 180.066 221.068ZM262.552 218.335C263.606 218.839 264.632 219.372 265.631 219.933C265.912 220.101 266.263 220.003 266.432 219.723C266.587 219.442 266.489 219.092 266.208 218.924C265.195 218.335 264.14 217.788 263.057 217.284C262.762 217.144 262.411 217.27 262.27 217.564C262.144 217.858 262.256 218.209 262.552 218.335ZM190.318 218.629C191.457 218.377 192.609 218.125 193.748 217.887C194.058 217.816 194.269 217.508 194.198 217.2C194.128 216.877 193.819 216.681 193.495 216.751C192.356 216.99 191.203 217.242 190.064 217.494C189.741 217.564 189.544 217.872 189.614 218.195C189.685 218.503 189.994 218.699 190.318 218.629ZM200.624 216.499C201.777 216.289 202.93 216.078 204.069 215.868C204.393 215.812 204.604 215.518 204.548 215.195C204.491 214.873 204.182 214.663 203.873 214.719C202.72 214.929 201.567 215.14 200.4 215.35C200.09 215.42 199.879 215.714 199.935 216.036C199.992 216.359 200.301 216.569 200.624 216.499ZM252.708 214.957C253.862 215.238 254.972 215.532 256.069 215.868C256.378 215.966 256.716 215.784 256.8 215.476C256.898 215.167 256.73 214.845 256.42 214.747C255.296 214.411 254.157 214.102 252.99 213.822C252.68 213.752 252.357 213.948 252.287 214.256C252.202 214.565 252.399 214.887 252.708 214.957ZM211.002 214.761C212.155 214.593 213.322 214.425 214.475 214.284C214.784 214.242 215.009 213.948 214.981 213.626C214.939 213.303 214.644 213.079 214.32 213.121C213.167 213.275 212 213.43 210.833 213.598C210.51 213.654 210.285 213.948 210.327 214.256C210.383 214.579 210.678 214.803 211.002 214.761ZM242.387 213.318C243.568 213.43 244.722 213.556 245.861 213.71C246.184 213.752 246.479 213.528 246.521 213.205C246.564 212.883 246.338 212.589 246.015 212.547C244.862 212.393 243.681 212.266 242.5 212.154C242.176 212.126 241.895 212.364 241.867 212.687C241.839 213.009 242.078 213.29 242.387 213.318ZM221.435 213.514C222.602 213.415 223.77 213.318 224.923 213.247C225.246 213.219 225.5 212.939 225.471 212.631C225.443 212.308 225.176 212.056 224.852 212.084C223.685 212.154 222.504 212.252 221.323 212.35C221.014 212.378 220.774 212.673 220.803 212.995C220.831 213.303 221.112 213.542 221.435 213.514ZM231.925 212.953C233.093 212.939 234.26 212.939 235.413 212.967C235.736 212.967 236.003 212.715 236.018 212.392C236.018 212.07 235.764 211.804 235.441 211.79C234.274 211.776 233.093 211.776 231.897 211.79C231.574 211.79 231.321 212.056 231.321 212.378C231.335 212.701 231.602 212.967 231.925 212.953Z" fill="#2969FF"/>
<path fill-rule="evenodd" clip-rule="evenodd" d="M263.039 141.513C262.801 140.63 262.226 139.881 261.437 139.427C260.648 138.973 259.707 138.851 258.827 139.085C251.229 141.111 232.639 146.068 225.041 148.094C224.157 148.33 223.408 148.902 222.953 149.688C222.498 150.474 222.371 151.411 222.609 152.293C224.007 157.487 226.698 167.481 228.097 172.675C228.333 173.552 228.913 174.3 229.704 174.759C230.493 175.213 231.428 175.337 232.313 175.101C239.911 173.075 258.501 168.118 266.099 166.092C266.979 165.858 267.732 165.284 268.187 164.498C268.641 163.707 268.763 162.772 268.527 161.894L263.039 141.513Z" fill="#FE9900"/>
<path fill-rule="evenodd" clip-rule="evenodd" d="M222.665 150.003L243.385 158.373C245.064 159.051 246.991 158.537 248.11 157.113C252.036 152.095 261.784 139.635 261.784 139.635C261.984 139.381 261.935 139.012 261.682 138.815C261.427 138.611 261.057 138.658 260.857 138.912C260.857 138.912 251.109 151.373 247.185 156.396C246.393 157.409 245.021 157.775 243.826 157.292C237.883 154.887 223.105 148.916 223.105 148.916C222.803 148.796 222.46 148.939 222.34 149.236C222.221 149.539 222.362 149.877 222.665 150.003Z" fill="white"/>
<path fill-rule="evenodd" clip-rule="evenodd" d="M64.5362 214.229C62.5254 214.229 60.8945 215.854 60.8945 217.845C60.8945 219.849 62.5254 221.474 64.5362 221.474C66.547 221.474 68.1785 219.849 68.1785 217.845C68.1785 215.854 66.547 214.229 64.5362 214.229ZM64.5362 215.392C65.9002 215.392 67.0113 216.499 67.0113 217.845C67.0113 219.204 65.9002 220.311 64.5362 220.311C63.1723 220.311 62.0755 219.204 62.0755 217.845C62.0755 216.499 63.1723 215.392 64.5362 215.392Z" fill="#FF3D3D"/>
<path fill-rule="evenodd" clip-rule="evenodd" d="M229.602 113.556C228.049 113.556 226.783 114.817 226.783 116.365C226.783 117.913 228.049 119.175 229.602 119.175C231.155 119.175 232.405 117.913 232.405 116.365C232.405 114.817 231.155 113.556 229.602 113.556ZM229.602 114.721C230.499 114.721 231.235 115.455 231.235 116.365C231.235 117.275 230.499 118.009 229.602 118.009C228.689 118.009 227.952 117.275 227.952 116.365C227.952 115.455 228.689 114.721 229.602 114.721Z" fill="#FF3D3D"/>
<path fill-rule="evenodd" clip-rule="evenodd" d="M208.905 85.0057L226.229 77.0029C226.525 76.8628 226.651 76.5264 226.511 76.2321C226.37 75.9378 226.032 75.8116 225.737 75.9518L208.413 83.9406C208.118 84.0808 207.991 84.4311 208.132 84.7254C208.272 85.0197 208.624 85.1459 208.905 85.0057Z" fill="#2969FF"/>
<path fill-rule="evenodd" clip-rule="evenodd" d="M0.781856 181.325C0.574201 181.215 0.32952 181.227 0.146295 181.374C-0.0491446 181.507 -0.122053 181.751 -0.0731929 181.97L8.26926 216.438C8.31812 216.62 8.44036 216.766 8.61137 216.839C8.78238 216.912 8.9657 216.9 9.13671 216.815L24.0023 208.244L38.3549 202.923C38.5625 202.838 38.7093 202.643 38.7337 202.412C38.7459 202.193 38.6238 201.973 38.4283 201.864L0.781856 181.325ZM1.3802 182.981L36.7426 202.278C33.2857 203.556 23.538 207.172 23.538 207.172C23.5136 207.185 23.477 207.197 23.4526 207.209L9.22212 215.403L1.3802 182.981Z" fill="#2969FF"/>
<path fill-rule="evenodd" clip-rule="evenodd" d="M218.922 7.41051C218.974 7.18518 218.891 6.94953 218.707 6.81638C218.522 6.67298 218.275 6.6525 218.069 6.76517L186.399 24.044C186.194 24.1566 186.081 24.3718 186.091 24.5971C186.111 24.8224 186.255 25.0271 186.471 25.0988L198.545 29.585L211.041 36.775C211.195 36.8672 211.39 36.8877 211.565 36.8058C211.729 36.7341 211.863 36.5907 211.904 36.4063L218.922 7.41051ZM217.473 8.42453L210.948 35.3821L199.09 28.5506C199.059 28.5301 199.028 28.5198 198.997 28.4994L188.084 24.4537C192.986 21.7804 212.49 11.1387 217.473 8.42453Z" fill="#2969FF"/>
<path fill-rule="evenodd" clip-rule="evenodd" d="M23.855 207.246L1.50155 182.08C1.2939 181.849 0.915137 181.825 0.670837 182.032C0.438752 182.251 0.414513 182.616 0.622168 182.86L22.9756 208.025C23.1955 208.269 23.562 208.293 23.8063 208.074C24.0506 207.867 24.0626 207.49 23.855 207.246Z" fill="#2969FF"/>
<path fill-rule="evenodd" clip-rule="evenodd" d="M199.512 29.37L218.307 8.19913C218.523 7.95331 218.502 7.58459 218.266 7.37975C218.019 7.16466 217.65 7.18519 217.434 7.42076L198.629 28.5916C198.423 28.8374 198.444 29.2061 198.68 29.4212C198.927 29.6363 199.297 29.6158 199.512 29.37Z" fill="#2969FF"/>
<path fill-rule="evenodd" clip-rule="evenodd" d="M22.6468 207.818L18.7742 215.695L15.8675 212.189C15.672 211.945 15.293 211.909 15.0487 212.116C14.7922 212.323 14.7678 212.688 14.9633 212.931L18.4445 217.132C18.5789 217.29 18.7744 217.363 18.9699 217.351C19.1653 217.327 19.3362 217.205 19.4217 217.022L23.697 208.329C23.8436 208.037 23.7215 207.684 23.4283 207.55C23.1474 207.404 22.7934 207.526 22.6468 207.818Z" fill="#2969FF"/>
<path fill-rule="evenodd" clip-rule="evenodd" d="M198.752 29.6057L202.338 36.9187C202.43 37.0928 202.605 37.2158 202.8 37.2466C202.996 37.2671 203.191 37.185 203.325 37.0313L206.253 33.4977C206.459 33.2519 206.418 32.8832 206.171 32.6784C205.924 32.4735 205.554 32.5044 205.349 32.7502L202.996 35.5872L199.8 29.0936C199.656 28.7965 199.307 28.684 199.019 28.8171C198.721 28.9605 198.608 29.3189 198.752 29.6057Z" fill="#2969FF"/>
<path fill-rule="evenodd" clip-rule="evenodd" d="M145.96 180.624C145.96 180.624 136.582 175.385 133.595 173.921C130.838 172.568 123.356 168.994 114.769 171.072C113.605 171.349 112.859 172.472 113.06 173.645C113.232 174.741 114.18 175.557 115.3 175.585C117.9 175.671 122.567 176.158 125.425 178.448C125.425 178.448 121.289 179.364 120.542 182.456C119.781 185.547 118.89 191.545 119.666 195.824C120.154 198.558 129.373 198.859 133.595 198.1C133.595 198.1 139.497 200.348 140.014 200.476C140.531 200.619 145.256 186.736 145.256 186.736L145.96 180.624Z" fill="#FFC8A3"/>
<path fill-rule="evenodd" clip-rule="evenodd" d="M121.731 185.822L125.288 185.234C125.612 185.188 125.834 184.879 125.778 184.549C125.731 184.22 125.422 184 125.098 184.061L121.532 184.648C121.208 184.709 120.985 185.004 121.042 185.334C121.098 185.663 121.407 185.884 121.731 185.822Z" fill="#061533"/>
<path fill-rule="evenodd" clip-rule="evenodd" d="M120.288 192.741L124.159 192.101C124.491 192.048 124.704 191.747 124.658 191.419C124.602 191.089 124.291 190.873 123.97 190.927L120.089 191.566C119.768 191.62 119.544 191.934 119.6 192.249C119.646 192.578 119.956 192.793 120.288 192.741Z" fill="#061533"/>
<path fill-rule="evenodd" clip-rule="evenodd" d="M155.249 182.341C154.546 182.083 147.337 179.307 145.542 180.223C143.732 181.153 139.065 190.285 139.353 200.734C139.381 201.664 139.797 202.537 140.515 203.138C142.497 204.799 146.619 208.234 147.782 209.207C146.346 213.888 154.632 220.729 159.069 223.463C163.549 226.211 208.9 248.884 225.902 243.302C242.92 237.719 243.078 223.535 237.822 204.226C232.566 184.932 224.237 158.927 214.515 151.272C214.515 151.272 194.855 160.566 202.897 195.381C202.897 195.381 175.383 184.474 167.556 182.112C164.181 181.096 158.208 178.977 155.249 182.341Z" fill="#2969FF"/>
<path fill-rule="evenodd" clip-rule="evenodd" d="M205.513 159.411C201.477 165.972 198.275 176.945 202.066 194.421C196.954 192.403 174.652 183.629 167.73 181.539C165.662 180.924 162.633 179.893 159.89 179.922C158.066 179.936 156.357 180.394 155.079 181.654C153.959 181.225 150.843 180.094 148.401 179.636C147.051 179.392 145.888 179.378 145.271 179.693C144.668 179.994 143.748 181.081 142.829 182.799C140.819 186.52 138.55 193.305 138.751 200.762C138.779 201.864 139.282 202.895 140.13 203.596C141.982 205.142 145.659 208.219 147.109 209.436C146.721 211.368 147.697 213.63 149.377 215.82C151.934 219.126 156.055 222.304 158.769 223.964C162.345 226.168 191.985 241.069 212.535 244.203C212.85 244.246 213.166 244.032 213.209 243.702C213.267 243.373 213.037 243.073 212.707 243.03C192.344 239.924 162.934 225.138 159.387 222.948C156.773 221.345 152.795 218.282 150.325 215.104C148.803 213.115 147.827 211.096 148.358 209.393C148.43 209.164 148.358 208.907 148.171 208.749C146.994 207.776 142.887 204.341 140.905 202.68C140.316 202.194 139.971 201.478 139.943 200.719C139.756 193.52 141.939 186.964 143.878 183.372C144.366 182.47 144.826 181.768 145.242 181.282C145.457 181.024 145.644 180.838 145.817 180.752C145.96 180.681 146.175 180.652 146.42 180.638C146.922 180.609 147.525 180.681 148.186 180.809C150.929 181.325 154.547 182.713 155.021 182.899C155.265 182.999 155.524 182.928 155.696 182.742C156.759 181.525 158.281 181.124 159.89 181.11C162.518 181.096 165.404 182.083 167.386 182.685C175.198 185.046 202.684 195.939 202.684 195.939C202.885 196.025 203.129 195.982 203.287 195.838C203.459 195.695 203.531 195.466 203.487 195.252C199.409 177.589 202.511 166.566 206.532 160.035C206.704 159.754 206.618 159.387 206.331 159.215C206.058 159.043 205.685 159.13 205.513 159.411Z" fill="white"/>
<path fill-rule="evenodd" clip-rule="evenodd" d="M154.217 185.247C153.068 193.22 151.933 198.415 148.731 206.202C148.602 206.502 148.746 206.86 149.047 206.975C149.363 207.104 149.708 206.961 149.837 206.66C153.083 198.759 154.245 193.506 155.409 185.419C155.452 185.09 155.222 184.789 154.892 184.746C154.562 184.689 154.26 184.918 154.217 185.247Z" fill="white"/>
<path fill-rule="evenodd" clip-rule="evenodd" d="M202.496 195.911C202.496 195.911 215.076 201.693 220.203 205.558C227.397 210.968 229.034 219.656 228.431 225.568C228.402 225.897 228.647 226.183 228.963 226.226C229.293 226.255 229.594 226.011 229.623 225.682C230.255 219.456 228.503 210.31 220.921 204.599C215.722 200.691 202.999 194.823 202.999 194.823C202.697 194.68 202.338 194.823 202.209 195.109C202.065 195.41 202.195 195.767 202.496 195.911Z" fill="white"/>
<path fill-rule="evenodd" clip-rule="evenodd" d="M113.891 160.63C113.518 158.985 112.053 157.818 110.358 157.818C105.821 157.818 97.0467 157.818 92.0349 157.818C91.1446 157.818 90.297 158.231 89.7513 158.935C89.2056 159.639 89.0189 160.555 89.2487 161.417C91.3884 169.584 96.5441 189.312 98.2099 195.682C98.5258 196.87 99.6024 197.7 100.837 197.7C104.887 197.7 113.862 197.7 118.802 197.7C119.65 197.7 120.44 197.313 120.971 196.669C121.488 196.011 121.689 195.152 121.502 194.336C119.765 186.621 115.5 167.778 113.891 160.63Z" fill="white"/>
<path d="M94.0425 163.758C94.7941 163.758 95.4034 163.151 95.4034 162.401C95.4034 161.652 94.7941 161.045 94.0425 161.045C93.2909 161.045 92.6816 161.652 92.6816 162.401C92.6816 163.151 93.2909 163.758 94.0425 163.758Z" fill="#061533"/>
<path fill-rule="evenodd" clip-rule="evenodd" d="M87.8988 177.403C87.8988 177.403 88.1859 175.356 88.1428 172.541C88.0998 169.727 87.9991 166.544 90.1101 164.627L92.7236 173.524C92.7236 173.524 99.3295 166.316 102.173 163.213C102.891 162.433 104.097 162.347 104.916 163.02C105.62 163.602 105.792 164.618 105.304 165.396C103.293 168.608 98.3959 176.401 98.3959 176.401C98.3959 176.401 104.959 174.498 108.506 173.466C109.08 173.297 109.712 173.37 110.229 173.666C110.761 173.962 111.148 174.455 111.292 175.041C111.593 176.158 110.947 177.317 109.842 177.661C106.567 178.706 100.364 180.652 100.364 180.652C100.364 180.652 106.624 178.677 109.884 177.646C110.961 177.317 112.11 177.89 112.484 178.949C112.67 179.479 112.627 180.051 112.383 180.552C112.139 181.053 111.708 181.439 111.177 181.626C107.788 182.771 101.283 184.961 101.283 184.961C101.283 184.961 106.74 183.315 109.626 182.441C110.603 182.141 111.636 182.67 111.967 183.629C112.311 184.588 111.852 185.648 110.919 186.077C107.802 187.508 101.283 190.5 101.283 190.5C101.283 190.5 99.3726 196.068 96.6441 197.785H93.657L86.75 184.961L87.8988 177.403Z" fill="#FFC8A3"/>
<path fill-rule="evenodd" clip-rule="evenodd" d="M87.8128 177.332C87.8128 177.332 84.7252 180.152 83.5333 182.671C83.5333 182.671 79.2826 183.215 76.2813 187.509C73.2656 191.789 66.9043 201.593 63.2711 209.065C59.6379 216.522 58.7477 220.158 59.7242 227.543C60.7007 234.929 64.4483 245.507 75.5633 242.973C80.7043 241.799 87.9563 231.308 93.0829 217.896C97.0608 207.462 95.582 204.356 95.582 204.356C95.582 204.356 97.463 200.062 96.6444 197.886C96.6444 197.886 89.5073 194.651 87.8128 177.332Z" fill="#2969FF"/>
<path fill-rule="evenodd" clip-rule="evenodd" d="M89.9947 226.47C91.2872 223.865 92.5081 221.059 93.6426 218.111C97.0891 209.093 96.5003 205.358 96.2275 204.384C96.4285 203.883 96.9169 202.61 97.2041 201.221C97.4769 199.962 97.5629 198.63 97.1895 197.671C97.1464 197.514 97.0313 197.399 96.8877 197.342C96.8877 197.342 90.0522 194.15 88.4151 177.275C88.3864 177.046 88.2429 176.846 88.0275 176.774C87.8121 176.688 87.5822 176.731 87.4099 176.888C87.4099 176.888 84.4377 179.608 83.1309 182.141C82.0395 182.37 78.449 183.372 75.7779 187.165C74.3132 189.255 72.0302 192.676 69.6607 196.512C69.4884 196.784 69.5744 197.156 69.8616 197.328C70.1344 197.5 70.5077 197.414 70.68 197.127C73.0351 193.334 75.3044 189.928 76.7691 187.838C79.5981 183.802 83.6043 183.258 83.6043 183.258C83.8054 183.244 83.9782 183.115 84.0643 182.929C84.8254 181.326 86.3761 179.608 87.3526 178.606C89.0759 193.463 94.8774 197.557 96.1411 198.287C96.3565 199.06 96.2417 200.047 96.0407 200.978C95.696 202.624 95.0354 204.112 95.0354 204.112C94.9636 204.27 94.9639 204.456 95.05 204.613C95.05 204.613 96.371 207.591 92.5224 217.682C91.4023 220.601 90.1958 223.364 88.9177 225.94C88.7741 226.241 88.9037 226.599 89.1909 226.742C89.4924 226.885 89.8511 226.756 89.9947 226.47Z" fill="white"/>
<path fill-rule="evenodd" clip-rule="evenodd" d="M83.2754 185.834C85.2571 195.281 87.4398 199.16 93.0691 203.167C93.3419 203.354 93.7154 203.296 93.9021 203.024C94.1031 202.752 94.031 202.38 93.7725 202.194C88.3874 198.373 86.3341 194.622 84.4528 185.591C84.381 185.261 84.0648 185.061 83.7488 185.133C83.4186 185.19 83.218 185.505 83.2754 185.834Z" fill="white"/>
<path fill-rule="evenodd" clip-rule="evenodd" d="M194.909 48.9983L193.38 53.115C193.212 53.5692 192.853 53.9271 192.396 54.096C191.342 54.4847 189.629 55.1163 188.267 55.6191C187.707 55.825 187.336 56.3564 187.336 56.951C187.336 57.5448 187.707 58.0762 188.267 58.2821L192.396 59.806C192.853 59.9733 193.212 60.332 193.38 60.7862C193.77 61.8374 194.405 63.5448 194.909 64.9029C195.115 65.4597 195.648 65.8299 196.245 65.8299C196.841 65.8299 197.374 65.4597 197.581 64.9029C198.085 63.5448 198.718 61.8374 199.109 60.7862C199.278 60.332 199.637 59.9733 200.093 59.806C201.148 59.4165 202.861 58.7849 204.223 58.2821C204.782 58.0762 205.153 57.5448 205.153 56.951C205.153 56.3564 204.782 55.825 204.223 55.6191L200.093 54.096C199.637 53.9271 199.278 53.5692 199.109 53.115C198.718 52.0638 198.085 50.3564 197.581 48.9983C197.374 48.4415 196.841 48.0713 196.245 48.0713C195.648 48.0713 195.115 48.4415 194.909 48.9983ZM196.031 49.4124C196.064 49.323 196.15 49.2643 196.245 49.2643C196.34 49.2643 196.425 49.323 196.458 49.4124C196.963 50.7698 197.597 52.4772 197.987 53.5291C198.277 54.3096 198.894 54.925 199.678 55.2142C200.733 55.6029 202.446 56.2353 203.807 56.7374C203.897 56.7705 203.957 56.8554 203.957 56.951C203.957 57.0458 203.897 57.1307 203.807 57.1638C202.446 57.6659 200.733 58.2975 199.678 58.687C198.894 58.9762 198.277 59.5916 197.987 60.3721C197.597 61.424 196.963 63.1314 196.458 64.4888C196.425 64.5782 196.34 64.6368 196.245 64.6368C196.15 64.6368 196.064 64.5782 196.031 64.4888C195.527 63.1314 194.893 61.424 194.502 60.3721C194.213 59.5916 193.596 58.9762 192.812 58.687C191.757 58.2975 190.044 57.6659 188.681 57.1638C188.592 57.1307 188.533 57.0458 188.533 56.951C188.533 56.8554 188.592 56.7705 188.681 56.7374C190.044 56.2353 191.757 55.6029 192.812 55.2142C193.596 54.925 194.213 54.3096 194.502 53.5291L196.031 49.4124Z" fill="#2969FF"/>
<path fill-rule="evenodd" clip-rule="evenodd" d="M28.1823 164.57L26.967 167.844C26.8451 168.172 26.586 168.43 26.2568 168.552C25.4181 168.861 24.0557 169.364 22.9726 169.763C22.4797 169.945 22.1523 170.413 22.1523 170.937C22.1523 171.46 22.4797 171.929 22.9726 172.11C24.0557 172.51 25.4181 173.013 26.2568 173.322C26.586 173.443 26.8451 173.701 26.967 174.03C27.2777 174.866 27.7817 176.224 28.1823 177.304C28.3651 177.795 28.8346 178.121 29.3601 178.121C29.8856 178.121 30.3552 177.795 30.5373 177.304L31.7533 174.03C31.8745 173.701 32.1342 173.443 32.4628 173.322C33.3021 173.013 34.6645 172.51 35.7476 172.11C36.2405 171.929 36.5679 171.46 36.5679 170.937C36.5679 170.413 36.2405 169.945 35.7476 169.763C34.6645 169.364 33.3021 168.861 32.4628 168.552C32.1342 168.43 31.8745 168.172 31.7533 167.844C31.4425 167.008 30.9385 165.65 30.5373 164.57C30.3552 164.079 29.8856 163.753 29.3601 163.753C28.8346 163.753 28.3651 164.079 28.1823 164.57ZM29.3047 164.984C29.3133 164.961 29.3355 164.946 29.3601 164.946C29.3847 164.946 29.4069 164.961 29.4155 164.984C29.8161 166.063 30.3201 167.422 30.6308 168.258C30.8733 168.912 31.3914 169.428 32.0474 169.671C32.8868 169.98 34.2492 170.482 35.3322 170.882C35.3556 170.89 35.371 170.913 35.371 170.937C35.371 170.961 35.3556 170.983 35.3322 170.992C34.2492 171.392 32.8868 171.894 32.0474 172.203C31.3914 172.445 30.8733 172.961 30.6308 173.616C30.3201 174.452 29.8161 175.81 29.4155 176.89C29.4069 176.913 29.3847 176.928 29.3601 176.928C29.3355 176.928 29.3133 176.913 29.3047 176.89C28.9041 175.81 28.4001 174.452 28.0894 173.616C27.8463 172.961 27.3288 172.445 26.6722 172.203C25.8335 171.894 24.471 171.392 23.3874 170.992C23.3646 170.983 23.3492 170.961 23.3492 170.937C23.3492 170.913 23.3646 170.89 23.3874 170.882C24.471 170.482 25.8335 169.98 26.6722 169.671C27.3288 169.428 27.8463 168.912 28.0894 168.258L29.3047 164.984Z" fill="#FE9900"/>
<path fill-rule="evenodd" clip-rule="evenodd" d="M257.4 137.733L256.302 140.69C256.198 140.97 255.976 141.192 255.695 141.295C254.937 141.575 253.706 142.029 252.727 142.389C252.26 142.562 251.949 143.007 251.949 143.504C251.949 144.001 252.26 144.445 252.727 144.618C253.706 144.979 254.937 145.433 255.695 145.712C255.976 145.816 256.198 146.037 256.302 146.317C256.582 147.073 257.038 148.3 257.4 149.275C257.573 149.741 258.019 150.051 258.518 150.051C259.016 150.051 259.463 149.741 259.636 149.275C259.997 148.3 260.453 147.073 260.733 146.317C260.837 146.037 261.059 145.816 261.34 145.712C262.099 145.433 263.329 144.979 264.308 144.618C264.776 144.445 265.086 144.001 265.086 143.504C265.086 143.007 264.776 142.562 264.308 142.389C263.329 142.029 262.099 141.575 261.34 141.295C261.059 141.192 260.837 140.97 260.733 140.69C260.453 139.935 259.997 138.708 259.636 137.733C259.463 137.266 259.016 136.957 258.518 136.957C258.019 136.957 257.573 137.266 257.4 137.733ZM258.518 138.159L259.611 141.104C259.836 141.711 260.317 142.189 260.925 142.414L263.881 143.504L260.925 144.594C260.317 144.818 259.836 145.297 259.611 145.904L258.518 148.849L257.424 145.904C257.199 145.297 256.719 144.818 256.11 144.594L253.155 143.504L256.11 142.414C256.719 142.189 257.199 141.711 257.424 141.104L258.518 138.159Z" fill="#2969FF"/>
<path fill-rule="evenodd" clip-rule="evenodd" d="M95.7969 65.1332L80.8032 56.5058C80.5176 56.3415 80.1506 56.4394 79.9852 56.7249C79.8198 57.0104 79.9182 57.3761 80.2039 57.5404L95.1975 66.1678C95.4842 66.3328 95.8501 66.2343 96.0155 65.9488C96.1809 65.6633 96.0835 65.2982 95.7969 65.1332Z" fill="#2969FF"/>
<path fill-rule="evenodd" clip-rule="evenodd" d="M99.5578 58.6153L94.8788 50.5387C94.7139 50.2541 94.348 50.1561 94.0624 50.3204C93.7768 50.4848 93.679 50.8495 93.8439 51.1342L98.5229 59.2108C98.6879 59.4955 99.0542 59.5941 99.3398 59.4298C99.6253 59.2655 99.7228 58.9 99.5578 58.6153Z" fill="#2969FF"/>
<path fill-rule="evenodd" clip-rule="evenodd" d="M91.4133 71.4805H81.3032C80.973 71.4805 80.7051 71.7477 80.7051 72.0769C80.7051 72.406 80.973 72.6732 81.3032 72.6732H91.4133C91.7435 72.6732 92.0115 72.406 92.0115 72.0769C92.0115 71.7477 91.7435 71.4805 91.4133 71.4805Z" fill="#2969FF"/>
<path fill-rule="evenodd" clip-rule="evenodd" d="M251.573 191.059L263.813 180.332C264.061 180.115 264.086 179.738 263.868 179.49C263.651 179.243 263.273 179.219 263.024 179.436L250.783 190.163C250.535 190.379 250.511 190.757 250.728 191.005C250.946 191.252 251.324 191.277 251.573 191.059Z" fill="#FF3D3D"/>
<path fill-rule="evenodd" clip-rule="evenodd" d="M46.1928 215.862L29.0431 211.274C28.7245 211.188 28.3962 211.377 28.3103 211.695C28.2253 212.013 28.4147 212.341 28.7343 212.425L45.884 217.014C46.2027 217.099 46.5309 216.911 46.6168 216.592C46.7018 216.274 46.5124 215.947 46.1928 215.862Z" fill="#2969FF"/>
<path fill-rule="evenodd" clip-rule="evenodd" d="M75.0587 255.071C73.3943 255.071 72.043 256.418 72.043 258.077C72.043 259.736 73.3943 261.083 75.0587 261.083C76.723 261.083 78.0743 259.736 78.0743 258.077C78.0743 256.418 76.723 255.071 75.0587 255.071ZM75.0587 256.264C76.0624 256.264 76.8767 257.077 76.8767 258.077C76.8767 259.078 76.0624 259.889 75.0587 259.889C74.0549 259.889 73.2392 259.078 73.2392 258.077C73.2392 257.077 74.0549 256.264 75.0587 256.264Z" fill="#2969FF"/>
<path fill-rule="evenodd" clip-rule="evenodd" d="M221.504 130.581C219.84 130.581 218.488 131.928 218.488 133.587C218.488 135.246 219.84 136.593 221.504 136.593C223.168 136.593 224.52 135.246 224.52 133.587C224.52 131.928 223.168 130.581 221.504 130.581ZM221.504 131.773C222.508 131.773 223.322 132.586 223.322 133.587C223.322 134.587 222.508 135.399 221.504 135.399C220.5 135.399 219.685 134.587 219.685 133.587C219.685 132.586 220.5 131.773 221.504 131.773Z" fill="#FE9900"/>
<path fill-rule="evenodd" clip-rule="evenodd" d="M36.0874 285.064H267.792C268.123 285.064 268.395 284.806 268.395 284.477C268.395 284.148 268.123 283.876 267.792 283.876H36.0874C35.7571 283.876 35.4844 284.148 35.4844 284.477C35.4844 284.806 35.7571 285.064 36.0874 285.064Z" fill="#2969FF"/>
<path fill-rule="evenodd" clip-rule="evenodd" d="M113.347 99.7031C113.347 99.7031 107.201 101.55 108.493 107.67C110.101 115.239 118.904 114.131 118.904 114.131L113.347 99.7031Z" fill="#FFAA72"/>
<path fill-rule="evenodd" clip-rule="evenodd" d="M132.676 129.322L135.361 138.099C148.63 140.788 160.707 138.477 168.921 132.302L163.493 115.283L143.776 124.699L132.676 129.322Z" fill="#FFAA72"/>
<path fill-rule="evenodd" clip-rule="evenodd" d="M126.989 136.46C150.067 144.336 171.391 138.174 178.529 120.741C178.658 120.436 178.5 120.088 178.199 119.963C177.897 119.839 177.552 119.985 177.423 120.29C170.501 137.197 149.75 142.969 127.377 135.33C127.061 135.224 126.716 135.39 126.616 135.702C126.501 136.013 126.673 136.352 126.989 136.46Z" fill="#061533"/>
<path fill-rule="evenodd" clip-rule="evenodd" d="M113.591 100.73C113.591 100.73 116.98 113.167 118.431 117.074C119.867 120.982 127.162 130.663 142.011 130.975C156.86 131.286 165.82 116.566 166.309 109.694C166.309 109.694 176.663 111.551 179.204 101.893C180.87 95.6142 172.785 87.626 164.657 93.5173L151.661 76.0736L125.453 69.7256L109.154 84.8764L113.591 100.73Z" fill="#FFC8A3"/>
<path fill-rule="evenodd" clip-rule="evenodd" d="M112.513 96.7285L113.777 101.451C113.777 101.451 102.403 95.8125 104.73 77.1579C107.056 58.5033 133.924 40.0448 156.671 52.5761C156.671 52.5761 183.123 54.1663 174.177 92.2684C174.177 92.2684 170.041 89.4688 164.555 93.5295C164.555 93.5295 164.44 98.26 163.837 101.018C163.78 101.2 163.636 101.343 163.464 101.398C163.277 101.452 163.076 101.41 162.933 101.286C162.042 100.331 160.319 98.157 158.553 93.9947C158.553 93.9947 147.696 95.7524 138.304 83.4815C128.913 71.2121 123.729 76.5094 122.077 81.7066C122.077 81.7066 113.059 78.7581 113.044 87.3719C113.044 90.923 114.365 91.8534 112.513 96.7285Z" fill="#061533"/>
<path fill-rule="evenodd" clip-rule="evenodd" d="M167.214 102.911C167.214 102.911 170.344 100.074 175.126 97.4145C175.413 97.2542 175.528 96.8906 175.356 96.6029C175.198 96.3152 174.839 96.2121 174.552 96.3724C169.626 99.1077 166.409 102.029 166.409 102.029C166.165 102.25 166.151 102.627 166.366 102.871C166.596 103.114 166.97 103.133 167.214 102.911Z" fill="#061533"/>
<path fill-rule="evenodd" clip-rule="evenodd" d="M169.64 100.499L172.713 102.967C172.972 103.174 173.345 103.134 173.561 102.878C173.762 102.622 173.719 102.245 173.46 102.039L170.401 99.5701C170.143 99.364 169.755 99.4042 169.554 99.6604C169.338 99.9166 169.382 100.292 169.64 100.499Z" fill="#061533"/>
<path fill-rule="evenodd" clip-rule="evenodd" d="M116.236 98.4648C116.236 98.4648 120.166 92.0718 126.045 96.2427C126.315 96.434 126.7 96.3683 126.884 96.1015C127.069 95.8348 127.022 95.4565 126.753 95.2679C119.85 90.375 115.207 97.8391 115.207 97.8391C115.025 98.1221 115.117 98.4893 115.406 98.6602C115.696 98.831 116.055 98.7478 116.236 98.4648Z" fill="#061533"/>
<path fill-rule="evenodd" clip-rule="evenodd" d="M138.964 91.5951C138.964 91.5951 141.422 89.5419 144.345 89.7405C144.667 89.7644 144.958 89.5166 144.983 89.1861C145.007 88.8582 144.746 88.573 144.424 88.5519C141.064 88.3214 138.191 90.6742 138.191 90.6742C137.928 90.8844 137.896 91.2613 138.115 91.5153C138.334 91.7693 138.701 91.8053 138.964 91.5951Z" fill="#061533"/>
<path d="M142.322 101.829C143.484 101.829 144.425 100.891 144.425 99.7329C144.425 98.5753 143.484 97.6367 142.322 97.6367C141.161 97.6367 140.219 98.5753 140.219 99.7329C140.219 100.891 141.161 101.829 142.322 101.829Z" fill="#061533"/>
<path d="M122.834 105.145C123.995 105.145 124.937 104.207 124.937 103.049C124.937 101.892 123.995 100.953 122.834 100.953C121.672 100.953 120.73 101.892 120.73 103.049C120.73 104.207 121.672 105.145 122.834 105.145Z" fill="#061533"/>
<path fill-rule="evenodd" clip-rule="evenodd" d="M132.133 104.804L131.088 111.393C131.032 111.717 131.265 112.025 131.566 112.072C131.894 112.124 132.209 111.903 132.265 111.579L133.311 104.991C133.367 104.667 133.134 104.359 132.805 104.307C132.477 104.253 132.189 104.483 132.133 104.804Z" fill="#061533"/>
<path fill-rule="evenodd" clip-rule="evenodd" d="M130.621 117.318C131.443 120.381 134.618 122.218 137.705 121.398C140.79 120.578 142.621 117.409 141.799 114.347L130.621 117.318Z" fill="white"/>
</g>
<defs>
<clipPath id="clip0_125_16437">
<rect width="281" height="285" fill="white"/>
</clipPath>
</defs>
</svg>
