<svg width="20" height="16" viewBox="0 0 20 16" fill="none" xmlns="http://www.w3.org/2000/svg">
<path opacity="1" fill-rule="evenodd" clip-rule="evenodd" d="M10.1269 0.350388C8.60465 0.299694 7.0667 0.715002 5.7389 1.60131C4.2476 2.59781 3.20541 4.06936 2.72536 5.71441C2.5928 5.69822 2.43405 5.70536 2.24556 5.75868C1.54179 5.95836 1.01248 6.53503 0.774484 7.04292C0.465799 7.70479 0.335614 8.58016 0.472939 9.48384C0.609313 10.3847 0.989873 11.1272 1.46587 11.5882C1.9433 12.0495 2.48236 12.1994 3.01786 12.0868C3.81516 11.9167 4.21048 11.7893 4.09885 11.0465L3.55836 7.44585C3.66736 5.49712 4.67624 3.66262 6.36365 2.5345C8.62226 1.02583 11.5834 1.12246 13.7378 2.77631C15.2365 3.92537 16.1066 5.64706 16.2071 7.45442L15.8291 9.97316C14.9861 12.2801 12.8962 13.878 10.4779 14.1048H8.86764C8.45209 14.1048 8.11747 14.4395 8.11747 14.8545V15.2501C8.11747 15.6654 8.45209 16 8.86764 16H10.898C11.3133 16 11.6465 15.6654 11.6465 15.2501V15.0433C13.4701 14.5982 15.0618 13.4775 16.0983 11.9145L16.7487 12.0871C17.278 12.2244 17.8235 12.0495 18.3007 11.5885C18.7767 11.1272 19.157 10.3849 19.2937 9.48408C19.4315 8.58039 19.2975 7.70646 18.9924 7.04316C18.686 6.37985 18.2298 5.9586 17.7031 5.80747C17.4825 5.74392 17.2431 5.7206 17.0377 5.71441C16.6036 4.22691 15.7099 2.87413 14.4218 1.88643C13.1554 0.914683 11.6491 0.400367 10.1269 0.350388Z" fill="white"/>
<path opacity="0.4" fill-rule="evenodd" clip-rule="evenodd" d="M12.503 6.82824C13.0397 6.82824 13.4748 7.2633 13.476 7.80141C13.4748 8.3381 13.0397 8.77435 12.503 8.77435C11.9649 8.77435 11.5286 8.3381 11.5286 7.80141C11.5286 7.26354 11.9651 6.82824 12.503 6.82824ZM9.88265 6.82824C10.4205 6.82824 10.8556 7.2633 10.8556 7.80141C10.8556 8.3381 10.4205 8.77435 9.88265 8.77435C9.34429 8.77435 8.90923 8.3381 8.90923 7.80141C8.90923 7.26354 9.34429 6.82824 9.88265 6.82824ZM7.26323 6.82824C7.79992 6.82824 8.23617 7.2633 8.23617 7.80141C8.23617 8.3381 7.79992 8.77435 7.26323 8.77435C6.72535 8.77435 6.29005 8.3381 6.29005 7.80141C6.29005 7.26354 6.72535 6.82824 7.26323 6.82824ZM9.88265 2.6485C7.02904 2.6485 4.72949 4.87236 4.72949 7.80141C4.72949 9.20823 5.26142 10.4515 6.12797 11.3638L5.82048 12.7423C5.71909 13.1959 6.03373 13.501 6.44142 13.274L7.78754 12.5231C8.42728 12.8008 9.13485 12.9543 9.88265 12.9543C12.7372 12.9543 15.0353 10.7319 15.0353 7.80141C15.0353 4.87236 12.7372 2.6485 9.88265 2.6485Z" fill="white"/>
</svg>
