<svg width="12" height="12" viewBox="0 0 12 12" fill="none" xmlns="http://www.w3.org/2000/svg">
<g clip-path="url(#clip0_70_1581)">
<path d="M4.70573 2.34445C5.12418 1.92599 5.70215 1.70882 6.28793 1.74995L8.27009 1.88911C9.25982 1.9586 10.0413 2.74009 10.1108 3.72983L10.25 5.71199C10.2911 6.29777 10.0739 6.87573 9.65547 7.29419L6.37279 10.5769C5.58112 11.3685 4.30618 11.3772 3.52514 10.5961L1.40381 8.47478C0.622766 7.69373 0.631376 6.41879 1.42305 5.62713L4.70573 2.34445Z" stroke="#2969FF" stroke-width="1.2" stroke-linejoin="round"/>
<path d="M8.12129 5.29271C7.73077 5.68323 7.0976 5.68323 6.70708 5.29271C6.31655 4.90218 6.31655 4.26902 6.70708 3.87849C7.0976 3.48797 7.73077 3.48797 8.12129 3.87849C8.51182 4.26902 8.51182 4.90218 8.12129 5.29271Z" stroke="#2969FF" stroke-width="1.2"/>
</g>
<defs>
<clipPath id="clip0_70_1581">
<rect width="12" height="12" fill="white"/>
</clipPath>
</defs>
</svg>
