<svg width="20" height="20" viewBox="0 0 20 20" fill="none" xmlns="http://www.w3.org/2000/svg">
<g clip-path="url(#clip0_166_10351)">
<path d="M7.84267 3.90733C8.5401 3.2099 9.50338 2.84796 10.4797 2.9165L13.7833 3.14843C15.4328 3.26424 16.7353 4.56674 16.8511 6.21629L17.0831 9.51989C17.1516 10.4962 16.7897 11.4595 16.0923 12.1569L10.6211 17.628C9.30167 18.9475 7.17677 18.9618 5.87502 17.6601L2.33949 14.1246C1.03774 12.8228 1.05209 10.6979 2.37154 9.37846L7.84267 3.90733Z" stroke="#2969FF" stroke-width="2" stroke-linejoin="round"/>
<path d="M13.5359 8.82167C12.8851 9.47254 11.8298 9.47254 11.1789 8.82167C10.528 8.17079 10.528 7.11552 11.1789 6.46464C11.8298 5.81377 12.8851 5.81377 13.5359 6.46464C14.1868 7.11552 14.1868 8.17079 13.5359 8.82167Z" stroke="#2969FF" stroke-width="2"/>
</g>
<defs>
<clipPath id="clip0_166_10351">
<rect width="20" height="20" fill="white"/>
</clipPath>
</defs>
</svg>
