<svg width="52" height="52" viewBox="0 0 52 52" fill="none" xmlns="http://www.w3.org/2000/svg">
<path d="M47.2296 35.1953H44.1573C43.6163 35.1953 43.133 35.4404 42.8084 35.8226L40.7239 31.9567C40.1515 30.8636 40.4283 30.0791 40.3562 28.3001C40.3562 27.1605 39.4328 26.2371 38.3006 26.2371C36.2305 26.2371 34.5501 27.9176 34.5501 29.9877C34.5756 30.714 34.4644 31.3672 34.7521 32.2596L35.0405 33.2119H29.8331C28.614 33.2119 27.4818 34.1927 27.3663 35.3538C27.3015 35.9455 27.4673 36.5297 27.8135 37.0055C27.2654 37.395 26.8903 37.9937 26.8253 38.6787C26.7178 39.6809 27.2696 40.6646 28.1958 41.0805C27.965 41.5063 27.8569 41.9895 27.9072 42.4801C27.9939 43.4031 28.6573 44.1747 29.53 44.485C29.3282 44.8889 29.2416 45.3503 29.2849 45.812C29.4075 46.9731 30.5327 47.9469 31.7516 47.9469H41.0919C41.2001 47.9469 41.3154 47.9254 41.4093 47.8747L42.4478 47.3626C42.6281 48.1416 43.3277 48.7259 44.1573 48.7259H47.2296C48.189 48.7259 48.9824 47.9398 48.9824 46.9731V36.9478C48.9824 35.9814 48.189 35.1953 47.2296 35.1953ZM31.7516 46.5044C31.2684 46.5044 30.7635 46.1004 30.7202 45.668C30.6631 45.1264 31.0738 44.622 31.6579 44.622H33.7783C34.1823 44.622 34.4996 44.2973 34.4996 43.9007C34.4996 43.5042 34.1823 43.1795 33.7783 43.1795C33.6474 43.1795 30.238 43.1795 30.3668 43.1795C29.8403 43.1795 29.3858 42.8118 29.3427 42.3427C29.3138 42.0687 29.4003 41.8092 29.5806 41.6074C30.0438 41.1062 30.5543 41.3793 32.3647 41.3042C32.7612 41.3042 33.0859 40.9798 33.0859 40.5829C33.0859 40.179 32.7612 39.8617 32.3647 39.8617C32.2556 39.8617 28.9899 39.8617 29.1912 39.8617C28.6525 39.8617 28.2003 39.3898 28.2608 38.816C28.3039 38.3469 28.7584 37.9793 29.2849 37.9793C29.4513 37.9793 31.963 37.9793 31.8597 37.9793C32.2566 37.9793 32.5809 37.6546 32.5809 37.258C32.5809 36.8541 32.2566 36.5368 31.8597 36.5368H29.7392C29.1804 36.5368 28.742 36.0502 28.8017 35.4982C28.8449 35.0654 29.3427 34.6544 29.8331 34.6544H36.0143C36.502 34.6544 36.8482 34.1962 36.7067 33.7239L36.1296 31.8342C35.9198 31.134 36.018 30.7695 35.9926 29.9877C35.9926 28.7185 37.0312 27.6796 38.3006 27.6796C38.6396 27.6796 38.9137 27.961 38.9137 28.3001C38.9972 29.9395 38.65 31.1321 39.4547 32.6421L41.6471 36.6952C41.6832 36.7674 41.7338 36.8326 41.7914 36.883L42.4045 37.4528V45.7687L40.9259 46.5044H31.7516ZM44.9939 46.4829C44.584 46.4829 44.251 46.1464 44.251 45.7398C44.251 45.3433 44.5683 45.0185 44.9722 45.0045H44.9939C45.405 45.0045 45.7296 45.3362 45.7296 45.7398C45.7296 46.1511 45.405 46.4829 44.9939 46.4829Z" fill="white"/>
<path d="M24.1786 37.0055C24.532 36.5297 24.6906 35.9455 24.6331 35.3538C24.5175 34.1927 23.3851 33.2119 22.1663 33.2119H16.9516L17.2474 32.2596C17.5307 31.3308 17.4178 30.6805 17.4422 29.9877C17.4422 27.9176 15.7616 26.2371 13.6987 26.2371C10.4362 26.2371 12.3213 30.0048 11.2682 31.9567L9.18367 35.8226C8.85914 35.4404 8.37596 35.1953 7.83502 35.1953H4.76969C3.81036 35.1953 3.01709 35.9814 3.01709 36.9478V46.9731C3.01709 47.9398 3.81036 48.7259 4.76969 48.7259H7.83502C8.66439 48.7259 9.36399 48.1416 9.5443 47.3626L10.5829 47.8747C10.6839 47.9254 10.7921 47.9469 10.9076 47.9469H20.2406C21.4594 47.9469 22.5919 46.9731 22.7072 45.812C22.7577 45.3503 22.6713 44.8889 22.4621 44.485C23.3348 44.1747 23.9983 43.4031 24.0921 42.4801C24.1353 41.9895 24.0344 41.5063 23.8035 41.0805C24.6765 40.6885 25.2763 39.7375 25.174 38.6787C25.109 37.9937 24.7267 37.395 24.1786 37.0055ZM21.6325 43.1795C21.3512 43.1795 18.1302 43.1795 18.2138 43.1795C17.8172 43.1795 17.4925 43.5042 17.4925 43.9007C17.4925 44.2973 17.8172 44.622 18.2138 44.622H20.3416C20.8793 44.622 21.3266 45.0678 21.2791 45.668C21.2288 46.1004 20.731 46.5044 20.2406 46.5044H11.0734L9.58762 45.7687V37.4602L10.208 36.883C10.2656 36.8326 10.3089 36.7674 10.345 36.6952L12.5376 32.6421C13.7673 30.3796 12.3532 27.6796 13.6987 27.6796C14.9681 27.6796 15.9997 28.7185 15.9997 29.9877C15.9781 30.7637 16.0649 31.1843 15.8697 31.8342L15.2929 33.7239C15.1412 34.1783 15.4925 34.6544 15.978 34.6544H22.1663C22.6496 34.6544 23.1545 35.0654 23.1978 35.4982C23.2573 36.0485 22.8205 36.5368 22.2601 36.5368H20.1395C19.7357 36.5368 19.4182 36.8541 19.4182 37.258C19.4182 37.6546 19.7357 37.9793 20.1395 37.9793C20.273 37.9793 22.8034 37.9793 22.7072 37.9793C23.2411 37.9793 23.6954 38.3469 23.7387 38.816C23.7985 39.3836 23.355 39.8617 22.801 39.8617C22.6847 39.8617 19.4981 39.8617 19.6348 39.8617C19.2379 39.8617 18.9136 40.179 18.9136 40.5829C18.9136 40.9798 19.2379 41.3042 19.6348 41.3042H21.7192C22.271 41.3042 22.7033 41.7495 22.6568 42.3427C22.6063 42.8118 22.1592 43.1795 21.6325 43.1795ZM7.00547 46.4829C6.59448 46.4829 6.26273 46.1511 6.26273 45.7398C6.26273 45.3362 6.59448 45.0045 7.00547 45.0045H7.01991C7.41664 45.0115 7.74116 45.3433 7.74116 45.7398C7.74116 46.155 7.39699 46.4829 7.00547 46.4829Z" fill="white"/>
<path d="M30.3165 18.7435L29.9775 16.7383C29.9703 16.7023 29.9847 16.6664 30.0064 16.6375L31.4633 15.2239C32.378 14.3244 31.881 12.7501 30.5977 12.5622L28.5928 12.2737C28.5494 12.2667 28.5206 12.2378 28.4989 12.2089L27.6046 10.3914C27.0304 9.22713 25.3797 9.22843 24.8062 10.3914L23.9118 12.2089C23.8902 12.2378 23.8613 12.2667 23.818 12.2737L21.8129 12.5622C20.5274 12.7505 20.0341 14.3257 20.9474 15.2239L22.4043 16.6375C22.426 16.6664 22.4404 16.7023 22.4332 16.7457L22.0943 18.7435C21.8843 19.9575 23.1422 20.9971 24.3589 20.3879L26.1476 19.443C26.1837 19.4215 26.227 19.4215 26.2631 19.443L28.0518 20.3879C29.2266 20.9917 30.5313 19.9873 30.3165 18.7435ZM23.5151 18.9887L23.8541 16.9837C23.9405 16.4787 23.7747 15.9666 23.407 15.606L21.9571 14.1924C21.8848 14.1201 21.9334 13.9906 22.0221 13.9906L24.0272 13.6948C24.5392 13.6226 24.9793 13.3053 25.2027 12.8436L26.0973 11.026C26.1865 10.9367 26.2243 10.9368 26.3135 11.026L27.208 12.8436C27.4387 13.3053 27.8715 13.6226 28.3836 13.6948L30.3887 13.9906C30.4771 13.9906 30.5258 14.1194 30.4537 14.1924L29.0038 15.606C28.6361 15.9666 28.4702 16.4787 28.5567 16.9837L28.8956 18.9887C28.9295 19.0564 28.817 19.1559 28.7298 19.1112L26.9338 18.1667C26.4794 17.9286 25.9314 17.9286 25.4769 18.1667L23.681 19.1112C23.5937 19.1559 23.4812 19.0564 23.5151 18.9887Z" fill="white"/>
<path d="M10.4027 9.1566C10.6003 9.34924 10.6905 9.62676 10.6438 9.89863L10.301 11.8976C10.1835 12.5826 10.9027 13.1052 11.5177 12.7815L13.3128 11.8381C13.5572 11.7095 13.8491 11.7095 14.0934 11.8381L15.8884 12.7815C16.5036 13.1052 17.2226 12.5826 17.1052 11.8976L16.7623 9.89863C16.7157 9.62676 16.8058 9.34924 17.0036 9.1566L18.4557 7.74086C18.9535 7.25556 18.6789 6.41034 17.9911 6.31032L15.984 6.01872C15.7109 5.97928 15.4748 5.80777 15.3526 5.56019L14.455 3.74156C14.1474 3.11821 13.2587 3.11821 12.9511 3.74156L12.0536 5.56019C11.9314 5.80777 11.6952 5.97928 11.4221 6.01872L9.41524 6.31032C8.72744 6.41034 8.45275 7.25556 8.95037 7.74086L10.4027 9.1566Z" fill="white"/>
<path d="M35.4075 9.1566C35.6052 9.34924 35.6954 9.62676 35.6487 9.89863L35.3059 11.8976C35.1884 12.5826 35.9074 13.1052 36.5227 12.7815L38.3177 11.8381C38.5621 11.7095 38.8539 11.7095 39.0981 11.8381L40.8931 12.7815C41.5084 13.1052 42.2275 12.5826 42.1099 11.8976L41.7672 9.89863C41.7204 9.62676 41.8107 9.34924 42.0083 9.1566L43.4605 7.74086C43.9583 7.25556 43.6836 6.41034 42.9958 6.31032L40.9889 6.01872C40.7157 5.97928 40.4797 5.80777 40.3575 5.56019L39.46 3.74156C39.1523 3.11821 38.2635 3.11821 37.956 3.74156L37.0583 5.56019C36.9363 5.80777 36.7002 5.97928 36.427 6.01872L34.42 6.31032C33.7322 6.41034 33.4577 7.25556 33.9553 7.74086L35.4075 9.1566Z" fill="white"/>
<path d="M13.3901 21.1799V23.2838C13.3901 23.6821 13.7131 24.005 14.1114 24.005C14.5097 24.005 14.8326 23.6821 14.8326 23.2838V21.1799C14.8326 20.7819 14.5097 20.4586 14.1114 20.4586C13.7131 20.4586 13.3901 20.7819 13.3901 21.1799Z" fill="white"/>
<path d="M9.20119 24.3649C9.43305 24.6918 9.88426 24.7656 10.207 24.5361C10.5317 24.3057 10.6085 23.8557 10.3782 23.531L9.16139 21.8148C8.93072 21.4905 8.48169 21.413 8.15558 21.6437C7.83087 21.874 7.7541 22.3244 7.98442 22.6491L9.20119 24.3649Z" fill="white"/>
<path d="M18.0154 24.536C18.3389 24.7661 18.79 24.6909 19.0208 24.3652L20.2379 22.6491C20.4686 22.3244 20.3918 21.8743 20.0671 21.6436C19.7414 21.413 19.2916 21.4897 19.0617 21.8144L17.8446 23.5306C17.6139 23.8556 17.6907 24.3057 18.0154 24.536Z" fill="white"/>
<path d="M38.1763 20.4586C37.778 20.4586 37.4551 20.7819 37.4551 21.1799V23.2838C37.4551 23.6821 37.778 24.005 38.1763 24.005C38.5746 24.005 38.8976 23.6821 38.8976 23.2838V21.1799C38.8976 20.7819 38.5746 20.4586 38.1763 20.4586Z" fill="white"/>
<path d="M32.0494 22.6491L33.2661 24.3649C33.498 24.6918 33.9492 24.7656 34.2719 24.5361C34.5966 24.3057 34.6734 23.8557 34.4431 23.531L33.2263 21.8148C32.9957 21.4905 32.5463 21.413 32.2205 21.6437C31.8958 21.874 31.819 22.3244 32.0494 22.6491Z" fill="white"/>
<path d="M43.1265 21.8148L41.9097 23.531C41.6794 23.8557 41.7562 24.3057 42.0809 24.5361C42.4037 24.7656 42.8548 24.6918 43.0867 24.3649L44.3034 22.6491C44.5338 22.3244 44.457 21.874 44.1323 21.6437C43.8069 21.413 43.3572 21.4905 43.1265 21.8148Z" fill="white"/>
</svg>
