<svg width="18" height="18" viewBox="0 0 18 18" fill="none" xmlns="http://www.w3.org/2000/svg">
<path fill-rule="evenodd" clip-rule="evenodd" d="M7.11459 4.02397C7.11459 2.98167 7.95955 2.13672 9.00185 2.13672C10.0442 2.13672 10.8891 2.98167 10.8891 4.02397V4.13766C12.5258 4.33685 14.0549 4.79121 15.4038 5.44854C15.6593 5.57307 15.7655 5.88117 15.641 6.13671C15.5165 6.39224 15.2084 6.49845 14.9528 6.37392C13.2429 5.54062 11.2008 5.05339 9.00184 5.05339C6.80284 5.05339 4.76079 5.54062 3.05085 6.37392C2.79531 6.49845 2.48721 6.39224 2.36268 6.13671C2.23815 5.88117 2.34435 5.57307 2.59989 5.44854C3.94875 4.79121 5.47784 4.33684 7.11459 4.13765V4.02397ZM13.3016 13.3114C13.199 14.7479 12.0037 15.8609 10.5635 15.8609H7.44024C6.00005 15.8609 4.80472 14.7479 4.70211 13.3114L4.2298 6.699C5.68287 6.19232 7.29904 5.90989 9.00187 5.90989C10.7047 5.90989 12.3209 6.19232 13.7739 6.699L13.3016 13.3114ZM8.14403 8.31185C8.14403 8.02759 7.91359 7.79714 7.62932 7.79714C7.34506 7.79714 7.11462 8.02759 7.11462 8.31185V12.4295C7.11462 12.7138 7.34506 12.9442 7.62932 12.9442C7.91359 12.9442 8.14403 12.7138 8.14403 12.4295V8.31185ZM10.3744 7.79714C10.6587 7.79714 10.8891 8.02759 10.8891 8.31185V12.4295C10.8891 12.7138 10.6587 12.9442 10.3744 12.9442C10.0902 12.9442 9.85971 12.7138 9.85971 12.4295V8.31185C9.85971 8.02759 10.0902 7.79714 10.3744 7.79714Z" fill="white"/>
</svg>
