<svg width="64" height="64" viewBox="0 0 64 64" fill="none" xmlns="http://www.w3.org/2000/svg">
<path opacity="0.4" d="M25.933 58.6663H38.0691C43.6652 58.6663 48.31 54.3416 48.7087 48.7596L50.6368 16.4318C44.9667 14.4425 38.6541 13.333 32.001 13.333C25.348 13.333 19.0354 14.4425 13.3652 16.4318L15.2934 48.7596C15.6921 54.3416 20.3368 58.6663 25.933 58.6663Z" fill="white"/>
<path fill-rule="evenodd" clip-rule="evenodd" d="M39.3338 11.7747V10.6663C39.3338 6.61625 36.0505 3.33301 32.0005 3.33301C27.9504 3.33301 24.6671 6.61625 24.6671 10.6663V11.7747C18.3072 12.5487 12.3656 14.3143 7.12431 16.8685C6.13137 17.3523 5.71869 18.5495 6.20257 19.5425C6.68646 20.5354 7.88366 20.9481 8.8766 20.4642C15.521 17.2263 23.4558 15.333 32.0005 15.333C40.5451 15.333 48.4799 17.2263 55.1243 20.4642C56.1172 20.9481 57.3144 20.5354 57.7983 19.5425C58.2822 18.5495 57.8695 17.3523 56.8766 16.8685C51.6353 14.3143 45.6937 12.5487 39.3338 11.7747Z" fill="white"/>
<path fill-rule="evenodd" clip-rule="evenodd" d="M26.668 24.666C27.7725 24.666 28.668 25.5614 28.668 26.666V42.666C28.668 43.7706 27.7725 44.666 26.668 44.666C25.5634 44.666 24.668 43.7706 24.668 42.666V26.666C24.668 25.5614 25.5634 24.666 26.668 24.666Z" fill="white"/>
<path fill-rule="evenodd" clip-rule="evenodd" d="M37.334 24.666C38.4386 24.666 39.334 25.5614 39.334 26.666V42.666C39.334 43.7706 38.4386 44.666 37.334 44.666C36.2294 44.666 35.334 43.7706 35.334 42.666V26.666C35.334 25.5614 36.2294 24.666 37.334 24.666Z" fill="white"/>
</svg>
